<svg height="316.227766" viewBox="0 0 140 140" width="316.227766" xmlns="http://www.w3.org/2000/svg"><g fill-rule="evenodd"><path d="m140 70c0 38.6601-31.3399 70-70 70s-70-31.3399-70-70 31.3399-70 70-70 70 31.3399 70 70"/><path d="m105.4612 64.2314c-2.7607-17.0992-17.5829-30.1596-35.4612-30.1596-19.8427 0-35.9283 16.0856-35.9283 35.9283s16.0856 35.9283 35.9283 35.9283c17.8783 0 32.7005-13.0604 35.4612-30.1596h2.1341c-2.7795 18.2658-18.553 32.2618-37.5953 32.2618-21.0037 0-38.0305-17.0268-38.0305-38.0304s17.0268-38.0305 38.0305-38.0305c19.0428 0 34.8159 13.996 37.5953 32.2618h-2.1341zm3.6659 11.5372h2.1184c-2.8098 20.2722-20.1998 35.8837-41.2455 35.8837-23.0041 0-41.6523-18.6482-41.6523-41.6523s18.6482-41.6523 41.6523-41.6523c21.0457 0 38.4357 15.6114 41.2455 35.8837h-2.1184c-2.7931-19.1077-19.2439-33.782-39.1271-33.782-21.8431 0-39.5506 17.7076-39.5506 39.5506s17.7076 39.5506 39.5506 39.5506c19.8832 0 36.334-14.6743 39.1271-33.782z" fill="#bc955c"/><path d="m41.049 85.3703h12.3756v-2.1022h-12.3756zm12.1583 11.3235h13.603v-2.1022h-13.603zm18.7794-17.0475v-5.7245l2.1027 1.2137v6.613h-5.0559v-2.1022zm-27.6152 0 9.3793-16.2451h.661v2.7749l-8.9903 15.5724h-4.3726v-2.1022h3.3225zm55.0557 5.7245h-30.3937v-2.1027h28.2915v-7.4995h2.1022zm-21.7159-8.1443v2.4198h15.9919v-3.8777h2.1022v5.9799h-20.1963v-5.7357zm-23.2994-4.0904-3.7586 6.5102h2.7713v2.1022h-6.2488l7.2361-12.5331zm8.4589.1018v17.7314h3.9395v2.1027h-6.0417v-21.9363h24.4234c3.8853 0 7.0456-3.1604 7.0456-7.0456s-3.1604-7.0456-7.0456-7.0456h-4.7459v-2.1027h4.7454c5.0443 0 9.1483 4.1041 9.1483 9.1483s-4.1041 9.1478-9.1483 9.1478zm7.7452-28.1679h1.3707v9.8717h-7.0705l5.6997-9.8717zm-7.7452 22.4438h9.1159v-6.8476h-9.1159zm20.0367-26.0657v-2.1027h-15.269l-9.004 15.5962h-8.6403v2.1027h21.9925v1.5197h-11.2181v11.052h24.4234c3.0469 0 5.526-2.4786 5.526-5.526s-2.4791-5.526-5.526-5.526h-4.7459v2.1022h4.7454c1.8879 0 3.4238 1.5359 3.4238 3.4238s-1.5359 3.4238-3.4238 3.4238h-7.4803v-22.4438h5.1962v-2.1022h-7.2984v24.546h-1.5197v-24.546h-4.5235l-6.9129 11.9739h-1.7547l7.7903-13.4936h14.2189zm-32.9133 17.1159h9.2547v34.5079h-6.0422v-2.1027h3.94v-30.303h-7.1525z" fill="#bc955c"/><path d="m70 2.8939c-37.0027 0-67.1061 30.1034-67.1061 67.1061s30.1034 67.106 67.1061 67.106 67.1061-30.1034 67.1061-67.106-30.104-67.1061-67.1061-67.1061zm0 131.5786c-35.5504 0-64.4725-28.9221-64.4725-64.4725s28.9221-64.472 64.4725-64.472 64.4725 28.9216 64.4725 64.472-28.9226 64.4725-64.4725 64.4725z" fill="#bc955c"/><path d="m70 21.4469c-26.7723 0-48.553 21.7808-48.553 48.5531s21.7807 48.5526 48.553 48.5526 48.553-21.7808 48.553-48.5526-21.7807-48.5531-48.553-48.5531zm0 95.3327c-25.7947 0-46.7802-20.9849-46.7802-46.7796s20.9855-46.7802 46.7802-46.7802 46.7802 20.9855 46.7802 46.7802-20.986 46.7796-46.7802 46.7796z" fill="#bc955c"/><g fill="#fff"><path d="m29.0526 112.3129 5.5508 5.0554-1.4685 1.6129-7.4362-6.7721 6.3142-6.9332 1.8849 1.7167z"/><path d="m47.2789 116.4006-2.0369-1.0557-9.5515 5.6268 2.4269 1.2573 1.7-1.0334 5.8101 3.011.1357 1.9847 2.4274 1.2573-.9118-11.0479zm-5.7549 3.7495 3.6943-2.2658.2797 4.3245-3.9739-2.0587z"/><path d="m76.9176 124.7264c-.037-2.2369-1.2846-3.166-3.8898-3.1229l-7.6323.1246.1535 9.3743 2.5485-.0416-.0476-2.9314 5.0837-.0831c2.6194-.0431 3.822-.9974 3.7855-3.2491l-.0015-.0709zm-4.1152 1.243-4.7869.078-.0355-2.1944 4.7859-.0785c1.1048-.0177 1.4938.3723 1.5045 1.0379l.001.0709c.0106.6652-.3505 1.0678-1.469 1.0861z"/><path d="m84.6087 119.5584-2.2151.5972-3.2435 10.5991 2.6381-.7117.5562-1.9097 6.3172-1.703 1.4407 1.3712 2.6391-.7117zm-1.7122 6.651 1.194-4.1649 3.1265 2.9998-4.3204 1.165z"/><path d="m98.7258 121.4046 7.0385-4.2363 1.1245 1.8682-10.4725 6.304-1.0957-1.82 3.7561-8.1798-6.6743 4.0175-1.1251-1.8687 10.1574-6.1136 1.1099 1.8449-3.8189 8.1839z"/><path d="m48.1654 18.9467-.0132-.0243c-.3774-.6965-1.0293-.9746-2.0389-.6115.5015-.5278.5511-1.1337.2467-1.7314l-.0091-.0172c-.4337-.8039-1.1428-1.0096-2.4705-.31l-5.0225 2.6457 2.8711 5.451 5.0473-2.6584c1.5997-.8429 1.893-1.7871 1.389-2.744zm-7.6292.2366 3.48-1.8332c.7178-.3779 1.0592-.189 1.2588.1904l.0045.0081c.2087.3961.1682.8596-.6641 1.2983l-3.3326 1.7547-.7467-1.4183zm5.5478 1.6924-3.6451 1.9199-.8429-1.5997 3.6122-1.9026c.8829-.465 1.3074-.2989 1.55.1418l.0173.0334c.2517.4782.1418.9686-.6915 1.4072z"/><path d="m23.2537 39.2599c1.3135.9138 1.3545 2.3306-.1479 5.0686-1.624 2.9785-2.9876 3.5266-4.7849 2.5409l-.4083-.2244c-1.7567-.964-2.0105-2.4-.387-5.3786 1.4999-2.7329 2.7187-3.4542 4.1573-2.8666l-.6955 1.2547c-.7806-.1829-1.4933.4655-2.4325 2.1767-1.0805 1.969-1.0769 2.9704.116 3.6249l.2452.1342c1.2253.6727 2.084.1342 3.1599-1.8266.9422-1.7157 1.0906-2.6716.4812-3.2475z"/><path d="m92.27 13.5318-1.0298-.3875 2.473-.693 1.0997.4139z"/><path d="m121.8903 40.205c-1.6863-2.9319-3.1502-3.6269-4.8948-2.624l-.4042.2325c-1.777 1.0222-1.9285 2.6462-.234 5.5736 1.6827 2.9446 3.1629 3.6304 4.9399 2.6082l.4042-.232c1.744-1.0035 1.8798-2.6183.1889-5.5584zm-.9716 4.3853-.2426.1393c-1.2269.7061-2.0931.1722-3.3012-1.9279-1.2076-2.1002-1.2289-3.1088-.001-3.8154l.2421-.1388c1.1874-.6833 2.0445-.1652 3.2562 1.9426 1.2177 2.1164 1.2421 3.1127.0466 3.8002z"/><path d="m36.6055 23.622c1.659 1.9902 1.2547 3.6011-.7993 5.3137-2.048 1.7192-3.712 1.8195-5.3705-.1697l-1.7365-2.0829 1.0379-.8652 1.82 2.1832c1.0916 1.3094 2.1777 1.1565 3.5089.0471 1.3317-1.1104 1.6701-2.1447.578-3.4547l-1.82-2.1827 1.045-.8713 1.7365 2.0824z"/><path d="m30.3967 32.0512.8941.7467-4.1406 4.9546-4.7261-3.9491.8662-1.0369 3.8321 3.2024 3.2744-3.9177z"/><path d="m61.3545 10.8922-1.2152.1899-2.9334 6.7007 1.4366-.2244.5714-1.3525 4.5752-.7147.9569 1.1144 1.436-.2244zm-1.7202 4.3239 1.2983-3.0413 2.1539 2.5023-3.4521.539z"/><path d="m88.1189 12.9963 6.3355 2.3848-.3941 1.0476-5.0701-1.9092-.4929 1.3094 4.5985 1.7309-.3642.9685-4.5995-1.7309-.5253 1.3961 5.0701 1.9087-.3941 1.047-6.3355-2.3849 2.1716-5.7681z"/><path d="m103.3555 21.7092-2.6452-1.5885-2.5778 4.2915-1.1585-.6955 2.5768-4.292-2.6452-1.5885.5957-.9908 6.4494 3.8731-.5952.9908z"/><path d="m113.9785 35.4063c-1.2836.9619-2.6412.5557-4.7682-1.737-2.3139-2.4811-2.4041-3.9486-.9007-5.3426l.3419-.3171c1.4685-1.3631 2.9117-1.1504 5.2256 1.3307 2.1179 2.2825 2.4193 3.6669 1.4118 4.8457l-.9771-1.0481c.4245-.6833.035-1.5647-1.2958-2.9993-1.5267-1.6468-2.4781-1.9593-3.476-1.0339l-.2046.19c-1.0253.9508-.7852 1.9355.736 3.5758 1.3297 1.433 2.1893 1.8788 2.9274 1.4852z"/><path d="m107.6356 23.6231-3.8326 4.828-1.0587-.8404 3.8321-4.828z"/><path d="m78.6508 15.9412 5.0235.9275-.2117 1.1463-6.3527-1.1732 1.119-6.0594 1.3292.2452-.9072 4.9136z"/><path d="m66.9792 10.2244 7.5228.1246-.0192 1.156-3.0854-.0512-.0831 5.0052-1.352-.0223.0831-5.0052-3.0854-.0512.0192-1.156z"/></g><path d="m15.9943 74.2784c-.4559 0-.6611-.1864-.9711-.4691-.3774-.344-.848-.772-1.7542-.772s-1.3961.4463-1.7537.772c-.3095.2827-.5142.4691-.9695.4691-.4549 0-.6595-.1864-.9685-.4691-.3576-.3257-.847-.772-1.7527-.772v1.1636c.4549 0 .659.1864.968.4681.3576.3267.847.773 1.7532.773s1.3961-.4463 1.7532-.7725c.3095-.2822.5147-.4686.97-.4686.4559 0 .6605.1864.9706.4686.3576.3262.848.7725 1.7547.7725.9062 0 1.3768-.428 1.7542-.7725.31-.2822.5147-.4686.9711-.4686v-1.1636c-.9067 0-1.3971.4463-1.7547.772-.31.2827-.5152.4691-.9706.4691" fill="#00bbb4"/><path d="m15.9943 70.0391c-.4559 0-.6611-.1869-.9711-.4696-.3774-.344-.848-.772-1.7542-.772s-1.3966.4468-1.7542.7725c-.309.2827-.5136.4691-.969.4691-.4549 0-.6595-.1864-.9685-.4691-.3576-.3257-.847-.7725-1.7527-.7725v1.1635c.4549 0 .659.1864.968.4686.3576.3262.847.773 1.7532.773s1.3961-.4463 1.7537-.773c.3095-.2822.5142-.4686.9695-.4686.4559 0 .6605.1864.9706.4686.3576.3262.848.773 1.7547.773.9062 0 1.3768-.4285 1.7542-.7725.31-.2822.5147-.4691.9711-.4691v-1.1635c-.9067 0-1.3971.4468-1.7547.7725-.31.2827-.5152.4691-.9706.4691" fill="#00bbb4"/><path d="m15.9943 65.7993c-.4559 0-.6611-.1864-.9711-.4691-.3774-.3445-.848-.772-1.7542-.772s-1.3961.4458-1.7537.772c-.3095.2827-.5142.4691-.9695.4691-.4549 0-.6595-.1864-.9685-.4691-.3576-.3262-.847-.772-1.7527-.772v1.163c.4549 0 .659.1869.968.4686.3576.3267.847.773 1.7532.773s1.3961-.4463 1.7532-.7725c.3095-.2822.5147-.4691.97-.4691.4559 0 .6605.1869.9706.4691.3576.3262.848.7725 1.7547.7725.9062 0 1.3768-.428 1.7542-.7725.31-.2822.5147-.4691.9711-.4691v-1.163c-.9067 0-1.3971.4458-1.7547.772-.31.2827-.5152.4691-.9706.4691" fill="#00bbb4"/><path d="m129.4499 74.2784c-.4559 0-.6605-.1864-.9711-.4691-.3774-.344-.848-.772-1.7542-.772s-1.3956.4463-1.7532.772c-.31.2827-.5147.4691-.9701.4691-.4549 0-.659-.1864-.9685-.4691-.3576-.3257-.847-.772-1.7527-.772v1.1636c.4549 0 .659.1864.9685.4681.3576.3267.8464.773 1.7527.773.9067 0 1.3961-.4463 1.7532-.7725.31-.2822.5147-.4686.9701-.4686.4559 0 .6605.1864.9706.4686.3581.3262.848.7725 1.7547.7725.9062 0 1.3768-.428 1.7542-.7725.31-.2822.5152-.4686.9711-.4686v-1.1636c-.9067 0-1.3971.4463-1.7547.772-.31.2827-.5147.4691-.9706.4691" fill="#00bbb4"/><path d="m129.4499 70.0391c-.4559 0-.6605-.1869-.9711-.4696-.3774-.344-.848-.772-1.7542-.772s-1.3961.4468-1.7537.7725c-.3095.2827-.5141.4691-.9695.4691-.4549 0-.659-.1864-.9685-.4691-.3576-.3257-.847-.7725-1.7527-.7725v1.1635c.4549 0 .659.1864.9685.4686.3576.3262.8464.773 1.7527.773.9067 0 1.3961-.4463 1.7537-.773.31-.2822.5142-.4686.9695-.4686.4559 0 .6605.1864.9706.4686.3581.3262.848.773 1.7547.773.9062 0 1.3768-.4285 1.7542-.7725.31-.2822.5152-.4691.9711-.4691v-1.1635c-.9067 0-1.3971.4468-1.7547.7725-.31.2827-.5147.4691-.9706.4691" fill="#00bbb4"/><path d="m132.1752 64.5582v1.163c-.4559 0-.661.1869-.9711.4691-.3774.3445-.848.7725-1.7542.7725-.9067 0-1.3966-.4463-1.7547-.7725-.31-.2822-.5147-.4691-.9706-.4691-.4554 0-.66.1869-.9701.4691-.3571.3262-.8465.7725-1.7532.7725-.9062 0-1.395-.4463-1.7527-.773-.3095-.2816-.5136-.4686-.9685-.4686v-1.163c.9057 0 1.395.4458 1.7527.772.3095.2827.5136.4691.9685.4691.4554 0 .66-.1864.9701-.4691.3576-.3262.847-.772 1.7532-.772s1.3768.4275 1.7542.772c.3105.2827.5152.4691.9711.4691s.6605-.1864.9706-.4691c.3576-.3262.848-.772 1.7547-.772" fill="#00bbb4"/></g></svg>