<svg xmlns="http://www.w3.org/2000/svg" viewBox="0 0 200 200" width="200" height="200">
	<style>
		tspan { white-space:pre }
		.shp0 { fill: #f5cd21 } 
		.shp1 { fill: #aa8317 } 
		.shp2 { fill: #5b4c3f } 
		.shp3 { fill: #fdfdfd } 
	</style>
	<g >
		<path class="shp0" d="M95.24 0.16C94.58 0.2 93.28 0.29 92.36 0.36C91.44 0.43 90.01 0.56 89.2 0.65C88.39 0.73 87.07 0.9 86.28 1.01C85.49 1.12 83.99 1.35 82.96 1.53C81.93 1.7 80.32 2.01 79.4 2.2C78.48 2.4 76.86 2.77 75.8 3.03C74.74 3.29 73.18 3.71 72.32 3.96C71.46 4.21 69.88 4.7 68.8 5.05C67.72 5.41 66.23 5.93 65.48 6.2C64.73 6.48 63.65 6.89 63.08 7.12C62.51 7.35 61.57 7.73 61 7.98C60.43 8.22 59.4 8.67 58.72 8.98C58.04 9.28 56.53 10.01 55.36 10.6C54.19 11.18 52.59 12.02 51.8 12.46C51.01 12.89 49.68 13.66 48.84 14.16C48 14.66 46.65 15.5 45.84 16.02C45.03 16.55 43.71 17.43 42.92 17.98C42.13 18.53 40.9 19.42 40.2 19.95C39.5 20.48 38.33 21.38 37.6 21.96C36.87 22.54 35.72 23.5 35.04 24.08C34.36 24.67 33.22 25.67 32.52 26.31C31.82 26.95 30.39 28.33 29.36 29.36C28.32 30.39 26.93 31.83 26.28 32.56C25.62 33.29 24.66 34.37 24.15 34.96C23.64 35.55 22.61 36.8 21.87 37.73C21.13 38.66 20.05 40.07 19.47 40.85C18.9 41.64 18.06 42.82 17.6 43.48C17.15 44.14 16.34 45.36 15.8 46.2C15.26 47.04 14.41 48.42 13.91 49.28C13.4 50.14 12.62 51.51 12.18 52.32C11.73 53.13 10.87 54.83 10.25 56.08C9.64 57.33 8.82 59.08 8.44 59.96C8.05 60.84 7.46 62.28 7.11 63.16C6.76 64.04 6.19 65.55 5.84 66.52C5.5 67.49 5.02 68.91 4.77 69.68C4.53 70.45 4.19 71.58 4.01 72.2C3.83 72.82 3.56 73.81 3.4 74.4C3.24 74.99 2.95 76.16 2.75 77C2.55 77.84 2.22 79.4 2 80.48C1.79 81.56 1.48 83.25 1.33 84.24C1.17 85.23 0.97 86.62 0.88 87.32C0.8 88.02 0.65 89.34 0.56 90.24C0.48 91.14 0.37 92.44 0.32 93.12C0.28 93.8 0.2 95.19 0.16 96.2C0.12 97.21 0.08 98.9 0.08 99.96C0.08 101.02 0.12 102.76 0.16 103.84C0.21 104.92 0.3 106.54 0.36 107.44C0.43 108.34 0.54 109.6 0.6 110.24C0.67 110.88 0.82 112.12 0.93 113C1.04 113.88 1.26 115.36 1.41 116.28C1.56 117.2 1.81 118.61 1.97 119.4C2.13 120.19 2.41 121.54 2.61 122.4C2.8 123.26 3.16 124.72 3.41 125.64C3.65 126.56 4.08 128.08 4.36 129C4.64 129.92 5.11 131.38 5.4 132.24C5.69 133.1 6.21 134.52 6.54 135.4C6.87 136.28 7.42 137.67 7.76 138.48C8.1 139.29 8.66 140.56 8.99 141.3C9.33 142.04 10.07 143.59 10.65 144.74C11.23 145.9 12.06 147.49 12.5 148.28C12.94 149.07 13.55 150.15 13.86 150.68C14.17 151.21 14.82 152.27 15.3 153.04C15.79 153.81 16.62 155.09 17.15 155.88C17.69 156.67 18.6 157.97 19.18 158.76C19.75 159.55 20.58 160.65 21.01 161.21C21.45 161.77 22.24 162.76 22.77 163.41C23.31 164.06 24.2 165.12 24.76 165.76C25.32 166.4 26.39 167.58 27.15 168.39C27.9 169.2 29.24 170.57 30.12 171.43C31 172.29 32.35 173.56 33.12 174.25C33.89 174.94 35.24 176.11 36.12 176.84C37 177.58 38.29 178.61 38.99 179.15C39.68 179.68 40.76 180.49 41.39 180.95C42.01 181.4 43.56 182.47 44.84 183.32C46.12 184.17 47.79 185.24 48.56 185.7C49.33 186.16 50.72 186.96 51.64 187.48C52.56 187.99 54.4 188.95 55.72 189.6C57.04 190.25 58.77 191.07 59.56 191.42C60.35 191.77 61.74 192.35 62.64 192.72C63.54 193.08 64.95 193.62 65.76 193.92C66.57 194.22 68.01 194.71 68.96 195.02C69.91 195.33 71.38 195.79 72.24 196.04C73.1 196.28 74.81 196.74 76.04 197.04C77.27 197.35 78.98 197.74 79.84 197.91C80.7 198.09 82.03 198.34 82.8 198.47C83.57 198.6 84.81 198.8 85.56 198.91C86.31 199.02 87.55 199.18 88.32 199.27C89.09 199.36 90.35 199.49 91.12 199.56C91.89 199.62 93.06 199.71 93.72 199.76C94.38 199.8 96.09 199.87 97.52 199.92C99.2 199.97 100.98 199.97 102.56 199.92C103.9 199.88 105.59 199.8 106.32 199.76C107.05 199.71 108.43 199.6 109.4 199.51C110.37 199.43 111.86 199.26 112.72 199.15C113.58 199.04 114.86 198.86 115.56 198.75C116.26 198.64 117.52 198.43 118.36 198.27C119.2 198.12 120.6 197.84 121.48 197.64C122.36 197.45 123.75 197.12 124.56 196.92C125.37 196.72 126.85 196.32 127.84 196.03C128.83 195.75 130.54 195.21 131.64 194.85C132.74 194.48 134.47 193.86 135.48 193.48C136.49 193.09 138.18 192.41 139.24 191.96C140.3 191.51 141.97 190.76 142.96 190.29C143.95 189.82 145.52 189.03 146.44 188.54C147.36 188.06 148.84 187.24 149.72 186.74C150.6 186.23 151.99 185.41 152.8 184.9C153.61 184.39 154.98 183.5 155.84 182.92C156.7 182.35 157.94 181.48 158.6 181C159.26 180.52 160.43 179.64 161.2 179.05C161.97 178.45 163.23 177.44 164 176.79C164.77 176.15 165.9 175.18 166.52 174.63C167.14 174.08 168.36 172.95 169.23 172.12C170.11 171.28 171.46 169.93 172.23 169.12C173 168.31 174.14 167.06 174.77 166.36C175.39 165.66 176.31 164.59 176.81 163.99C177.31 163.39 178.16 162.35 178.69 161.67C179.22 160.99 180.14 159.79 180.72 159C181.3 158.21 182.31 156.77 182.96 155.8C183.61 154.83 184.55 153.37 185.06 152.56C185.56 151.75 186.35 150.41 186.82 149.6C187.28 148.79 187.91 147.65 188.22 147.08C188.53 146.51 189.09 145.43 189.46 144.68C189.83 143.93 190.45 142.65 190.82 141.84C191.2 141.03 191.81 139.62 192.2 138.72C192.58 137.82 193.23 136.18 193.64 135.08C194.05 133.98 194.62 132.36 194.92 131.48C195.21 130.6 195.71 128.96 196.04 127.84C196.36 126.72 196.77 125.22 196.95 124.52C197.12 123.82 197.43 122.5 197.63 121.6C197.83 120.7 198.16 119.08 198.35 118C198.55 116.92 198.82 115.27 198.95 114.32C199.08 113.37 199.27 111.95 199.35 111.16C199.44 110.37 199.57 109.07 199.63 108.28C199.7 107.49 199.8 106.08 199.85 105.16C199.91 104.24 199.95 101.91 199.95 100C199.95 98.09 199.91 95.76 199.85 94.84C199.8 93.92 199.7 92.51 199.63 91.72C199.57 90.93 199.44 89.63 199.36 88.84C199.27 88.05 199.07 86.52 198.91 85.44C198.76 84.36 198.49 82.71 198.31 81.76C198.14 80.81 197.83 79.3 197.63 78.4C197.43 77.5 197.09 76.08 196.88 75.24C196.67 74.4 196.29 73.04 196.05 72.2C195.81 71.36 195.35 69.89 195.04 68.92C194.72 67.95 194.22 66.49 193.92 65.68C193.62 64.87 193.08 63.44 192.7 62.52C192.33 61.6 191.67 60.05 191.23 59.08C190.8 58.11 189.96 56.35 189.36 55.16C188.76 53.97 187.9 52.33 187.44 51.52C186.99 50.71 186.24 49.41 185.78 48.64C185.31 47.87 184.54 46.63 184.06 45.88C183.58 45.13 182.79 43.94 182.3 43.24C181.81 42.54 180.9 41.28 180.28 40.44C179.66 39.6 178.62 38.25 177.96 37.44C177.31 36.63 176.34 35.46 175.81 34.84C175.28 34.22 174.48 33.33 174.04 32.84C173.6 32.36 172.65 31.35 171.94 30.6C171.22 29.85 170.05 28.68 169.34 28C168.62 27.32 167.46 26.24 166.76 25.61C166.06 24.97 164.87 23.94 164.12 23.32C163.37 22.7 162.15 21.71 161.4 21.12C160.65 20.54 159.34 19.55 158.48 18.93C157.62 18.32 156.04 17.23 154.96 16.52C153.88 15.8 152.35 14.83 151.56 14.36C150.77 13.88 149.42 13.1 148.56 12.62C147.7 12.14 146.08 11.29 144.96 10.72C143.84 10.16 142.27 9.4 141.48 9.04C140.69 8.68 139.37 8.1 138.56 7.76C137.75 7.42 136.16 6.8 135.04 6.38C133.92 5.96 132.17 5.35 131.16 5.01C130.15 4.68 128.55 4.19 127.6 3.92C126.65 3.65 125.23 3.27 124.44 3.07C123.65 2.87 122.28 2.55 121.4 2.36C120.52 2.17 119.12 1.88 118.28 1.73C117.44 1.58 116.17 1.36 115.44 1.25C114.71 1.13 113.42 0.95 112.56 0.85C111.7 0.74 110.17 0.58 109.16 0.49C108.15 0.4 106.78 0.28 106.12 0.23C105.46 0.19 103.01 0.14 100.68 0.12C98.35 0.11 95.9 0.13 95.24 0.16Z" />
		<path class="shp1" d="M95.4 6.08C94.7 6.12 93.4 6.21 92.52 6.28C91.64 6.35 90.29 6.48 89.52 6.56C88.75 6.65 87.6 6.79 86.96 6.88C86.32 6.97 85.04 7.17 84.12 7.33C83.2 7.48 81.67 7.77 80.72 7.97C79.77 8.17 78.21 8.53 77.24 8.77C76.27 9.01 74.69 9.44 73.72 9.72C72.75 10 71.24 10.47 70.36 10.76C69.48 11.05 67.99 11.58 67.04 11.94C66.09 12.29 64.62 12.88 63.76 13.24C62.9 13.6 61.73 14.11 61.16 14.36C60.59 14.62 59.17 15.31 58 15.89C56.83 16.47 55.29 17.28 54.56 17.69C53.83 18.09 52.52 18.85 51.64 19.38C50.76 19.91 49.32 20.81 48.44 21.39C47.56 21.97 46.19 22.91 45.4 23.48C44.61 24.04 43.58 24.8 43.12 25.15C42.66 25.51 41.83 26.16 41.28 26.6C40.73 27.04 39.79 27.81 39.2 28.31C38.61 28.82 37.6 29.7 36.96 30.27C36.32 30.84 34.79 32.32 33.55 33.55C32.32 34.79 30.84 36.32 30.27 36.96C29.7 37.6 28.8 38.62 28.28 39.24C27.76 39.86 26.93 40.86 26.44 41.48C25.95 42.1 25.08 43.23 24.51 44C23.93 44.77 23.04 46.01 22.53 46.76C22.01 47.51 21.15 48.8 20.62 49.64C20.09 50.48 19.36 51.66 19 52.28C18.64 52.9 18.06 53.9 17.72 54.52C17.37 55.14 16.64 56.54 16.08 57.64C15.52 58.74 14.81 60.22 14.48 60.92C14.16 61.62 13.59 62.96 13.2 63.88C12.82 64.8 12.26 66.21 11.96 67C11.67 67.79 11.25 68.96 11.03 69.6C10.81 70.24 10.42 71.44 10.16 72.28C9.91 73.12 9.49 74.54 9.25 75.44C9.01 76.34 8.66 77.69 8.49 78.44C8.31 79.19 8.02 80.54 7.84 81.44C7.66 82.34 7.39 83.84 7.24 84.76C7.09 85.68 6.88 87.14 6.77 88C6.66 88.86 6.49 90.35 6.41 91.32C6.32 92.29 6.21 93.69 6.16 94.44C6.11 95.19 6.05 97.08 6.03 98.64C6 100.35 6.02 102.33 6.07 103.6C6.12 104.77 6.22 106.42 6.28 107.28C6.35 108.14 6.5 109.65 6.61 110.64C6.72 111.63 6.9 113.05 7.01 113.8C7.12 114.55 7.34 115.86 7.49 116.72C7.64 117.58 7.89 118.87 8.05 119.6C8.2 120.33 8.51 121.64 8.72 122.52C8.94 123.4 9.26 124.66 9.45 125.32C9.63 125.98 9.81 126.55 9.85 126.58C9.89 126.61 10.13 126.36 10.39 126.02C10.65 125.68 10.98 125.17 11.12 124.88C11.26 124.59 13.29 120.17 15.61 115.06C19.31 106.93 19.83 105.73 19.77 105.54C19.73 105.42 19.05 103.71 18.25 101.74C17.45 99.77 16.8 98.14 16.8 98.12C16.8 98.1 21.32 98.08 26.84 98.08C34.82 98.08 36.88 98.06 36.88 97.98C36.88 97.92 36.93 97.3 37 96.6C37.07 95.9 37.2 94.73 37.29 94C37.38 93.27 37.58 91.92 37.73 91C37.88 90.08 38.15 88.65 38.32 87.84C38.49 87.03 38.8 85.71 38.99 84.92C39.19 84.13 39.52 82.9 39.72 82.2C39.92 81.5 40.27 80.36 40.5 79.68C40.72 79 41.2 77.65 41.56 76.68C41.92 75.71 42.45 74.36 42.74 73.68C43.03 73 43.56 71.81 43.92 71.04C44.28 70.27 44.98 68.85 45.47 67.88C45.97 66.91 46.66 65.63 47 65.04C47.34 64.45 47.93 63.46 48.3 62.84C48.68 62.22 49.33 61.2 49.74 60.56C50.16 59.92 50.95 58.75 51.51 57.96C52.06 57.17 52.9 56.02 53.36 55.4C53.83 54.78 54.78 53.58 55.48 52.72C56.18 51.86 56.98 50.89 57.27 50.56C57.56 50.23 58.45 49.24 59.25 48.36C60.05 47.48 61.69 45.79 62.89 44.59C64.1 43.4 65.62 41.94 66.28 41.35C66.94 40.76 68.11 39.73 68.88 39.07C69.65 38.42 70.91 37.37 71.68 36.76C72.45 36.14 73.85 35.06 74.8 34.35C75.75 33.65 77.08 32.68 77.76 32.2C78.44 31.72 79.83 30.78 80.84 30.12C81.85 29.45 83.35 28.51 84.16 28.03C84.97 27.54 86.25 26.8 87 26.38C87.75 25.97 88.77 25.41 89.28 25.14C89.79 24.87 90.76 24.39 91.44 24.08C92.12 23.76 93.51 23.14 94.52 22.7C95.53 22.26 96.9 21.69 97.56 21.42C98.22 21.16 99.32 20.74 100 20.48C100.68 20.23 101.83 19.82 102.56 19.58C103.29 19.33 104.47 18.95 105.2 18.73C105.93 18.51 106.99 18.2 107.56 18.05C108.13 17.89 109.19 17.62 109.92 17.45C110.65 17.28 111.69 17.04 112.24 16.93C112.79 16.82 113.78 16.63 114.44 16.52C115.1 16.41 116.22 16.24 116.92 16.16C117.62 16.07 118.92 15.95 119.8 15.88C120.68 15.81 122.3 15.76 123.4 15.76C124.5 15.76 125.92 15.8 126.56 15.84C127.2 15.89 128.28 16 128.96 16.09C129.64 16.17 130.69 16.33 131.28 16.44C131.87 16.56 132.9 16.79 133.56 16.96C134.22 17.13 135.37 17.48 136.12 17.74C136.87 18 138.02 18.46 138.68 18.75C139.34 19.04 140.26 19.49 140.72 19.74C141.18 20 141.96 20.46 142.44 20.76C142.92 21.06 143.57 21.49 143.88 21.71C144.19 21.93 144.82 22.42 145.28 22.79C145.74 23.17 146.52 23.87 147 24.36C147.49 24.84 148.16 25.56 148.48 25.96C148.81 26.36 149.31 27 149.59 27.4C149.87 27.8 150.12 28.14 150.13 28.16C150.15 28.18 150.75 28.08 151.46 27.94C152.18 27.8 153.35 27.62 154.08 27.55C154.81 27.48 156.37 27.4 157.55 27.37L159.7 27.32C157.73 25.76 156.67 24.95 156.08 24.51C155.49 24.07 154.46 23.33 153.8 22.86C153.14 22.4 152.11 21.7 151.52 21.32C150.93 20.93 149.94 20.3 149.32 19.92C148.7 19.54 147.57 18.87 146.8 18.43C146.03 17.98 144.81 17.3 144.08 16.92C143.35 16.53 142 15.84 141.08 15.39C140.16 14.95 138.68 14.27 137.8 13.88C136.92 13.5 135.66 12.97 135 12.7C134.34 12.44 133.19 12 132.44 11.72C131.69 11.45 130.31 10.97 129.36 10.65C128.41 10.34 126.96 9.89 126.12 9.65C125.28 9.41 123.95 9.05 123.16 8.85C122.37 8.65 121.07 8.35 120.28 8.17C119.49 8 118.35 7.76 117.76 7.65C117.17 7.54 116.14 7.36 115.48 7.25C114.82 7.14 113.61 6.96 112.8 6.84C111.99 6.73 110.62 6.57 109.76 6.48C108.9 6.39 107.43 6.26 106.48 6.19C105.33 6.11 103.42 6.06 100.72 6.04C98.5 6.03 96.1 6.05 95.4 6.08ZM120.36 20C119.66 20.04 118.68 20.11 118.2 20.15C117.72 20.2 116.8 20.32 116.16 20.41C115.52 20.5 114.32 20.7 113.48 20.85C112.64 21 111.62 21.2 111.2 21.29C110.78 21.38 109.94 21.58 109.32 21.73C108.7 21.89 107.41 22.24 106.44 22.52C105.47 22.8 104.1 23.22 103.4 23.44C102.7 23.67 101.2 24.2 100.08 24.62C98.96 25.04 97.25 25.72 96.28 26.12C95.31 26.53 93.91 27.14 93.16 27.49C92.41 27.83 90.86 28.58 89.72 29.16C88.58 29.74 86.97 30.59 86.16 31.05C85.35 31.52 83.92 32.36 83 32.92C82.08 33.48 80.73 34.34 80 34.83C79.27 35.31 78.1 36.12 77.4 36.63C76.7 37.13 75.76 37.82 75.32 38.15C74.88 38.48 73.98 39.18 73.32 39.71C72.66 40.24 71.6 41.12 70.96 41.67C70.32 42.22 69.31 43.12 68.72 43.67C68.13 44.22 67.09 45.21 66.41 45.87C65.73 46.54 64.65 47.64 64.01 48.32C63.36 49 62.35 50.12 61.75 50.8C61.16 51.48 60.24 52.56 59.72 53.2C59.19 53.84 58.39 54.88 57.93 55.52C57.47 56.16 56.75 57.2 56.32 57.84C55.89 58.48 55.21 59.52 54.8 60.16C54.39 60.8 53.75 61.82 53.38 62.44C53 63.06 52.26 64.33 51.72 65.28C51.19 66.23 50.48 67.49 50.16 68.08C49.84 68.67 49.08 70.15 48.49 71.36C47.89 72.57 47.08 74.26 46.7 75.12C46.32 75.98 45.77 77.26 45.48 77.96C45.19 78.66 44.66 80.01 44.31 80.96C43.95 81.91 43.45 83.31 43.19 84.08C42.94 84.85 42.53 86.18 42.28 87.04C42.04 87.9 41.69 89.18 41.52 89.88C41.35 90.58 41.08 91.79 40.92 92.56C40.76 93.33 40.53 94.64 40.4 95.48C40.28 96.32 40.15 97.24 40.13 97.54L40.08 98.08L46.08 98.08C46.72 97.18 47.29 96.43 47.75 95.84C48.22 95.25 48.96 94.33 49.4 93.8C49.83 93.27 50.7 92.26 51.33 91.56C51.95 90.86 53.21 89.49 54.13 88.52C55.05 87.56 56.34 86.27 57 85.65C57.66 85.04 58.78 84.03 59.48 83.4C60.18 82.78 61.25 81.87 61.84 81.39C62.43 80.91 63.39 80.15 63.96 79.71C64.53 79.27 65.58 78.49 66.28 77.99C66.98 77.48 68.1 76.71 68.76 76.27C69.42 75.83 70.54 75.11 71.24 74.68C71.94 74.25 73.08 73.58 73.76 73.2C74.44 72.82 75.77 72.11 76.72 71.64C77.67 71.17 79.03 70.51 79.76 70.18C80.49 69.86 81.82 69.29 82.72 68.92C83.62 68.56 85.12 68 86.04 67.68C86.96 67.37 88.46 66.9 89.36 66.64C90.26 66.38 91.76 65.99 92.68 65.77C93.6 65.55 95.17 65.23 96.16 65.05C97.15 64.87 98.81 64.62 99.84 64.49C100.87 64.36 102.51 64.19 103.48 64.12C104.45 64.05 105.25 64.01 105.26 64.02C105.28 64.03 104.74 64.54 104.06 65.16C103.39 65.78 102.41 66.66 101.88 67.12C101.35 67.58 100.45 68.32 99.88 68.76C99.31 69.2 98.68 69.72 98.47 69.92C98.26 70.12 98.07 70.38 98.05 70.5C98.02 70.63 98.04 70.78 98.1 70.85C98.18 70.96 98.3 70.97 98.72 70.94C99.08 70.91 99.5 70.78 100.12 70.53C100.6 70.33 101.16 70.14 101.36 70.11C101.58 70.08 101.79 70.09 101.9 70.15C102 70.2 102.08 70.31 102.08 70.4C102.08 70.49 102.02 70.68 101.95 70.82C101.88 70.96 101.58 71.33 101.29 71.63C101 71.93 100.27 72.58 99.68 73.07C99.09 73.56 98.2 74.3 97.72 74.73C97.24 75.15 96.69 75.66 96.51 75.85C96.33 76.04 96.03 76.4 95.84 76.64C95.65 76.88 95.41 77.26 95.31 77.48C95.18 77.76 95.12 78.03 95.12 78.36C95.12 78.72 95.15 78.89 95.28 79.06C95.38 79.2 95.51 79.28 95.64 79.28C95.75 79.28 96.1 79.17 96.42 79.04C96.74 78.91 97.4 78.55 97.88 78.25C98.36 77.94 99.25 77.34 99.84 76.91C100.44 76.47 101.39 75.76 101.96 75.32C102.53 74.88 104.37 73.44 106.04 72.12C107.71 70.8 110.12 68.94 111.4 68C112.68 67.06 114.69 65.57 115.88 64.68C117.07 63.79 118.62 62.6 119.32 62.04C120.02 61.48 120.87 60.77 121.2 60.48L121.8 59.94L123.68 59.64C124.37 58.21 124.79 57.42 125.06 56.96C125.32 56.5 125.77 55.76 126.07 55.32C126.36 54.88 126.88 54.14 127.23 53.68C127.58 53.22 128.06 52.61 128.3 52.32C128.54 52.03 129.18 51.34 129.71 50.78C130.24 50.21 130.69 49.77 130.7 49.8C130.71 49.82 130.46 50.19 130.14 50.62C129.82 51.05 129.25 51.89 128.88 52.48C128.51 53.07 127.86 54.24 127.43 55.08C127 55.92 126.43 57.14 126.17 57.8C125.91 58.46 125.67 59.09 125.64 59.2L125.59 59.4C126.56 59.29 127.76 59.25 128.88 59.25L130.92 59.25C135.63 60.46 137.7 60.95 138.56 61.12C139.42 61.29 140.75 61.52 141.52 61.63C142.29 61.74 143.28 61.87 143.72 61.92C144.16 61.97 145.29 62.03 146.24 62.05C147.33 62.09 148.43 62.07 149.24 62.01C149.94 61.95 150.83 61.85 151.2 61.79C151.57 61.73 152.28 61.58 152.76 61.47C153.24 61.35 154.09 61.08 154.64 60.86C155.19 60.64 155.87 60.33 156.16 60.17C156.45 60.02 156.88 59.76 157.12 59.6C157.36 59.43 157.84 59.08 158.18 58.81C158.52 58.54 159.06 58 159.38 57.62C159.7 57.23 160.1 56.69 160.28 56.42C160.57 55.97 160.69 55.87 161.6 55.33C162.15 55 162.98 54.54 163.44 54.29C163.9 54.05 164.69 53.67 165.2 53.45C165.71 53.24 166.44 52.96 166.82 52.85C167.21 52.73 167.52 52.61 167.52 52.58C167.52 52.55 167.67 49.82 167.85 46.52C168.03 43.22 168.18 40.11 168.17 39.6C168.17 39.09 168.11 38.37 168.05 38C167.99 37.63 167.81 36.94 167.65 36.48C167.49 36.02 167.21 35.39 167.04 35.08C166.86 34.77 166.5 34.27 166.23 33.96C165.97 33.65 165.47 33.19 165.13 32.94C164.8 32.69 164.23 32.34 163.88 32.17C163.53 32 163.02 31.78 162.76 31.69C162.5 31.6 161.92 31.46 161.48 31.37C161.04 31.28 160.28 31.17 159.8 31.12C159.31 31.08 156.74 31.04 153.96 31.04L149 31.03C147.57 29.53 146.8 28.78 146.36 28.4C145.92 28.02 145.18 27.42 144.72 27.07C144.26 26.71 143.56 26.21 143.16 25.95C142.76 25.68 142.01 25.21 141.48 24.9C140.95 24.59 139.89 24.02 139.12 23.65C138.35 23.28 137.25 22.78 136.68 22.56C136.11 22.33 135.26 22.02 134.8 21.87C134.34 21.72 133.53 21.47 133 21.33C132.47 21.18 131.7 20.98 131.28 20.89C130.86 20.8 130.23 20.67 129.88 20.6C129.53 20.54 128.86 20.43 128.4 20.36C127.94 20.29 127 20.18 126.32 20.12C125.64 20.06 124.31 19.99 123.36 19.97C122.41 19.95 121.06 19.96 120.36 20Z" />
		<path class="shp0" d="M122.96 20.83C122.98 20.85 123.65 21.09 124.44 21.36C125.23 21.63 126.46 22.08 127.16 22.36C127.86 22.63 129 23.11 129.68 23.42C130.36 23.73 131.48 24.26 132.16 24.6C132.84 24.94 133.78 25.44 134.24 25.7C134.7 25.96 135.48 26.43 135.96 26.75C136.44 27.06 137.18 27.56 137.6 27.87C138.02 28.18 138.63 28.64 138.96 28.91C139.29 29.17 139.9 29.72 140.31 30.12C140.72 30.51 141.32 31.16 141.65 31.54C141.97 31.93 142.24 32.28 142.24 32.32C142.24 32.36 142.19 32.39 142.14 32.37C142.09 32.35 141.1 32.31 139.96 32.28L137.88 32.22C137.26 31.48 136.77 30.97 136.4 30.61C136.02 30.25 135.31 29.64 134.82 29.24C134.32 28.84 133.49 28.23 132.98 27.87C132.46 27.5 131.7 27 131.28 26.74C130.86 26.47 130.05 26 129.48 25.68C128.91 25.36 127.81 24.8 127.04 24.44C126.27 24.08 125.1 23.57 124.44 23.3C123.78 23.04 122.61 22.61 121.84 22.36C121.07 22.11 119.69 21.71 118.78 21.47C117.87 21.23 117.12 21.07 117.12 21.1C117.12 21.13 117.25 21.23 117.42 21.31C117.58 21.39 118.22 21.75 118.84 22.1C119.46 22.45 120.54 23.1 121.24 23.54C121.94 23.98 123.02 24.68 123.64 25.1C124.26 25.52 125.37 26.32 126.12 26.88C126.87 27.44 128 28.35 128.64 28.9C129.28 29.44 130.35 30.45 131.03 31.13L132.26 32.36L128.2 32.4C127.72 31.81 126.96 31.03 126.21 30.28C125.46 29.53 124.44 28.61 123.96 28.23C123.48 27.85 122.7 27.28 122.24 26.96C121.78 26.63 120.93 26.08 120.36 25.74C119.79 25.39 118.71 24.81 117.96 24.44C117.21 24.07 116.01 23.54 115.28 23.26C114.55 22.97 113.54 22.61 113.02 22.45C112.5 22.29 112.08 22.19 112.08 22.22C112.09 22.25 112.4 22.46 112.78 22.68C113.16 22.9 113.98 23.44 114.59 23.87C115.21 24.31 116.19 25.05 116.76 25.52C117.33 25.99 118.29 26.82 118.88 27.37C119.47 27.91 120.51 28.91 121.19 29.6C121.86 30.28 122.77 31.23 123.21 31.7L124 32.56C123.47 32.62 122.92 32.65 122.44 32.68L121.56 32.72C120.94 31.76 120.45 31.12 120.07 30.68C119.69 30.24 119.03 29.54 118.59 29.12C118.16 28.7 117.44 28.09 117 27.75C116.56 27.42 115.93 26.97 115.6 26.74C115.27 26.52 114.55 26.09 114 25.78C113.45 25.47 112.69 25.07 112.32 24.88C111.95 24.69 111.21 24.36 110.68 24.14C110.15 23.92 109.21 23.57 108.58 23.35C107.95 23.14 107.44 22.99 107.44 23.02C107.44 23.05 107.96 23.41 108.58 23.82C109.21 24.23 110.16 24.92 110.69 25.34C111.23 25.77 112.13 26.55 112.69 27.08C113.25 27.61 114.09 28.47 114.55 29C115.02 29.53 115.66 30.3 115.97 30.72C116.29 31.14 116.75 31.8 116.99 32.2C117.24 32.6 117.43 32.93 117.42 32.94C117.41 32.95 116.93 33 116.36 33.07C115.79 33.13 115.32 33.18 115.32 33.17C115.32 33.17 115.17 32.98 115 32.76C114.82 32.54 114.4 32.04 114.06 31.64C113.71 31.24 113.03 30.55 112.54 30.09C112.04 29.63 111.28 28.97 110.84 28.61C110.4 28.26 109.52 27.63 108.88 27.21C108.24 26.79 107.23 26.21 106.64 25.91C106.05 25.61 105.13 25.23 104.6 25.05C104.07 24.87 103.42 24.67 103.14 24.6C102.87 24.54 102.64 24.51 102.64 24.54C102.64 24.57 102.95 24.82 103.34 25.1C103.72 25.37 104.45 25.92 104.96 26.32C105.47 26.72 106.38 27.51 106.99 28.07C107.6 28.62 108.5 29.53 108.99 30.08C109.47 30.63 110.11 31.4 110.4 31.8C110.7 32.2 111.09 32.76 111.27 33.06C111.59 33.58 111.59 33.6 111.42 33.6C111.32 33.61 110.83 33.65 110.32 33.71C109.66 33.78 109.38 33.79 109.35 33.73C109.32 33.68 109.12 33.39 108.9 33.08C108.68 32.77 108.17 32.16 107.75 31.73C107.34 31.3 106.68 30.68 106.28 30.36C105.88 30.04 105.2 29.53 104.76 29.24C104.32 28.95 103.46 28.46 102.84 28.16C102.22 27.86 101.4 27.5 101 27.35C100.6 27.21 99.83 26.98 99.28 26.84C98.73 26.7 98.26 26.6 98.24 26.62C98.22 26.64 98.24 26.67 98.28 26.69C98.32 26.71 98.72 26.93 99.16 27.19C99.6 27.45 100.23 27.89 100.56 28.18C100.89 28.46 101.48 29.04 101.88 29.47C102.28 29.9 102.86 30.6 103.18 31.02C103.5 31.45 104.02 32.25 104.35 32.8C104.67 33.35 105.03 33.96 105.14 34.16L105.35 34.52C103.8 34.97 103.55 35.01 103.52 34.94C103.51 34.88 103.31 34.57 103.09 34.24C102.87 33.91 102.33 33.28 101.88 32.84C101.44 32.4 100.74 31.8 100.32 31.5C99.9 31.21 99.18 30.77 98.72 30.53C98.26 30.29 97.59 29.98 97.24 29.85C96.89 29.72 96.22 29.52 95.76 29.41C95.3 29.3 94.55 29.15 94.1 29.08C93.65 29.01 93.11 28.96 92.9 28.96C92.69 28.96 92.54 28.97 92.56 29C92.58 29.02 92.91 29.15 93.28 29.28C93.65 29.41 94.25 29.66 94.6 29.83C94.95 30.01 95.58 30.38 96 30.65C96.42 30.93 97.11 31.5 97.55 31.92C97.98 32.34 98.57 32.99 98.85 33.36C99.13 33.73 99.57 34.47 99.84 35C100.1 35.53 100.32 36 100.32 36.04C100.32 36.08 100.08 36.21 99.78 36.33C99.24 36.54 99.24 36.54 99.04 36.38C98.93 36.3 98.41 35.94 97.88 35.58C97.35 35.23 96.42 34.69 95.8 34.39C95.18 34.09 94.28 33.7 93.8 33.53C93.32 33.36 92.56 33.12 92.12 33.01C91.68 32.9 91 32.74 90.6 32.67C90.2 32.6 89.23 32.52 88.44 32.5C87.65 32.48 86.79 32.48 86.54 32.51C86.29 32.54 86.08 32.6 86.08 32.64C86.08 32.68 86.25 32.74 86.46 32.77C86.67 32.79 87.29 32.92 87.84 33.06C88.39 33.19 89.2 33.42 89.64 33.58C90.08 33.73 90.85 34.04 91.36 34.27C91.87 34.5 92.66 34.94 93.12 35.24C93.58 35.55 94.23 36.05 94.55 36.36C94.88 36.67 95.28 37.13 95.45 37.38C95.62 37.63 95.76 37.87 95.76 37.9C95.76 37.93 95.23 38.19 94.58 38.47L93.4 38.97C91.48 37.98 90.51 37.55 90 37.38C89.49 37.2 88.7 36.97 88.24 36.85C87.78 36.74 87.04 36.59 86.6 36.52C86.16 36.45 85.19 36.37 84.44 36.34C83.59 36.31 82.74 36.33 82.16 36.39C81.65 36.45 80.93 36.55 80.56 36.61C80.19 36.68 79.59 36.8 79.24 36.89C78.89 36.97 78.59 37.05 78.59 37.06C78.58 37.07 79.14 37.11 79.83 37.15C80.52 37.18 81.51 37.26 82.04 37.32C82.57 37.38 83.38 37.51 83.84 37.6C84.3 37.69 85.09 37.87 85.6 38C86.11 38.14 86.92 38.41 87.4 38.6C87.88 38.8 88.57 39.13 88.92 39.33C89.27 39.54 89.75 39.85 89.98 40.03C90.21 40.21 90.4 40.38 90.4 40.4C90.4 40.42 89.83 40.74 89.12 41.1L87.84 41.76C86.57 41.34 85.91 41.14 85.56 41.05C85.21 40.96 84.54 40.83 84.08 40.77C83.62 40.7 82.77 40.61 82.2 40.56C81.6 40.5 80.66 40.49 79.96 40.52C79.3 40.55 78.27 40.62 77.68 40.69C77.09 40.76 76.13 40.9 75.56 41C74.99 41.11 74.23 41.26 73.89 41.34C73.54 41.42 73.2 41.52 73.14 41.56C73.07 41.61 73.4 41.62 74.14 41.57C74.87 41.52 75.7 41.53 76.6 41.59C77.35 41.64 78.37 41.75 78.88 41.84C79.39 41.93 80.14 42.1 80.56 42.2C80.98 42.31 81.64 42.5 82.04 42.63C82.44 42.76 83.15 43.03 83.62 43.23C84.09 43.43 84.48 43.62 84.48 43.64C84.48 43.66 84.31 43.78 84.1 43.91C83.89 44.04 83.15 44.49 82.46 44.91C81.77 45.33 81.17 45.67 81.14 45.65C81.11 45.63 80.7 45.54 80.24 45.44C79.78 45.35 78.97 45.22 78.44 45.15C77.91 45.08 76.76 45.01 75.88 44.98C74.89 44.95 73.84 44.97 73.12 45.04C72.48 45.09 71.62 45.19 71.2 45.25C70.78 45.31 70.03 45.46 69.52 45.57C69.01 45.68 68.29 45.87 67.92 45.97C67.55 46.08 67.2 46.2 67.16 46.25C67.11 46.29 67.67 46.3 68.64 46.27C69.58 46.24 70.74 46.25 71.56 46.31C72.31 46.36 73.3 46.44 73.76 46.49C74.22 46.53 75.03 46.64 75.56 46.73C76.09 46.81 76.93 47 77.44 47.13C77.95 47.27 78.39 47.4 78.42 47.43C78.45 47.46 77.77 47.98 76.91 48.6L75.34 49.72C70.68 49.73 69.79 49.76 69 49.87C68.43 49.94 67.53 50.09 67 50.2C66.47 50.31 65.64 50.51 65.16 50.65C64.68 50.79 63.9 51.06 63.44 51.26C62.98 51.45 62.43 51.71 62.22 51.83C62.01 51.94 61.84 52.06 61.84 52.08C61.84 52.1 62.12 52.08 62.46 52.03C62.8 51.98 63.69 51.87 64.44 51.8C65.45 51.69 66.18 51.67 67.28 51.7C68.09 51.73 69.08 51.8 69.48 51.88C69.88 51.95 70.47 52.08 70.8 52.16C71.13 52.25 71.47 52.37 71.55 52.42C71.68 52.51 71.56 52.63 70.39 53.6C69.67 54.19 69.03 54.67 68.96 54.66C68.89 54.65 68.05 54.62 67.08 54.59C65.92 54.56 65 54.57 64.4 54.63C63.89 54.69 63.17 54.78 62.8 54.85C62.43 54.91 61.71 55.09 61.2 55.25C60.69 55.4 59.88 55.73 59.38 55.97C58.88 56.2 58.48 56.44 58.48 56.48C58.48 56.52 58.49 56.56 58.5 56.56C58.51 56.56 58.79 56.5 59.12 56.44C59.47 56.37 60.39 56.29 61.32 56.27C62.33 56.24 63.23 56.25 63.76 56.31C64.22 56.36 65.04 56.48 65.58 56.58C66.12 56.68 66.56 56.78 66.56 56.8C66.56 56.82 66.27 57.11 65.9 57.44C65.54 57.77 64.88 58.38 64.44 58.81L63.64 59.58C61.61 59.66 60.76 59.75 60.04 59.88C59.42 60 58.63 60.17 58.28 60.27C57.93 60.38 57.37 60.55 57.04 60.67C56.71 60.79 56.16 61.02 55.82 61.18C55.48 61.35 55.21 61.49 55.22 61.5C55.23 61.51 55.55 61.47 55.92 61.41C56.29 61.34 56.96 61.27 57.4 61.24C57.86 61.21 58.59 61.22 59.12 61.27C59.63 61.32 60.37 61.43 60.77 61.5L61.5 61.64L58.6 64.63C57.98 64.56 57.4 64.58 56.92 64.64C56.44 64.69 55.72 64.82 55.32 64.92C54.92 65.02 54.31 65.23 53.96 65.38C53.61 65.53 53.16 65.74 52.96 65.86L52.6 66.07C54.57 66 55.47 66.02 56.04 66.07C56.57 66.12 57.03 66.19 57.06 66.22C57.09 66.25 56.93 66.5 56.7 66.76C56.46 67.02 56 67.57 55.66 67.98L55.04 68.72C53.95 68.71 53.37 68.77 53.04 68.84C52.71 68.91 52.21 69.04 51.92 69.13C51.63 69.22 51.2 69.4 50.96 69.52L50.52 69.74C51.51 69.83 52.12 69.94 52.52 70.04C52.92 70.14 53.34 70.27 53.45 70.33L53.67 70.44L51.66 73.08C50.34 73.41 49.64 73.62 49.24 73.76C48.84 73.9 48.48 74.05 48.44 74.08C48.39 74.13 48.44 74.17 48.56 74.19C48.67 74.21 48.99 74.25 49.28 74.28C49.57 74.31 49.97 74.4 50.18 74.49L50.56 74.64C49.34 76.47 48.75 77.38 48.46 77.84C48.18 78.3 47.65 79.18 47.3 79.8C46.95 80.42 46.43 81.37 46.14 81.92C45.85 82.47 45.41 83.37 45.16 83.92C44.91 84.47 44.56 85.28 44.38 85.72C44.21 86.16 43.94 86.88 43.79 87.32C43.64 87.76 43.56 88.07 43.62 88C43.68 87.93 44 87.43 44.32 86.88C44.65 86.33 45.52 84.98 46.25 83.88C46.98 82.78 48.28 80.94 49.14 79.8C49.99 78.66 51.26 77.02 51.96 76.16C52.66 75.3 53.64 74.11 54.15 73.52C54.66 72.93 55.76 71.68 56.6 70.76C57.43 69.84 59.12 68.07 60.36 66.84C61.59 65.6 63.27 63.98 64.08 63.24C64.9 62.49 66.03 61.47 66.6 60.97C67.17 60.47 68.31 59.51 69.12 58.85C69.93 58.18 71.23 57.15 72 56.55C72.77 55.95 74.01 55.01 74.76 54.46C75.51 53.91 76.84 52.98 77.72 52.38C78.6 51.79 79.99 50.88 80.8 50.36C81.61 49.84 82.96 49 83.8 48.5C84.64 47.99 86.2 47.1 87.28 46.5C88.36 45.91 89.96 45.06 90.84 44.62C91.72 44.18 93.29 43.43 94.32 42.96C95.35 42.49 97.12 41.72 98.24 41.26C99.36 40.79 101.07 40.12 102.04 39.76C103.01 39.4 104.75 38.78 105.92 38.39C107.09 38 108.58 37.55 109.24 37.39C109.9 37.24 110.87 37.02 111.4 36.91C111.93 36.8 112.99 36.61 113.76 36.48C114.53 36.35 115.63 36.17 116.2 36.09C116.77 36 118.23 35.8 119.44 35.64C120.65 35.49 122.38 35.29 123.28 35.2C124.18 35.11 125.82 34.97 126.92 34.89C128.02 34.8 129.82 34.67 130.92 34.61C132.02 34.54 133.95 34.44 135.2 34.39C136.48 34.33 140.04 34.29 143.32 34.29C146.53 34.29 149.49 34.32 149.9 34.35C150.38 34.38 150.64 34.37 150.64 34.32C150.64 34.28 150.5 34.2 150.34 34.16C150.18 34.11 149.3 33.93 148.4 33.75C147.5 33.57 146.73 33.38 146.7 33.33C146.66 33.28 146.45 32.92 146.23 32.52C146 32.12 145.69 31.64 145.53 31.44C145.37 31.24 144.97 30.76 144.63 30.36C144.29 29.96 143.74 29.39 143.39 29.07C143.04 28.76 142.49 28.29 142.16 28.03C141.83 27.76 141.22 27.31 140.8 27.02C140.38 26.73 139.81 26.36 139.52 26.18C139.23 26.01 138.55 25.62 138 25.32C137.45 25.02 136.51 24.56 135.92 24.3C135.33 24.04 134.37 23.65 133.8 23.44C133.23 23.23 132.24 22.89 131.6 22.69C130.96 22.5 129.88 22.19 129.2 22.01C128.52 21.83 127.51 21.59 126.96 21.48C126.41 21.37 125.34 21.17 124.58 21.04C123.82 20.91 123.14 20.8 123.06 20.8C122.98 20.8 122.94 20.81 122.96 20.83Z" />
		<path class="shp1" d="M172.86 40.69C172.84 40.73 172.78 41.17 172.73 41.65C172.68 42.13 172.5 45.09 172.31 48.24L171.98 53.96C172.25 54.15 172.51 54.34 172.74 54.52C172.96 54.7 173.25 55.02 173.37 55.24C173.55 55.55 173.6 55.74 173.61 56.12C173.61 56.42 173.55 56.77 173.45 57.04C173.36 57.28 173.14 57.71 172.95 58C172.76 58.29 172.07 59.06 171.41 59.72C170.63 60.49 169.75 61.26 168.96 61.86C168.28 62.38 167.07 63.28 166.28 63.87C165.31 64.59 164.44 65.33 163.61 66.13C162.93 66.78 162.1 67.64 161.76 68.04C161.42 68.44 160.76 69.24 160.29 69.82L159.44 70.88C160.65 71.64 161.4 72.13 161.88 72.47C162.36 72.8 163.19 73.4 163.72 73.79C164.25 74.19 165.09 74.86 165.6 75.29C166.11 75.71 166.91 76.47 167.39 76.97C167.87 77.47 168.47 78.15 168.72 78.48C168.97 78.81 169.3 79.3 169.46 79.56C169.62 79.82 169.83 80.24 169.92 80.48C170.02 80.72 170.15 81.12 170.21 81.36C170.27 81.6 170.32 82.17 170.32 82.62C170.32 83.07 170.27 83.7 170.2 84.02C170.13 84.34 169.95 84.87 169.79 85.2C169.64 85.53 169.37 85.98 169.2 86.2C169.03 86.42 168.66 86.79 168.39 87.01C168.11 87.24 167.63 87.55 167.32 87.71C167.01 87.88 166.48 88.06 166.12 88.14C165.52 88.26 165.42 88.26 164.52 88.13C163.81 88.02 163.25 87.99 162.4 88.01C161.25 88.05 161.23 88.05 160.2 88.43C159.63 88.64 158.71 88.94 158.16 89.09C157.61 89.24 156.46 89.51 155.6 89.68C154.74 89.85 153.52 90.07 152.88 90.16C152.24 90.25 151.18 90.38 150.52 90.44C149.86 90.5 148.46 90.59 147.4 90.65C146.2 90.71 144.4 90.72 142.6 90.69C141.02 90.67 139.09 90.61 138.32 90.56C137.55 90.51 136.09 90.4 135.08 90.31C134.07 90.23 132.5 90.07 131.6 89.96C130.7 89.85 129.29 89.67 128.48 89.56C127.67 89.45 126.03 89.19 124.84 89C123.65 88.8 121.52 88.4 120.1 88.12C118.68 87.83 117.5 87.6 117.48 87.6C117.46 87.6 117.35 87.79 117.25 88.02C117.15 88.25 116.85 88.78 116.6 89.2C116.35 89.62 115.74 90.55 115.25 91.28C114.75 92.01 113.76 93.41 113.03 94.4C112.31 95.39 111.3 96.76 110.8 97.44C110.3 98.12 109.44 99.23 108.9 99.9L107.92 101.12C138.24 101.08 142.46 101.1 143.04 101.18C143.46 101.23 144.12 101.37 144.52 101.48C144.92 101.6 145.49 101.8 145.8 101.94C146.11 102.07 146.54 102.29 146.76 102.42L147.16 102.66C148.4 102.04 149.14 101.73 149.6 101.57C150.06 101.42 150.8 101.22 151.24 101.13C151.68 101.04 152.53 100.93 153.12 100.88C153.88 100.81 155.94 100.8 160 100.82C164.13 100.84 165.97 100.88 166.4 100.95C166.73 101.01 167.25 101.12 167.56 101.2C167.87 101.28 168.41 101.45 168.76 101.59C169.11 101.72 169.71 102.03 170.08 102.27L170.76 102.7C171.88 102.14 172.47 101.87 172.8 101.75C173.13 101.63 173.62 101.48 173.88 101.41C174.14 101.34 174.72 101.23 175.16 101.16C175.84 101.06 177.3 101.04 185.02 101.04L194.08 101.04C194.08 99.34 194.04 97.89 194 96.72C193.95 95.55 193.86 93.86 193.8 92.96C193.73 92.06 193.59 90.51 193.48 89.52C193.36 88.53 193.17 87 193.04 86.12C192.91 85.24 192.67 83.82 192.52 82.96C192.36 82.1 192.07 80.66 191.87 79.76C191.67 78.86 191.35 77.49 191.15 76.72C190.95 75.95 190.56 74.53 190.28 73.56C190 72.59 189.46 70.9 189.09 69.8C188.72 68.7 188.16 67.13 187.84 66.32C187.53 65.51 186.89 63.94 186.42 62.84C185.95 61.74 184.95 59.6 184.19 58.08C183.43 56.56 182.35 54.51 181.78 53.52C181.21 52.53 180.38 51.13 179.92 50.4C179.47 49.67 178.64 48.4 178.07 47.56C177.51 46.72 176.68 45.53 176.23 44.91C175.77 44.28 174.96 43.2 174.43 42.51C173.89 41.81 173.33 41.1 173.18 40.92C173.03 40.74 172.89 40.64 172.86 40.69Z" />
		<path class="shp2" d="M139.28 49.18C139.28 49.21 139.69 49.4 140.18 49.59C140.68 49.79 141.8 50.26 142.68 50.64C143.56 51.03 144.91 51.66 145.68 52.05L147.08 52.75C145.78 52.85 145.22 52.92 145 52.97C144.78 53.02 144.42 53.13 144.2 53.22C143.98 53.3 143.62 53.51 143.4 53.67C143.16 53.86 142.91 54.14 142.76 54.41C142.55 54.79 142.52 54.92 142.52 55.48C142.52 56.06 142.55 56.19 142.81 56.72C143.02 57.14 143.31 57.54 143.77 58.03C144.16 58.45 144.7 58.91 145.08 59.16C145.43 59.39 145.99 59.72 146.32 59.88C146.65 60.05 147.12 60.25 147.36 60.34C147.6 60.42 148.07 60.56 148.4 60.65C148.8 60.76 149.38 60.83 150.16 60.86C151.18 60.9 151.4 60.88 152 60.73C152.37 60.63 152.84 60.48 153.04 60.38C153.24 60.28 153.55 60.05 153.74 59.86C153.93 59.67 154.14 59.4 154.22 59.26C154.31 59.08 154.36 58.77 154.38 58.28C154.39 57.88 154.4 57.55 154.4 57.54C154.4 57.53 154.57 57.66 154.78 57.83C154.99 58 155.32 58.22 155.52 58.33C155.82 58.49 156 58.52 156.6 58.52C157.18 58.52 157.44 58.48 157.94 58.3C158.28 58.18 158.56 58.05 158.56 58.02C158.56 57.99 158.3 57.94 157.98 57.91C157.49 57.86 157.25 57.78 156.44 57.37C155.91 57.11 155.32 56.75 155.12 56.58C154.92 56.4 154.28 55.91 153.7 55.47C153.12 55.04 152.17 54.38 151.58 54C151 53.63 150.16 53.13 149.72 52.88C149.28 52.63 148.56 52.24 148.12 52.02C147.68 51.8 146.87 51.42 146.32 51.18C145.77 50.94 144.98 50.61 144.56 50.46C144.14 50.3 143.3 50.03 142.68 49.85C142.06 49.67 141.2 49.46 140.76 49.37C140.32 49.28 139.81 49.19 139.62 49.16C139.43 49.14 139.28 49.15 139.28 49.18Z" />
		<path fill-rule="evenodd" class="shp3" d="M130.69 49.8C130.71 49.82 130.46 50.19 130.14 50.62C129.82 51.05 129.25 51.89 128.88 52.48C128.51 53.07 127.86 54.24 127.43 55.08C127 55.92 126.46 57.09 126.21 57.68C125.97 58.27 125.64 59.16 125.48 59.64C125.33 60.12 125.07 61.02 124.92 61.64C124.77 62.26 124.57 63.28 124.47 63.92C124.32 64.89 124.29 65.42 124.28 67.16C124.28 68.52 124.32 69.49 124.39 69.96C124.45 70.36 124.59 71.11 124.7 71.64C124.8 72.17 125.04 73.03 125.21 73.56C125.39 74.09 125.65 74.72 125.8 74.96C125.94 75.2 126.31 75.72 126.62 76.12C126.92 76.52 127.46 77.13 127.81 77.48C128.16 77.83 128.71 78.35 129.04 78.63C129.37 78.92 130.02 79.4 130.48 79.7C130.94 80.01 131.68 80.43 132.12 80.64C132.56 80.85 133.28 81.16 133.72 81.32C134.16 81.48 134.93 81.72 135.44 81.85C135.95 81.98 136.76 82.14 137.24 82.22C137.89 82.32 138.63 82.36 140.04 82.36C141.48 82.36 142.22 82.32 143 82.21C143.57 82.13 144.33 81.98 144.68 81.87C145.03 81.77 145.75 81.59 146.28 81.49C146.81 81.38 147.73 81.23 148.32 81.17C148.91 81.1 150.01 81.04 150.76 81.04C151.51 81.04 152.52 81.09 153 81.15C153.48 81.21 154.26 81.36 154.72 81.48C155.18 81.59 155.92 81.83 156.36 82C156.8 82.18 157.45 82.49 157.8 82.69C158.15 82.9 158.73 83.29 159.08 83.56C159.43 83.83 159.97 84.32 160.28 84.65C160.59 84.97 161.07 85.56 161.34 85.94C161.62 86.33 161.82 86.66 161.8 86.68C161.78 86.7 161.59 86.55 161.38 86.34C161.17 86.13 160.76 85.78 160.48 85.57C160.19 85.36 159.53 84.97 159 84.71C158.47 84.46 157.66 84.14 157.2 84.01C156.74 83.88 155.98 83.71 155.52 83.65C155 83.57 154.12 83.52 153.22 83.52C152.38 83.52 151.32 83.57 150.74 83.64C150.18 83.71 149.31 83.86 148.8 83.97C148.29 84.08 147.23 84.34 146.44 84.56C145.65 84.78 144.68 85.01 144.28 85.07C143.88 85.14 143.04 85.25 142.4 85.32C141.65 85.4 140.53 85.44 139.26 85.44C138.17 85.44 136.95 85.41 136.54 85.36C136.13 85.32 135.37 85.21 134.84 85.12C134.31 85.03 133.54 84.87 133.12 84.76C132.7 84.66 132.04 84.45 131.64 84.32C131.24 84.18 130.61 83.92 130.24 83.76C129.87 83.59 129.28 83.3 128.94 83.11C128.6 82.92 127.99 82.53 127.58 82.24C127.17 81.95 126.4 81.28 125.84 80.72C125.29 80.17 124.6 79.38 124.3 78.96C124.01 78.54 123.52 77.71 123.21 77.12C122.91 76.53 122.57 75.75 122.45 75.4C122.33 75.05 122.15 74.33 122.04 73.8C121.93 73.27 121.78 72.3 121.71 71.64C121.61 70.72 121.59 70.04 121.63 68.72C121.65 67.77 121.73 66.65 121.8 66.22C121.86 65.79 122.01 65 122.13 64.46C122.24 63.92 122.46 63.07 122.61 62.56C122.76 62.05 123.09 61.14 123.33 60.52C123.58 59.9 123.97 59.02 124.2 58.56C124.43 58.1 124.83 57.36 125.08 56.92C125.33 56.48 125.77 55.76 126.07 55.32C126.36 54.88 126.88 54.14 127.23 53.68C127.58 53.22 128.06 52.61 128.3 52.32C128.54 52.03 129.17 51.34 129.7 50.78C130.23 50.21 130.68 49.77 130.69 49.8ZM170.98 53.36C171.01 53.36 171.13 53.45 171.24 53.56C171.35 53.67 171.44 53.84 171.44 53.94C171.45 54.09 171.27 54.23 170.5 54.69C169.98 55.01 169.15 55.56 168.64 55.92C168.13 56.28 167.36 56.87 166.92 57.22C166.48 57.58 165.83 58.12 165.48 58.43C165.13 58.74 164.34 59.48 163.73 60.08C163.13 60.67 162.24 61.59 161.77 62.12C161.3 62.65 160.57 63.49 160.15 64C159.73 64.51 159.08 65.33 158.7 65.84C158.33 66.35 157.68 67.26 157.26 67.88C156.84 68.5 156.23 69.43 155.91 69.96C155.58 70.49 155.29 70.96 155.26 71C155.23 71.04 155.56 71.32 155.98 71.61C156.41 71.91 157.25 72.54 157.84 73.01C158.43 73.49 159.47 74.42 160.15 75.08C160.83 75.74 161.82 76.77 162.35 77.36C162.89 77.95 163.68 78.89 164.13 79.44C164.57 79.99 165.24 80.85 165.62 81.36C165.99 81.87 166.76 82.96 167.31 83.8C167.87 84.64 168.32 85.4 168.32 85.5C168.32 85.6 168.28 85.83 168.24 86.02C168.2 86.21 168.09 86.42 168 86.5C167.85 86.63 167.83 86.63 167.58 86.5C167.4 86.39 166.96 85.82 166.08 84.51C165.4 83.5 164.39 82.03 163.83 81.24C163.28 80.45 162.36 79.21 161.8 78.48C161.24 77.75 160.39 76.71 159.93 76.16C159.46 75.61 158.68 74.75 158.2 74.25C157.72 73.75 156.96 73.02 156.52 72.65C156.08 72.27 155.51 71.82 155.26 71.64C155.01 71.46 154.8 71.28 154.8 71.22C154.8 71.17 154.97 70.72 155.17 70.22C155.37 69.73 155.79 68.83 156.1 68.24C156.41 67.65 156.97 66.66 157.35 66.04C157.73 65.42 158.46 64.36 158.97 63.68C159.48 63 160.3 61.99 160.78 61.44C161.26 60.89 162.19 59.92 162.85 59.28C163.5 58.64 164.51 57.74 165.08 57.27C165.65 56.8 166.61 56.07 167.2 55.64C167.79 55.22 168.75 54.57 169.32 54.22C169.89 53.86 170.49 53.53 170.64 53.47C170.79 53.41 170.95 53.37 170.98 53.36ZM145.4 54C145.65 54 145.77 54.04 145.95 54.22C146.07 54.34 146.19 54.53 146.21 54.64C146.24 54.75 146.24 54.96 146.21 55.1C146.18 55.25 146.06 55.45 145.92 55.56C145.76 55.69 145.58 55.76 145.4 55.76C145.19 55.76 145.05 55.69 144.84 55.48C144.63 55.27 144.56 55.13 144.56 54.92C144.56 54.77 144.62 54.53 144.69 54.4C144.76 54.27 144.88 54.13 144.95 54.09C145.02 54.04 145.22 54 145.4 54Z" />
		<path class="shp1" d="M110.13 86.75L107.25 87C106.43 88.98 105.92 90.12 105.58 90.8C105.25 91.48 104.6 92.65 104.16 93.4C103.71 94.15 103.03 95.21 102.66 95.76C102.28 96.31 101.66 97.16 101.29 97.64C100.91 98.12 100.26 98.93 99.84 99.44C99.43 99.95 98.73 100.75 98.3 101.22C97.87 101.69 97.52 102.09 97.52 102.1C97.52 102.11 97.7 102.25 97.94 102.41C98.17 102.56 98.59 102.91 98.88 103.18C99.17 103.45 99.6 103.92 99.84 104.23C100.15 104.63 100.29 104.76 100.3 104.66C100.32 104.58 100.24 103.8 100.12 102.92C100.01 102.04 99.92 101.28 99.92 101.22C99.92 101.14 100.44 101.12 102.24 101.12L104.56 101.12C105.46 100.04 106.17 99.13 106.71 98.4C107.26 97.67 108.18 96.36 108.76 95.48C109.35 94.6 110.32 93.05 110.93 92.04C111.53 91.03 112.45 89.36 112.97 88.34L113.92 86.48C113.21 86.5 111.71 86.61 110.13 86.75ZM101.88 87.28C100.47 87.49 99.27 87.67 99.21 87.69C99.16 87.71 98.9 88.28 98.65 88.96C98.39 89.64 97.94 90.79 97.64 91.52C97.34 92.25 96.76 93.56 96.35 94.44C95.93 95.32 95.3 96.6 94.93 97.28C94.56 97.96 93.96 99.02 93.59 99.64C93.22 100.26 92.91 100.79 92.9 100.82C92.89 100.85 93.07 100.88 93.3 100.88C93.53 100.88 93.95 100.92 94.24 100.96C94.53 101 94.89 101.05 95.04 101.08C95.31 101.13 95.34 101.11 96.21 100.23C96.7 99.73 97.38 99 97.73 98.6C98.07 98.2 98.68 97.47 99.08 96.96C99.49 96.45 100.16 95.55 100.57 94.96C100.99 94.37 101.65 93.34 102.05 92.68C102.45 92.02 103.02 91.01 103.32 90.44C103.62 89.87 103.98 89.13 104.12 88.8C104.27 88.47 104.51 87.9 104.67 87.54L104.96 86.88C104.56 86.9 103.29 87.07 101.88 87.28ZM94.35 89.07C94.14 89.1 93.24 89.28 92.36 89.45C91.48 89.63 90.06 89.95 89.2 90.16C88.34 90.38 86.83 90.83 85.84 91.17C84.85 91.5 83.57 91.98 83 92.22C82.43 92.46 81.37 92.96 80.64 93.32C79.91 93.69 78.82 94.29 78.2 94.66C77.58 95.03 76.74 95.57 76.32 95.86C75.9 96.16 75.23 96.66 74.83 96.98C74.43 97.3 73.62 97.99 73.03 98.53C72.44 99.06 71.7 99.79 71.38 100.15L70.8 100.8L88.64 100.8C90.43 97.55 91.45 95.63 92.08 94.44C92.7 93.25 93.57 91.55 94 90.66C94.44 89.77 94.79 89.03 94.77 89.02C94.76 89 94.57 89.03 94.35 89.07Z" />
		<path class="shp2" d="M33.54 100.62C26.4 100.63 20.56 100.66 20.56 100.68C20.56 100.7 20.93 101.65 21.39 102.78C21.84 103.91 22.28 105.07 22.36 105.36C22.49 105.81 22.49 105.92 22.4 106.16C22.34 106.31 20.3 110.83 17.86 116.2C15.42 121.57 13.34 126.12 13.23 126.32C13.12 126.52 12.85 126.93 12.62 127.24C12.39 127.55 11.09 129.11 9.73 130.72L7.26 133.64C30.38 133.68 35.98 133.66 36.72 133.61C37.36 133.56 38.15 133.47 38.48 133.4C38.81 133.33 39.31 133.2 39.6 133.11C39.89 133.02 40.46 132.77 40.88 132.55C41.3 132.34 42.02 131.89 42.48 131.55C42.94 131.2 43.61 130.63 43.96 130.28C44.31 129.92 44.77 129.4 44.97 129.12C45.17 128.83 45.49 128.33 45.68 128C45.87 127.67 46.04 127.39 46.06 127.38C46.07 127.37 46.2 127.47 46.34 127.61C46.48 127.74 46.8 127.99 47.04 128.15C47.28 128.32 47.66 128.55 47.88 128.66C48.1 128.77 48.48 128.92 48.72 128.99C48.96 129.05 49.48 129.16 49.88 129.21C50.42 129.29 52.19 129.32 56.92 129.32C61.6 129.32 63.4 129.29 63.86 129.22C64.33 129.14 66.62 129.12 73.24 129.12C79.62 129.12 82.01 129.14 82.02 129.21C82.03 129.27 84.25 129.26 90.28 129.14L98.52 128.97C99.76 127.69 100.69 126.73 101.38 126.02L102.64 124.72L106.01 124.6C105.94 125.1 105.87 126.01 105.8 126.96C105.73 127.91 105.66 128.81 105.64 128.98L105.6 129.28C133.29 129.28 135.35 129.26 136.04 129.16C136.48 129.09 137.04 128.98 137.28 128.91C137.52 128.84 137.95 128.67 138.24 128.54C138.53 128.41 139.05 128.12 139.4 127.89C139.75 127.66 140.23 127.29 140.47 127.07L140.9 126.68C141.15 127.05 141.41 127.33 141.63 127.55C141.86 127.76 142.2 128.05 142.4 128.18C142.6 128.32 143.01 128.55 143.32 128.7C143.63 128.84 144.13 129.01 144.44 129.08C144.75 129.15 145.77 129.24 146.72 129.29C147.73 129.34 150.6 129.36 153.68 129.34C158.6 129.3 158.97 129.29 159.8 129.13C160.66 128.97 160.86 128.96 169.94 128.96C176.1 128.96 179.46 128.93 179.98 128.87C180.41 128.82 181.06 128.7 181.42 128.59C181.78 128.49 182.34 128.27 182.66 128.11C182.98 127.95 183.47 127.67 183.76 127.48C184.05 127.3 184.47 126.97 184.71 126.75C184.95 126.54 185.36 126.08 185.63 125.75C185.9 125.41 186.34 124.71 186.61 124.19C186.89 123.67 187.67 122 188.37 120.48C189.06 118.96 189.72 117.43 189.84 117.08C189.96 116.73 190.12 116.22 190.18 115.96C190.25 115.7 190.33 115.2 190.35 114.86C190.38 114.52 190.43 114.24 190.46 114.24C190.49 114.24 190.92 114.37 191.4 114.52C191.88 114.67 192.3 114.77 192.33 114.74C192.36 114.71 193.2 112.19 194.21 109.15L196.04 103.62C186.37 103.53 181.78 103.52 179.6 103.54C175.9 103.58 175.59 103.59 174.92 103.75C174.52 103.84 173.95 104.02 173.64 104.13C173.33 104.25 172.9 104.43 172.68 104.54C172.46 104.65 172.06 104.89 171.8 105.06C171.54 105.24 171.15 105.53 170.93 105.71L170.55 106.04C169.84 105.25 169.42 104.86 169.16 104.68C168.9 104.49 168.45 104.22 168.16 104.08C167.87 103.94 167.3 103.72 166.88 103.61L166.12 103.4C153.2 103.4 152.62 103.41 151.96 103.55C151.56 103.63 150.9 103.8 150.48 103.94C150.06 104.07 149.47 104.31 149.16 104.46C148.85 104.61 148.35 104.91 148.04 105.13C147.73 105.34 147.37 105.62 147.24 105.75L147 105.99C146.38 105.3 145.98 104.95 145.72 104.77C145.46 104.6 145.02 104.35 144.74 104.22C144.47 104.1 143.94 103.92 143.58 103.82L142.92 103.65C126.95 103.61 122.32 103.63 122.32 103.66C122.32 103.69 122.43 104.48 122.56 105.4C122.7 106.32 122.81 107.22 122.82 107.4C122.83 107.65 122.55 108.33 121.52 110.64C120.8 112.25 120.19 113.59 120.17 113.62C120.14 113.65 120.09 112.59 120.06 111.26C120.03 109.93 120 107.66 120 106.22L120 103.6L102.72 103.6C102.79 104.06 102.89 104.88 103 105.72L103.18 107.24C102.42 108.05 101.48 109.03 100.6 109.94C99.72 110.85 98.99 111.59 98.98 111.58C98.97 111.57 99.02 111.25 99.09 110.88C99.19 110.37 99.21 109.98 99.17 109.36C99.15 108.9 99.07 108.32 99.01 108.08C98.94 107.84 98.7 107.27 98.48 106.82C98.18 106.21 97.94 105.86 97.54 105.43C97.24 105.11 96.8 104.71 96.56 104.53C96.32 104.35 95.87 104.09 95.56 103.95C95.25 103.81 94.77 103.63 94.48 103.56C94.16 103.48 93.37 103.4 92.44 103.36C91.6 103.32 88.33 103.28 85.16 103.28C81.99 103.28 78.05 103.3 76.4 103.33L73.4 103.39C73.5 104.14 73.52 104.37 73.5 104.38C73.49 104.39 73.23 104.27 72.92 104.12C72.61 103.97 72.18 103.79 71.96 103.72C71.74 103.66 71.24 103.55 70.84 103.48C70.23 103.38 69.18 103.36 64.08 103.36C60.66 103.36 57.78 103.39 57.44 103.44C57.11 103.48 56.57 103.57 56.24 103.64C55.91 103.71 55.41 103.84 55.12 103.93C54.83 104.03 54.37 104.21 54.08 104.34C53.68 104.51 53.55 104.54 53.5 104.46C53.47 104.41 53.43 104.23 53.4 104.08C53.37 103.93 53.23 103.55 53.08 103.24C52.89 102.84 52.67 102.54 52.31 102.2C52 101.9 51.57 101.6 51.2 101.42C50.87 101.26 50.26 101.03 49.84 100.92C49.42 100.81 48.67 100.68 48.16 100.64C47.65 100.6 47.08 100.57 46.88 100.58C46.68 100.59 40.68 100.61 33.54 100.62Z" />
		<path class="shp3" d="M25.82 104.74C25.92 105.19 26 105.66 26 105.78C26 105.9 25.91 106.3 25.79 106.66C25.68 107.02 23.52 111.86 21.01 117.4C18.49 122.94 16.26 127.78 16.04 128.15C15.82 128.51 15.42 129.09 15.15 129.43C14.88 129.76 14.67 130.07 14.69 130.1C14.71 130.13 19.34 130.16 24.98 130.16C31.13 130.16 35.67 130.13 36.32 130.08C36.91 130.03 37.58 129.97 37.8 129.93C38.02 129.89 38.45 129.76 38.76 129.64C39.07 129.52 39.68 129.18 40.12 128.89C40.56 128.6 41.17 128.11 41.47 127.8C41.77 127.49 42.19 126.99 42.4 126.68C42.61 126.37 42.89 125.9 43.02 125.64C43.15 125.38 43.42 124.78 43.62 124.32C43.82 123.86 45.33 120.69 46.98 117.28C48.63 113.87 50.06 110.87 50.15 110.62C50.24 110.37 50.39 109.8 50.48 109.36C50.57 108.92 50.64 108.37 50.64 108.14C50.64 107.91 50.59 107.49 50.53 107.2C50.47 106.91 50.3 106.45 50.16 106.16C50.01 105.87 49.71 105.44 49.48 105.2C49.25 104.96 48.85 104.64 48.59 104.5C48.33 104.36 47.87 104.18 47.56 104.11C47.05 103.98 46.14 103.97 36.32 103.94L25.64 103.92L25.82 104.74ZM58.44 106.65C57.88 106.69 57.15 106.8 56.68 106.92C56.24 107.03 55.61 107.26 55.28 107.42C54.84 107.63 54.53 107.86 54.12 108.28C53.81 108.59 53.39 109.13 53.19 109.48C52.98 109.83 51.84 112.41 50.64 115.2C49.45 117.99 48.34 120.62 48.19 121.04C48.03 121.46 47.88 122.02 47.85 122.28C47.82 122.54 47.82 122.98 47.85 123.24C47.88 123.5 48 123.91 48.11 124.14C48.23 124.37 48.45 124.71 48.62 124.89C48.79 125.07 49.1 125.3 49.32 125.41C49.56 125.52 49.99 125.63 50.4 125.68C50.84 125.74 53.32 125.76 57.36 125.74C62.9 125.71 63.71 125.7 64.2 125.58C64.51 125.5 65.05 125.3 65.4 125.13C65.75 124.95 66.22 124.66 66.45 124.47C66.67 124.28 67.01 123.94 67.21 123.71C67.4 123.48 67.71 123 67.9 122.63C68.09 122.26 69.21 119.69 70.39 116.92C71.58 114.15 72.62 111.66 72.71 111.4C72.79 111.14 72.91 110.69 72.96 110.4C73.01 110.1 73.03 109.69 73 109.44C72.97 109.2 72.87 108.82 72.79 108.6C72.71 108.38 72.54 108.06 72.42 107.89C72.3 107.72 72.04 107.46 71.84 107.32C71.64 107.17 71.25 106.97 70.96 106.87C70.47 106.7 70.26 106.69 67.48 106.63C65.85 106.6 63.37 106.58 61.96 106.58C60.55 106.58 58.97 106.61 58.44 106.65ZM77.34 107.22C77.32 107.68 77.23 108.09 77.07 108.56C76.93 108.93 75.48 112.26 73.84 115.96C72.2 119.66 70.72 122.97 70.54 123.32C70.36 123.67 70.11 124.12 69.98 124.32C69.84 124.52 69.6 124.84 69.43 125.04C69.26 125.24 69.13 125.43 69.12 125.46C69.12 125.49 70.99 125.52 73.28 125.52L77.44 125.52C77.44 124.87 77.53 124.37 77.64 123.98C77.77 123.52 78.3 122.34 79.18 120.56C80.35 118.18 80.54 117.84 80.7 117.84C80.8 117.84 81.16 117.88 81.5 117.92C81.84 117.97 82.21 118.02 82.32 118.05L82.52 118.09L82.41 125.56C89.56 125.52 90.05 125.53 90.1 125.64C90.15 125.74 90.62 125.76 93.7 125.76L97.24 125.76L101.36 121.2C104.49 121.2 106.3 121.17 107.39 121.14L109.38 121.08C109.32 123.5 109.26 124.33 109.21 124.48C109.16 124.63 109 124.97 108.84 125.22C108.69 125.47 108.59 125.7 108.62 125.72C108.65 125.75 110.63 125.76 113.02 125.76C115.41 125.76 117.35 125.73 117.34 125.7C117.32 125.67 117.21 125.42 117.08 125.16C116.96 124.9 116.83 124.46 116.79 124.2C116.75 123.94 116.69 119.93 116.66 115.3L116.6 106.88L106.64 106.88C106.66 107.71 106.6 108.03 106.49 108.34C106.33 108.77 105.8 109.34 98.47 116.98C94.15 121.48 90.54 125.25 90.43 125.36L90.25 125.56C89.87 124.94 89.7 124.58 89.64 124.36C89.56 124.07 89.52 123.09 89.48 120.72L89.42 117.48C90.46 117.38 90.94 117.31 91.16 117.26C91.38 117.22 91.74 117.1 91.96 117C92.18 116.89 92.54 116.66 92.75 116.47C93.03 116.22 93.24 115.92 93.5 115.4C93.7 115 94.2 113.91 94.62 112.96C95.04 112.01 95.45 111.04 95.53 110.8C95.61 110.56 95.72 110.14 95.76 109.88C95.83 109.5 95.82 109.3 95.72 108.92C95.65 108.66 95.49 108.26 95.38 108.05C95.26 107.84 95.02 107.53 94.84 107.37C94.66 107.22 94.34 107.01 94.12 106.91C93.78 106.75 93.5 106.71 92.32 106.64C91.55 106.6 87.87 106.56 84.15 106.56L77.38 106.56L77.34 107.22ZM153.92 106.65C153.41 106.67 152.78 106.74 152.52 106.79C152.26 106.85 151.77 106.98 151.44 107.08C151.11 107.19 150.62 107.41 150.36 107.56C150.1 107.72 149.72 108 149.53 108.18C149.34 108.37 149.03 108.74 148.84 109C148.65 109.26 148.37 109.73 148.22 110.04C148.06 110.35 146.92 112.99 145.68 115.92C144.44 118.85 143.36 121.53 143.27 121.88C143.14 122.38 143.11 122.64 143.16 123.08C143.19 123.4 143.29 123.82 143.41 124.06C143.51 124.29 143.76 124.65 143.95 124.86C144.14 125.07 144.47 125.32 144.69 125.41C144.9 125.51 145.39 125.63 145.76 125.68C146.23 125.74 148.38 125.76 152.72 125.74C158.92 125.72 159.01 125.71 159.64 125.54C159.99 125.44 160.55 125.23 160.87 125.06C161.2 124.9 161.7 124.54 161.98 124.28C162.27 124.02 162.64 123.6 162.8 123.36C162.96 123.12 163.21 122.7 163.34 122.44C163.47 122.18 164.54 119.71 165.72 116.96C166.89 114.21 167.95 111.69 168.07 111.36C168.25 110.85 168.28 110.63 168.28 109.84C168.28 108.97 168.27 108.89 168.03 108.4C167.88 108.11 167.69 107.79 167.59 107.68C167.48 107.57 167.27 107.38 167.12 107.27C166.97 107.15 166.61 106.97 166.32 106.87C165.81 106.68 165.75 106.68 161.96 106.66C159.85 106.65 157.38 106.63 156.48 106.62C155.58 106.61 154.43 106.62 153.92 106.65ZM176.24 106.85C176.13 106.87 175.79 106.94 175.48 107.01C175.17 107.07 174.67 107.24 174.36 107.39C174.05 107.54 173.52 107.88 173.18 108.15C172.72 108.51 172.45 108.81 172.13 109.3C171.89 109.66 171.19 111.08 170.56 112.44C169.93 113.8 169.3 115.21 169.15 115.56C169 115.91 168.8 116.47 168.71 116.8C168.6 117.2 168.55 117.56 168.57 117.89C168.59 118.25 168.66 118.46 168.82 118.71C168.98 118.95 169.17 119.1 169.54 119.28C169.87 119.44 170.26 119.54 170.72 119.6C171.09 119.64 172.67 119.68 174.22 119.68C176.55 119.68 177.09 119.7 177.32 119.8C177.57 119.91 177.6 119.95 177.6 120.24C177.6 120.42 177.51 120.77 177.39 121.02C177.28 121.27 177.08 121.62 176.96 121.8C176.83 121.98 176.64 122.17 176.52 122.22C176.37 122.3 175.35 122.32 172.3 122.32C170.09 122.32 168.06 122.28 167.8 122.24C167.54 122.2 167.1 122.05 166.84 121.92C166.58 121.79 166.34 121.71 166.31 121.74C166.29 121.77 165.99 122.59 165.66 123.56L165.06 125.32C169.73 125.41 172.81 125.44 174.92 125.44C177.75 125.44 178.98 125.41 179.6 125.33C180.06 125.26 180.63 125.14 180.86 125.05C181.09 124.95 181.5 124.74 181.78 124.57C182.06 124.4 182.43 124.1 182.6 123.91C182.78 123.72 183.07 123.34 183.24 123.08C183.41 122.82 183.77 122.13 184.04 121.56C184.32 120.99 184.99 119.53 185.54 118.32C186.09 117.11 186.62 115.89 186.71 115.6C186.81 115.31 186.88 114.88 186.88 114.64C186.88 114.32 186.82 114.08 186.66 113.77C186.54 113.53 186.34 113.25 186.22 113.15C186.1 113.04 185.81 112.9 185.58 112.83C185.23 112.72 184.59 112.69 181.65 112.65L178.15 112.6C177.9 112.29 177.83 112.15 177.84 112.08C177.84 112.01 178.03 111.58 178.26 111.12C178.52 110.61 178.77 110.22 178.91 110.12C179.13 109.96 179.26 109.96 183.63 109.94C186.77 109.92 188.3 109.94 188.72 110C189.05 110.06 189.43 110.15 189.56 110.22C189.69 110.28 189.91 110.42 190.04 110.52L190.29 110.71C191.19 107.77 191.44 106.91 191.42 106.9C191.41 106.89 188.03 106.86 183.92 106.84C179.81 106.82 176.35 106.83 176.24 106.85ZM126.27 107.1C126.3 107.22 126.27 107.61 126.21 107.96C126.14 108.31 125.98 108.85 125.85 109.16C125.73 109.47 124.28 112.71 122.65 116.36C121.01 120.01 119.5 123.31 119.31 123.68C119.11 124.05 118.73 124.64 118.47 124.98C118.21 125.32 118 125.64 118 125.68C118 125.73 120.96 125.75 126.78 125.73C134.97 125.71 135.6 125.7 136.08 125.56C136.37 125.48 136.8 125.32 137.04 125.2C137.28 125.07 137.72 124.78 138.01 124.55C138.29 124.31 138.66 123.98 138.81 123.8C138.97 123.62 139.24 123.26 139.4 123C139.57 122.74 139.89 122.14 140.1 121.68C140.32 121.22 141.35 118.93 142.4 116.6C143.45 114.27 144.4 112.13 144.51 111.84C144.63 111.55 144.78 111.03 144.85 110.68C144.94 110.25 144.96 109.87 144.93 109.52C144.9 109.23 144.79 108.82 144.68 108.58C144.57 108.35 144.32 107.99 144.13 107.78C143.93 107.56 143.61 107.32 143.37 107.22C143.15 107.12 142.7 107.01 142.38 106.96C142.04 106.92 138.57 106.88 134.01 106.88L126.22 106.88L126.27 107.1Z" />
		<path class="shp2" d="M35.05 108.32L33.1 108.36L25.94 124.12C32.95 124.16 33.19 124.15 33.68 124C33.97 123.92 34.37 123.74 34.58 123.6C34.8 123.46 35.08 123.18 35.23 122.94C35.39 122.71 36.82 119.75 38.42 116.36C40.03 112.97 41.4 110.02 41.47 109.8C41.54 109.58 41.6 109.32 41.6 109.22C41.6 109.12 41.55 108.91 41.48 108.76C41.4 108.57 41.27 108.44 41.08 108.36C40.85 108.26 40.44 108.24 38.9 108.26C37.86 108.27 36.12 108.29 35.05 108.32ZM61.16 109.8C61.12 109.81 60.98 109.85 60.86 109.87C60.74 109.9 60.51 110.04 60.35 110.18C60.19 110.32 59.96 110.62 59.84 110.84C59.72 111.06 58.68 113.44 57.54 116.12C56.4 118.8 55.4 121.16 55.33 121.36C55.25 121.56 55.2 121.84 55.21 122C55.23 122.21 55.3 122.31 55.52 122.44C55.78 122.59 55.93 122.6 58 122.6C59.94 122.6 60.23 122.58 60.46 122.46C60.6 122.38 60.8 122.17 60.9 121.98C61 121.79 62.12 119.23 63.38 116.28C64.64 113.33 65.69 110.83 65.72 110.72C65.75 110.61 65.76 110.42 65.73 110.3C65.7 110.16 65.58 110.03 65.42 109.94C65.2 109.82 64.88 109.8 63.2 109.78C62.12 109.77 61.2 109.78 61.16 109.8ZM83.73 109.98C83.67 110.1 83.24 111.07 82.77 112.14C82.3 113.21 81.92 114.1 81.92 114.12C81.92 114.14 82.85 114.16 83.98 114.16C85.39 114.16 86.14 114.13 86.35 114.06C86.54 114 86.78 113.83 86.95 113.63C87.13 113.43 87.45 112.83 87.79 112.03C88.1 111.33 88.36 110.62 88.38 110.44C88.42 110.16 88.39 110.1 88.19 109.94C87.96 109.76 87.93 109.75 85.9 109.76L83.84 109.76L83.73 109.98ZM156.24 109.88C156.01 109.95 155.77 110.1 155.58 110.31C155.41 110.49 155.18 110.85 155.05 111.1C154.92 111.35 153.98 113.52 152.96 115.92C151.94 118.32 150.98 120.59 150.83 120.96C150.68 121.33 150.56 121.77 150.56 121.92C150.56 122.08 150.61 122.26 150.7 122.34C150.78 122.42 151.06 122.51 151.36 122.56C151.65 122.6 152.56 122.64 153.4 122.64C154.24 122.64 155.12 122.6 155.36 122.56C155.61 122.51 155.88 122.4 155.98 122.3C156.09 122.2 156.28 121.89 156.42 121.6C156.55 121.31 157.65 118.78 158.85 115.96C160.06 113.14 161.07 110.71 161.09 110.56C161.12 110.34 161.1 110.24 160.95 110.1C160.84 110 160.6 109.88 160.4 109.84C160.2 109.8 159.27 109.77 158.32 109.77C157.11 109.77 156.49 109.8 156.24 109.88ZM129.96 116.25C128.42 119.69 127.15 122.53 127.14 122.57C127.13 122.61 128.13 122.63 129.42 122.62C131.4 122.6 131.76 122.58 132.02 122.46C132.19 122.38 132.43 122.17 132.57 121.98C132.7 121.79 132.93 121.41 133.08 121.12C133.22 120.83 134.28 118.51 135.42 115.96C136.57 113.41 137.55 111.16 137.6 110.96C137.68 110.67 137.68 110.55 137.59 110.36C137.53 110.23 137.39 110.1 137.28 110.07C137.17 110.04 136.11 110.01 134.92 110.01L132.76 110L129.96 116.25ZM106.69 114.62L104.1 117.64C108.12 117.67 109.3 117.67 109.32 117.66C109.34 117.65 109.34 116.28 109.31 114.62L109.27 111.59L106.69 114.62Z" />
		<path class="shp0" d="M35.27 112.02C35.22 112.12 34.28 114.15 33.19 116.54L31.2 120.88L32.57 120.84C35.85 113.93 36.8 111.9 36.8 111.88C36.8 111.86 36.48 111.84 36.08 111.84C35.42 111.84 35.36 111.85 35.27 112.02Z" />
		<path fill-rule="evenodd" class="shp1" d="M103.51 127.15C103.54 127.17 103.49 128.14 103.4 129.31C103.31 130.47 103.26 131.44 103.28 131.46C103.3 131.48 107.75 131.54 113.16 131.6C118.57 131.65 123.04 131.71 123.08 131.74C123.12 131.76 122.98 131.89 122.76 132.04C122.54 132.18 122.04 132.6 121.65 132.97C121.26 133.34 120.76 133.91 120.53 134.24C120.31 134.57 119.99 135.13 119.82 135.48C119.64 135.83 119.38 136.48 119.23 136.92C119.09 137.36 118.92 137.95 118.86 138.24C118.77 138.7 118.73 138.76 118.56 138.78C118.37 138.81 118.31 138.95 117.62 141.18C117.22 142.49 116.82 143.85 116.74 144.2C116.65 144.63 116.6 145.19 116.6 145.92C116.6 146.81 116.63 147.12 116.79 147.68C116.89 148.05 117.11 148.63 117.28 148.96C117.45 149.29 117.79 149.79 118.02 150.08C118.26 150.37 118.7 150.8 119 151.04C119.31 151.28 119.87 151.63 120.24 151.82C120.61 152.01 121.26 152.24 121.68 152.35C122.1 152.46 122.8 152.59 123.24 152.64C123.81 152.71 124.46 152.72 125.48 152.68C126.27 152.64 135.4 152.61 145.76 152.61C156.12 152.61 165.14 152.64 165.8 152.68C166.63 152.72 167.31 152.71 168 152.65C168.69 152.58 170.38 152.56 178 152.6L177.19 153.76C176.74 154.4 175.87 155.6 175.24 156.44C174.62 157.28 173.58 158.61 172.93 159.4C172.28 160.19 171.31 161.34 170.77 161.96C170.23 162.58 169.25 163.66 168.58 164.36C167.92 165.06 166.68 166.32 165.83 167.16C164.98 168 163.76 169.15 163.12 169.73C162.48 170.3 161.55 171.13 161.04 171.56C160.53 171.99 159.6 172.77 158.96 173.28C158.32 173.79 157.35 174.55 156.8 174.97C156.25 175.39 155.28 176.11 154.64 176.56C154 177.02 152.65 177.94 151.64 178.61C150.63 179.27 149.17 180.2 148.4 180.66C147.63 181.12 146.41 181.83 145.68 182.23C144.95 182.64 143.44 183.43 142.32 184C141.2 184.56 139.67 185.3 138.92 185.64C138.17 185.98 137 186.49 136.32 186.78C135.64 187.06 134.38 187.56 133.52 187.89C132.66 188.22 131.01 188.81 129.84 189.2C128.67 189.59 127.04 190.11 126.2 190.35C125.36 190.59 124.03 190.95 123.24 191.15C122.45 191.35 121.15 191.66 120.36 191.83C119.57 192.01 118.24 192.28 117.4 192.43C116.56 192.59 115.18 192.82 114.32 192.95C113.46 193.09 111.99 193.28 111.04 193.39C110.09 193.5 108.64 193.65 107.8 193.72C106.96 193.78 105.61 193.88 104.8 193.92C103.99 193.96 101.84 194 100.04 194C98.24 194 96.09 193.96 95.28 193.92C94.47 193.88 93.12 193.78 92.28 193.72C91.44 193.65 90.13 193.52 89.36 193.43C88.59 193.35 87.84 193.26 87.7 193.24C87.56 193.22 87.45 193.17 87.47 193.14C87.49 193.11 87.67 193.03 87.87 192.96C88.19 192.86 88.27 192.79 88.37 192.52C88.46 192.29 88.49 192.01 88.46 191.52C88.43 191.02 88.36 190.68 88.19 190.24C88.06 189.91 87.78 189.34 87.56 188.97C87.34 188.6 86.9 187.97 86.58 187.57C86.26 187.17 85.57 186.39 85.05 185.84C84.53 185.29 83.94 184.59 83.74 184.28C83.55 183.97 83.11 183.22 82.78 182.6C82.44 181.98 81.95 180.96 81.68 180.32C81.41 179.68 81.04 178.73 80.87 178.2C80.69 177.67 80.47 176.88 80.36 176.44C80.25 176 80.11 175.26 80.04 174.8C79.98 174.33 79.92 173.41 79.92 172.7C79.92 171.77 79.96 171.22 80.08 170.62C80.17 170.17 80.32 169.55 80.43 169.24C80.53 168.93 80.8 168.32 81.03 167.88C81.25 167.44 81.61 166.85 81.83 166.56C82.04 166.27 82.57 165.71 83.01 165.3C83.59 164.75 83.98 164.46 84.48 164.2C84.85 164.01 85.6 163.71 86.14 163.53C86.68 163.35 87.49 163.11 87.94 163.01C88.39 162.9 89.12 162.75 89.56 162.67C90.21 162.55 90.79 162.52 92.64 162.52C94.45 162.52 95.11 162.55 95.84 162.66C96.35 162.74 97.17 162.9 97.68 163.01C98.19 163.12 99.01 163.34 99.52 163.49C100.03 163.64 101 163.99 101.68 164.26C102.36 164.53 103.33 164.97 103.84 165.23C104.35 165.49 105.14 165.91 105.6 166.18C106.06 166.44 106.93 166.99 107.52 167.38C108.11 167.78 108.89 168.32 109.24 168.59C109.59 168.86 110.33 169.45 110.88 169.91C111.43 170.37 112.13 170.91 112.44 171.11C112.75 171.32 113.27 171.57 113.6 171.68C113.99 171.8 114.38 171.87 114.72 171.87C115.06 171.87 115.36 171.81 115.6 171.71C115.8 171.62 116.1 171.45 116.27 171.32C116.44 171.19 116.69 170.93 116.81 170.74C116.94 170.55 117.11 170.12 117.2 169.78C117.32 169.34 117.36 168.9 117.36 168.28C117.36 167.8 117.32 167.09 117.28 166.72C117.23 166.35 117.09 165.61 116.96 165.08C116.84 164.55 116.58 163.71 116.4 163.2C116.21 162.69 115.79 161.75 115.47 161.1C115.15 160.45 114.67 159.59 114.42 159.18C114.17 158.77 113.7 158.08 113.37 157.64C113.04 157.2 112.48 156.5 112.12 156.08C111.75 155.66 111.01 154.89 110.47 154.36C109.92 153.83 109.26 153.21 109 152.99C108.74 152.77 108.14 152.3 107.68 151.95C107.22 151.59 106.46 151.05 106 150.75C105.54 150.44 104.78 149.96 104.32 149.68C103.86 149.4 102.83 148.84 102.04 148.43C101.25 148.02 100.08 147.47 99.44 147.2C98.8 146.93 97.72 146.5 97.04 146.24C96.36 145.99 95.28 145.61 94.64 145.41C94 145.21 92.96 144.9 92.32 144.73C91.68 144.55 90.55 144.26 89.8 144.09C89.05 143.92 87.83 143.66 87.08 143.52C86.02 143.32 85.42 143.15 84.36 142.76C83.61 142.48 82.44 142.02 81.76 141.74C81.08 141.45 80.11 141.03 79.6 140.8C79.09 140.57 78.05 140.07 77.28 139.68C76.51 139.29 75.38 138.7 74.76 138.36C74.14 138.02 73.17 137.44 72.6 137.08C72.03 136.72 71.24 136.2 70.84 135.92C70.44 135.65 69.83 135.2 69.48 134.94C69.13 134.67 68.55 134.21 68.2 133.91C67.85 133.61 67.18 132.99 66.72 132.53C65.99 131.79 65.9 131.68 66.04 131.63C66.13 131.6 69.19 131.59 72.84 131.62C78.23 131.66 79.49 131.69 79.54 131.77C79.58 131.86 81.58 131.84 91.04 131.64C97.33 131.51 102.48 131.38 102.48 131.36C102.48 131.34 102.16 130.94 101.06 129.64L102.26 128.38C102.93 127.68 103.49 127.13 103.51 127.15ZM140.9 130.23C141.13 130.36 141.13 130.36 140.95 130.38C140.84 130.4 140.63 130.4 140.2 130.36L140.43 130.23C140.65 130.1 140.68 130.1 140.9 130.23ZM46.8 130.96C46.82 130.96 47.13 131.07 48.12 131.45L48.67 132.54C48.97 133.15 49.51 134.14 49.86 134.76C50.21 135.38 50.81 136.35 51.18 136.92C51.55 137.49 52.15 138.36 52.5 138.84C52.86 139.32 53.48 140.13 53.88 140.64C54.28 141.15 55.02 142.03 55.52 142.6C56.02 143.17 57.15 144.37 58.04 145.27C58.92 146.17 60.27 147.47 61.04 148.18C61.81 148.88 63.21 150.08 64.16 150.84C65.11 151.59 66.38 152.59 67 153.05C67.62 153.51 68.53 154.18 69.04 154.54C69.55 154.89 70.39 155.46 70.92 155.79C71.45 156.13 71.82 156.4 71.74 156.4C71.66 156.4 71.21 156.26 70.74 156.09C70.27 155.92 69.39 155.57 68.8 155.32C68.21 155.07 66.91 154.46 65.92 153.97C64.93 153.47 63.63 152.77 63.04 152.4C62.45 152.03 61.58 151.48 61.12 151.18C60.66 150.87 59.81 150.27 59.24 149.84C58.67 149.41 57.66 148.6 57 148.04C56.34 147.48 55.21 146.42 54.49 145.69C53.77 144.96 52.73 143.84 52.19 143.2C51.65 142.56 50.89 141.63 50.51 141.12C50.13 140.61 49.38 139.53 48.84 138.72C48.3 137.91 47.6 136.79 47.28 136.24C46.97 135.69 46.4 134.62 45.36 132.48L46.06 131.72C46.45 131.3 46.78 130.96 46.8 130.96Z" />
		<path class="shp2" d="M128.24 133.13C127.78 133.16 127.09 133.26 126.72 133.36C126.35 133.45 125.66 133.71 125.2 133.93C124.44 134.29 124.29 134.41 123.6 135.11C122.95 135.76 122.78 136 122.46 136.64C122.26 137.06 121.99 137.71 121.87 138.08C121.68 138.66 121.65 138.9 121.64 139.72C121.64 140.6 121.66 140.72 121.86 141.18L122.08 141.68L120.48 141.68C119.99 143.26 119.77 144.01 119.68 144.36C119.59 144.71 119.49 145.25 119.46 145.56C119.44 145.89 119.46 146.34 119.52 146.64C119.57 146.93 119.71 147.36 119.83 147.6C119.94 147.84 120.24 148.24 120.48 148.49C120.78 148.79 121.12 149.04 121.52 149.23C121.89 149.41 122.44 149.58 122.96 149.69C123.68 149.83 124 149.85 125.24 149.81C126.03 149.79 126.89 149.73 127.14 149.67C127.39 149.61 127.6 149.59 127.6 149.62C127.6 149.65 135.55 149.68 145.26 149.68L162.92 149.68L163.08 149.21C163.64 149.45 164.09 149.59 164.44 149.66C164.91 149.76 165.41 149.79 166.36 149.78C167.06 149.77 171.1 149.75 175.34 149.72C179.58 149.7 183.04 149.66 183.04 149.64C183.04 149.62 183.11 148.82 183.2 147.86C183.29 146.9 183.61 143.24 183.92 139.72C184.23 136.2 184.48 133.31 184.48 133.3C184.48 133.29 182.78 133.29 180.71 133.3L176.94 133.32C175.96 135.12 175.66 135.65 175.65 135.66C175.65 135.68 175.54 135.53 175.43 135.34C175.31 135.15 175 134.8 174.75 134.55C174.49 134.3 174.06 133.99 173.8 133.86C173.54 133.73 173.09 133.54 172.8 133.45C172.51 133.36 172 133.25 171.66 133.2C171.32 133.16 170.74 133.12 170.38 133.12C170.02 133.12 169.41 133.16 169.04 133.2C168.67 133.25 168.03 133.37 167.62 133.48C167.21 133.59 166.62 133.81 166.3 133.97C165.98 134.13 165.57 134.36 165.38 134.49C165.15 134.65 164.94 134.72 164.72 134.72C164.5 134.72 164.41 134.69 164.43 134.62C164.45 134.56 164.54 134.27 164.63 133.96C164.73 133.65 164.8 133.37 164.8 133.34C164.8 133.31 157.56 133.28 148.72 133.28L132.64 133.28L132.48 133.92C132.02 133.68 131.68 133.54 131.44 133.46C131.2 133.37 130.89 133.27 130.76 133.24C130.63 133.21 130.2 133.16 129.8 133.13C129.4 133.1 128.7 133.1 128.24 133.13Z" />
		<path class="shp1" d="M43.36 134.01C42.99 134.27 42.37 134.64 42 134.83C41.63 135.03 41 135.3 40.6 135.44C40.2 135.58 39.54 135.76 39.12 135.84C38.7 135.93 38 136.04 37.56 136.09C37 136.15 33.23 136.19 25.02 136.21L13.28 136.24C13.36 136.52 13.65 137.21 13.98 137.96C14.3 138.71 15.11 140.4 15.76 141.72C16.41 143.04 17.28 144.71 17.69 145.44C18.09 146.17 18.87 147.52 19.43 148.44C19.98 149.36 21.04 151.02 21.77 152.12C22.5 153.22 23.47 154.62 23.92 155.24C24.37 155.86 25.13 156.86 25.6 157.48C26.08 158.1 26.96 159.19 27.56 159.92C28.16 160.65 29.18 161.83 29.83 162.56C30.47 163.29 31.84 164.74 32.88 165.79C33.91 166.84 35.26 168.17 35.88 168.75C36.5 169.33 37.52 170.26 38.16 170.81C38.8 171.37 39.79 172.21 40.36 172.68C40.93 173.15 41.97 173.97 42.67 174.51C43.36 175.04 44.44 175.85 45.07 176.31C45.69 176.76 47.03 177.68 48.04 178.36C49.05 179.03 50.69 180.07 51.68 180.66C52.67 181.25 54.06 182.06 54.76 182.44C55.46 182.83 56.96 183.61 58.08 184.17C59.2 184.73 60.82 185.5 61.68 185.88C62.54 186.27 63.98 186.88 64.88 187.24C65.78 187.6 67.17 188.14 67.96 188.42C68.75 188.71 70.07 189.16 70.88 189.43C71.69 189.69 73.06 190.11 73.92 190.36C74.78 190.61 76.43 191.04 77.6 191.33C78.77 191.61 79.8 191.86 79.9 191.88C80 191.9 80.08 191.89 80.08 191.86C80.08 191.83 79.87 191.7 79.62 191.57C79.37 191.44 78.78 191.1 78.32 190.81C77.86 190.53 77.23 190.11 76.92 189.89C76.61 189.67 75.95 189.13 75.44 188.68C74.93 188.23 74.12 187.45 73.64 186.95C73.16 186.45 72.47 185.66 72.11 185.2C71.76 184.74 71.32 184.14 71.14 183.88C70.97 183.62 70.61 183.04 70.35 182.6C70.09 182.16 69.67 181.37 69.42 180.84C69.18 180.31 68.83 179.47 68.66 178.96C68.48 178.45 68.25 177.7 68.13 177.28C68.02 176.86 67.86 176.14 67.77 175.68C67.68 175.22 67.55 174.32 67.48 173.68C67.37 172.77 67.35 172.11 67.38 170.64C67.42 169.2 67.48 168.43 67.64 167.36C67.75 166.59 68.01 165.31 68.21 164.52C68.41 163.73 68.74 162.56 68.96 161.92C69.17 161.28 69.55 160.29 69.8 159.72C70.05 159.15 70.27 158.63 70.29 158.58C70.31 158.52 70.07 158.37 69.66 158.19C69.3 158.02 68.24 157.51 67.32 157.04C66.4 156.57 65.19 155.92 64.64 155.6C64.09 155.28 63.14 154.69 62.52 154.3C61.9 153.91 60.99 153.29 60.48 152.93C59.97 152.57 59 151.83 58.32 151.29C57.64 150.74 56.67 149.92 56.16 149.47C55.65 149.03 54.57 147.98 53.76 147.15C52.94 146.32 51.84 145.14 51.32 144.52C50.79 143.9 49.98 142.9 49.51 142.28C49.05 141.66 48.29 140.6 47.82 139.92C47.36 139.24 46.6 138.05 46.14 137.28C45.68 136.51 45.03 135.35 44.7 134.7C44.38 134.05 44.09 133.52 44.07 133.53C44.06 133.53 43.73 133.75 43.36 134.01Z" />
		<path class="shp3" d="M127.96 135.13C127.65 135.17 127.17 135.28 126.88 135.37C126.59 135.46 126.18 135.63 125.96 135.74C125.74 135.85 125.35 136.15 125.09 136.39C124.84 136.64 124.51 137.02 124.38 137.24C124.24 137.46 124 137.98 123.86 138.4C123.66 138.97 123.6 139.3 123.6 139.72C123.6 140.14 123.65 140.37 123.78 140.64C123.88 140.84 124.27 141.29 124.68 141.68C125.07 142.05 125.71 142.67 126.1 143.04C126.77 143.7 126.8 143.73 126.8 144.08C126.8 144.29 126.72 144.61 126.61 144.84C126.48 145.14 126.35 145.28 126.13 145.38C125.97 145.46 125.71 145.51 125.55 145.5C125.34 145.49 125.21 145.42 125.09 145.26L124.92 145.04C125.2 144.11 125.28 143.8 125.28 143.76C125.28 143.71 124.67 143.68 123.6 143.68L121.92 143.68C121.59 144.77 121.47 145.35 121.46 145.68C121.43 146.17 121.45 146.35 121.59 146.66C121.7 146.9 121.88 147.13 122.1 147.28C122.29 147.42 122.62 147.58 122.84 147.64C123.06 147.71 123.62 147.8 124.08 147.85C124.73 147.92 125.12 147.92 125.8 147.85C126.28 147.79 126.94 147.66 127.26 147.55C127.58 147.45 127.98 147.29 128.16 147.2C128.34 147.11 128.72 146.81 129.02 146.53C129.41 146.16 129.64 145.86 129.86 145.43C130.02 145.11 130.23 144.57 130.32 144.24C130.41 143.91 130.49 143.39 130.49 143.08C130.5 142.62 130.46 142.44 130.28 142.08C130.11 141.75 129.69 141.27 128.63 140.22C127.36 138.96 127.2 138.77 127.2 138.54C127.2 138.4 127.27 138.16 127.36 138.02C127.45 137.88 127.64 137.69 127.78 137.6C127.92 137.51 128.14 137.44 128.26 137.44C128.39 137.44 128.56 137.52 128.68 137.64C128.79 137.75 128.88 137.88 128.88 137.94C128.88 138 128.81 138.27 128.72 138.54C128.63 138.81 128.56 139.08 128.56 139.12C128.56 139.17 129.14 139.19 130.18 139.18L131.79 139.16C132.13 138.12 132.18 137.76 132.19 137.23C132.2 136.53 132.19 136.48 131.96 136.15C131.82 135.96 131.55 135.7 131.36 135.58C131.16 135.46 130.78 135.31 130.52 135.24C130.26 135.17 129.7 135.1 129.28 135.08C128.86 135.06 128.27 135.08 127.96 135.13ZM168.92 135.21C168.66 135.25 168.17 135.37 167.84 135.48C167.51 135.59 167.01 135.82 166.72 135.99C166.4 136.18 166.05 136.48 165.81 136.77C165.6 137.03 165.3 137.49 165.16 137.8C165.01 138.11 164.64 139.15 164.34 140.12C164.03 141.09 163.61 142.4 163.41 143.04C163.21 143.68 162.99 144.43 162.92 144.72C162.86 145.01 162.8 145.46 162.8 145.72C162.8 146.03 162.86 146.31 162.96 146.52C163.04 146.7 163.25 146.95 163.41 147.08C163.58 147.21 163.9 147.39 164.12 147.49C164.34 147.59 164.81 147.71 165.16 147.77C165.57 147.83 166.18 147.85 166.88 147.82C167.49 147.79 168.17 147.71 168.44 147.64C168.7 147.56 169.14 147.4 169.4 147.28C169.66 147.16 170.09 146.89 170.34 146.69C170.59 146.49 170.91 146.17 171.05 145.98C171.19 145.79 171.42 145.39 171.56 145.08C171.71 144.77 172.26 143.13 172.79 141.44C173.32 139.75 173.79 138.2 173.83 138C173.88 137.8 173.92 137.48 173.92 137.28C173.92 137.08 173.88 136.79 173.83 136.64C173.78 136.49 173.65 136.25 173.56 136.12C173.46 135.99 173.17 135.77 172.91 135.63C172.65 135.49 172.18 135.32 171.86 135.25C171.49 135.17 170.94 135.12 170.34 135.13C169.82 135.14 169.18 135.17 168.92 135.21ZM134.05 135.42C134.03 135.5 133.38 137.56 132.61 140C131.84 142.44 131 145.14 130.73 146.01C130.47 146.87 130.25 147.6 130.25 147.63C130.24 147.66 131.02 147.68 131.98 147.68L133.72 147.68C134.57 144.98 135.42 142.26 136.17 139.88C136.92 137.5 137.55 135.5 137.56 135.42C137.6 135.29 137.48 135.28 135.84 135.28C134.24 135.28 134.09 135.29 134.05 135.42ZM138.61 136.18C138.45 136.68 137.58 139.46 136.66 142.38L135 147.68L137.92 147.68C138.67 145.29 138.98 144.33 139.08 144C139.18 143.67 139.46 142.81 139.69 142.08C140 141.09 140.12 140.8 140.17 140.92C140.2 141.01 140.23 142.18 140.23 143.52C140.24 144.86 140.27 146.35 140.3 146.82L140.36 147.68L143.62 147.64C144.66 144.29 145.53 141.54 146.21 139.36C146.9 137.18 147.47 135.37 147.49 135.34C147.51 135.31 146.85 135.28 146.04 135.28L144.56 135.28C144.31 136.12 143.83 137.67 143.33 139.28C142.83 140.89 142.39 142.21 142.35 142.22C142.31 142.23 142.25 141.48 142.22 140.54C142.19 139.61 142.16 138.37 142.16 137.8C142.16 137.23 142.13 136.43 142.1 136.02L142.04 135.28L138.89 135.28L138.61 136.18ZM149.52 137.98C148.71 139.47 147.19 142.25 146.14 144.16C145.09 146.07 144.24 147.65 144.24 147.66C144.24 147.67 145.03 147.68 146 147.68L147.76 147.68C147.85 147.38 148.13 146.75 148.44 146.09L149 144.88C150.64 144.88 151.12 144.91 151.12 144.94C151.12 144.97 151.01 145.59 150.88 146.32C150.75 147.05 150.64 147.65 150.64 147.66C150.64 147.67 151.41 147.68 152.36 147.68L154.08 147.68C154.13 147.34 154.17 146.97 154.2 146.64C154.22 146.31 154.33 145.03 154.44 143.8C154.55 142.57 154.74 140.28 154.88 138.72C155.01 137.16 155.14 135.75 155.16 135.58L155.2 135.28L150.99 135.28L149.52 137.98ZM157.36 139.46C156.64 141.76 155.77 144.52 155.42 145.6C155.08 146.68 154.8 147.59 154.8 147.62C154.8 147.65 156.3 147.67 158.14 147.66L161.47 147.64C162 145.97 162.16 145.45 162.16 145.42C162.16 145.39 161.45 145.35 160.57 145.34L158.98 145.32C159.53 143.58 160.24 141.33 160.91 139.18L162.12 135.28L158.67 135.28L157.36 139.46ZM177.38 136.62C176.98 137.36 175.6 139.9 174.3 142.28C173 144.66 171.81 146.84 171.65 147.14L171.36 147.68L174.84 147.68C175.71 145.81 175.99 145.18 176.02 145.07C176.08 144.88 176.09 144.88 177.16 144.88C177.75 144.88 178.24 144.91 178.24 144.94C178.24 144.97 178.15 145.5 178.04 146.12C177.93 146.74 177.82 147.34 177.8 147.46L177.76 147.68L181.2 147.68C181.26 147.28 181.5 144.66 181.76 141.6C182.03 138.54 182.27 135.87 182.3 135.66L182.36 135.28L178.11 135.28L177.38 136.62Z" />
		<path class="shp2" d="M169.06 137.55C168.91 137.61 168.72 137.76 168.63 137.89C168.55 138.02 168.35 138.52 168.2 139C168.05 139.48 167.59 140.98 167.16 142.32C166.74 143.66 166.4 144.87 166.4 145C166.39 145.13 166.44 145.29 166.5 145.34C166.55 145.4 166.74 145.46 166.92 145.49C167.16 145.53 167.34 145.5 167.62 145.37C167.85 145.27 168.04 145.11 168.11 144.98C168.17 144.86 168.69 143.27 169.27 141.44C169.85 139.61 170.32 138.05 170.32 137.96C170.32 137.87 170.28 137.74 170.22 137.66C170.16 137.57 169.98 137.5 169.72 137.48C169.47 137.45 169.22 137.48 169.06 137.55ZM151.92 138.61C151.77 138.91 151.28 139.94 150.83 140.9L150 142.64C151.18 142.64 151.52 142.62 151.52 142.6C151.52 142.58 151.68 141.56 151.88 140.35C152.08 139.13 152.23 138.12 152.21 138.1C152.2 138.07 152.07 138.3 151.92 138.61ZM179.02 138.64C178.87 138.97 178.4 139.98 177.97 140.89C177.55 141.8 177.2 142.59 177.2 142.63C177.2 142.69 177.46 142.72 177.92 142.72C178.32 142.72 178.64 142.7 178.64 142.68C178.64 142.66 178.8 141.66 179 140.46C179.2 139.26 179.35 138.23 179.34 138.16C179.32 138.09 179.18 138.31 179.02 138.64Z" />
		<path class="shp1" d="M94.72 157.36C94.26 157.4 93.5 157.51 93.04 157.6C92.58 157.69 91.71 157.93 91.12 158.13C90.53 158.32 89.5 158.75 88.84 159.08C88.18 159.4 87.32 159.87 86.92 160.12C86.52 160.37 85.87 160.82 85.46 161.11C85.06 161.4 84.73 161.65 84.74 161.66C84.75 161.67 85.19 161.54 85.72 161.36C86.25 161.18 87.11 160.92 87.64 160.79C88.17 160.66 89.1 160.46 89.72 160.36C90.34 160.26 91.33 160.13 91.92 160.09C92.51 160.04 93.43 160 93.96 160C94.49 160 95.35 160.04 95.88 160.08C96.41 160.13 97.29 160.24 97.84 160.33C98.39 160.42 99.25 160.6 99.76 160.72C100.27 160.85 101.02 161.06 101.44 161.2C101.86 161.34 102.6 161.62 103.08 161.81C103.56 162.01 104.41 162.4 104.96 162.67C105.51 162.94 106.36 163.42 106.84 163.72C107.32 164.02 108.05 164.51 108.45 164.8C108.86 165.08 109.56 165.63 110.01 166.01C110.47 166.39 111.21 167.04 111.66 167.47C112.11 167.89 112.48 168.2 112.48 168.16C112.48 168.12 112.25 167.75 111.97 167.34C111.69 166.93 111.22 166.29 110.92 165.92C110.62 165.55 110.03 164.85 109.61 164.37C109.19 163.89 108.39 163.08 107.84 162.57C107.29 162.07 106.44 161.36 105.96 161C105.48 160.64 104.81 160.17 104.48 159.96C104.15 159.75 103.56 159.4 103.16 159.19C102.76 158.98 102.04 158.65 101.56 158.46C101.08 158.26 100.36 158.01 99.96 157.9C99.56 157.79 99.06 157.66 98.84 157.61C98.62 157.56 98.17 157.49 97.84 157.45C97.51 157.4 96.86 157.35 96.4 157.33C95.94 157.31 95.18 157.33 94.72 157.36ZM72.82 159.18C72.63 159.26 72.33 159.45 72.14 159.61C71.95 159.76 71.65 160.09 71.47 160.33C71.29 160.57 70.98 161.14 70.78 161.6C70.58 162.06 70.31 162.8 70.17 163.24C70.04 163.68 69.84 164.4 69.73 164.84C69.62 165.28 69.47 165.96 69.4 166.36C69.33 166.76 69.2 167.49 69.12 168C69.04 168.51 68.91 169.42 68.84 170.04C68.75 170.78 68.72 171.39 68.75 171.84C68.78 172.21 68.86 172.95 68.93 173.48C68.99 174.01 69.15 174.98 69.28 175.64C69.41 176.3 69.64 177.29 69.8 177.84C69.96 178.39 70.24 179.22 70.41 179.68C70.58 180.14 71.01 181.1 71.35 181.8C71.7 182.5 72.23 183.44 72.52 183.88C72.82 184.32 73.33 185.02 73.66 185.44C73.99 185.86 74.63 186.56 75.08 187C75.52 187.44 76.23 188.07 76.64 188.41C77.06 188.75 77.76 189.26 78.2 189.56C78.64 189.85 79.61 190.39 80.36 190.76C81.11 191.13 82.15 191.57 82.68 191.75C83.21 191.92 83.87 192.13 84.16 192.2C84.45 192.27 84.74 192.34 84.82 192.36C84.9 192.38 84.96 192.37 84.96 192.34C84.96 192.31 84.59 192.08 84.14 191.84C83.69 191.61 82.98 191.19 82.56 190.93C82.14 190.67 81.46 190.2 81.04 189.89C80.62 189.59 80.05 189.14 79.76 188.89C79.47 188.65 78.99 188.22 78.69 187.93C78.39 187.64 77.85 187.06 77.49 186.64C77.12 186.22 76.63 185.61 76.39 185.28C76.14 184.95 75.75 184.37 75.52 184C75.28 183.63 74.83 182.78 74.51 182.12C74.19 181.46 73.76 180.43 73.56 179.84C73.36 179.25 73.07 178.26 72.92 177.64C72.77 177.02 72.59 176.14 72.53 175.68C72.46 175.22 72.36 174.34 72.31 173.72C72.25 173.02 72.24 171.91 72.27 170.76C72.29 169.75 72.37 168.45 72.44 167.88C72.51 167.31 72.62 166.52 72.68 166.12C72.75 165.72 72.91 164.9 73.05 164.28C73.18 163.66 73.45 162.6 73.64 161.92C73.84 161.24 74.08 160.46 74.19 160.2L74.39 159.72C73.99 159.32 73.75 159.17 73.6 159.12C73.45 159.08 73.28 159.04 73.24 159.04C73.2 159.05 73.01 159.11 72.82 159.18Z" />
	</g>
</svg>