<?xml version="1.0" encoding="utf-8"?>
<!-- Generator: Adobe Illustrator 15.0.0, SVG Export Plug-In . SVG Version: 6.00 Build 0)  -->
<!DOCTYPE svg PUBLIC "-//W3C//DTD SVG 1.1//EN" "http://www.w3.org/Graphics/SVG/1.1/DTD/svg11.dtd">
<svg version="1.1" id="Layer_1" xmlns="http://www.w3.org/2000/svg" xmlns:xlink="http://www.w3.org/1999/xlink" x="0px" y="0px"
	 width="316" height="316" viewBox="0 0 500 500" enable-background="new 0 0 500 500" xml:space="preserve">
<path fill="#FFD41C" d="M249.999,0c69.024,0,131.524,27.988,176.768,73.232C472.011,118.477,500,180.977,500,250
	s-27.989,131.523-73.233,176.767C381.523,472.011,319.023,500,249.999,500c-69.022,0-131.522-27.989-176.767-73.233
	C27.988,381.523,0,319.023,0,250S27.988,118.477,73.232,73.232C118.477,27.988,180.977,0,249.999,0z"/>
<path d="M249.999,5.943c134.766,0,244.057,109.291,244.057,244.057c0,134.765-109.292,244.056-244.057,244.056
	C115.234,494.056,5.944,384.765,5.944,250C5.944,115.234,115.234,5.943,249.999,5.943z"/>
<path fill="#FFD41C" d="M249.999,77.608c11.488,0,22.732,1.132,33.626,3.293c11.147,2.211,21.94,5.511,32.259,9.787
	c10.518,4.357,20.503,9.715,29.837,15.954c9.464,6.327,18.229,13.523,26.17,21.465c7.942,7.941,15.139,16.707,21.465,26.171
	c6.239,9.333,11.598,19.318,15.955,29.836c4.275,10.32,7.575,21.112,9.787,32.26c2.16,10.893,3.292,22.137,3.292,33.625
	c0,11.487-1.132,22.732-3.292,33.626c-2.211,11.146-5.511,21.939-9.787,32.259c-4.356,10.517-9.715,20.503-15.955,29.836
	c-6.327,9.465-13.523,18.23-21.465,26.171c-7.941,7.942-16.706,15.138-26.17,21.465c-9.333,6.239-19.319,11.597-29.837,15.955
	c-10.319,4.275-21.112,7.575-32.259,9.786c-10.894,2.16-22.138,3.292-33.626,3.292c-11.487,0-22.731-1.132-33.625-3.292
	c-11.148-2.21-21.939-5.51-32.26-9.786c-10.518-4.357-20.503-9.716-29.836-15.955c-9.464-6.328-18.23-13.523-26.171-21.465
	c-15.856-15.856-28.655-34.851-37.419-56.007c-4.275-10.32-7.576-21.113-9.787-32.259c-2.161-10.894-3.293-22.139-3.293-33.626
	c0-11.488,1.133-22.732,3.293-33.625c2.211-11.147,5.511-21.94,9.787-32.26c4.357-10.518,9.715-20.503,15.954-29.836
	c6.327-9.464,13.523-18.23,21.465-26.171c7.942-7.942,16.707-15.138,26.171-21.465c9.333-6.239,19.318-11.597,29.836-15.954
	c10.32-4.275,21.112-7.576,32.26-9.787C227.268,78.741,238.512,77.608,249.999,77.608z"/>
<path d="M249.999,82.193c22.695,0,44.362,4.524,64.149,12.722c20.564,8.52,39.05,20.982,54.502,36.435
	c15.452,15.452,27.914,33.937,36.435,54.502c8.196,19.787,12.72,41.454,12.72,64.148c0,22.695-4.524,44.361-12.72,64.148
	c-8.521,20.565-20.983,39.05-36.435,54.502c-15.452,15.453-33.938,27.915-54.502,36.435c-19.787,8.197-41.454,12.721-64.149,12.721
	c-22.693,0-44.36-4.524-64.147-12.721c-20.566-8.52-39.051-20.982-54.503-36.435c-15.452-15.452-27.915-33.937-36.435-54.502
	C86.717,294.361,82.193,272.695,82.193,250c0-22.694,4.524-44.361,12.721-64.148c8.52-20.565,20.982-39.051,36.435-54.502
	c15.452-15.453,33.937-27.915,54.503-36.435C205.639,86.717,227.306,82.193,249.999,82.193z"/>
<path fill="#ED1C24" d="M249.999,87.118c44.971,0,85.692,18.235,115.169,47.713c29.478,29.478,47.713,70.198,47.713,115.169
	c0,44.97-18.235,85.691-47.713,115.169c-29.477,29.478-70.198,47.713-115.169,47.713c-44.97,0-85.69-18.235-115.168-47.713
	C105.353,335.691,87.118,294.97,87.118,250c0-44.971,18.235-85.691,47.712-115.169C164.309,105.353,205.029,87.118,249.999,87.118z"
	/>
<path fill="#FFD41C" d="M249.999,93.061c86.661,0,156.938,70.278,156.938,156.939c0,86.66-70.278,156.938-156.938,156.938
	c-86.66,0-156.938-70.279-156.938-156.938C93.061,163.339,163.339,93.061,249.999,93.061z"/>
<path d="M252.895,353.755c-3.004-2.427-5.798-5.196-7.148-8.005c-0.744-1.548-1.282-2.922-1.183-4.199
	c0.411-5.299,3.664-9.586,6.27-15.018c2.341-4.152,3.164-4.539-1.701-3.819c-2.886,0.426-3.979,1.823-4.997,3.595
	c-1.263,2.199-5.359,13.648-5.359,17.205c0,13.243,11.728,17.252,11.648,24.798c-0.045,4.281-2.518,7.411-4.137,11.421
	c-0.883,2.189-0.935,4.801-0.122,6.362c2.801,5.379,4.212,6.767,5.123,4.511c0.25-0.618,0.461-1.563,0.92-2.682
	c1.312-3.195,3.824-9.471,4.891-10.861C266.997,364.164,259.615,359.18,252.895,353.755z"/>
<path d="M200.433,338.47c3.833-7.88,7.34-14.042,11.676-16.81c3.142-2.006,4.565-4.24,4.763-8.96c0.05-1.197-0.439-3.66-1.045-5.048
	c-0.51-1.168-1.168-1.176-2.483,1.793c-1.215,2.171-2.364,3.831-3.752,5.307c-4.193,4.459-8.87,6.417-11.13,11.483
	c-1.886,4.225-6.507,13.939-11.792,22.041c-2.909,4.461-6.517,7.966-10.651,9.983c-2.596,1.266-5.867,2.581-10.214,3.601
	c-1.491,0.35-2.276,0.694-0.321,2.214c1.655,1.287,5.09,3.283,7.52,3.271c3.669-0.018,7.537-1.471,9.678-2.575
	c1.965-1.014,1.857-0.924,1.887-0.481c0.089,1.316,0.126,5.607,0.209,7.016c0.14,2.354,1.696,3.893,3.458,5.594
	c1.46,1.409,2.655,2.076,2.431,0.267c-0.135-1.088-0.375-3.303-0.541-7.424c-0.171-4.25,0.78-9.425,1.755-12.054
	C194.101,351.702,196.605,346.341,200.433,338.47z"/>
<path d="M233.533,354.49c-2.184-2.961-2.613-5.095-2.701-6.999c-0.124-2.675,1.411-5.33,3.818-9.498
	c1.367-2.368,4.822-9,5.049-12.501c0.157-2.422-1.315-3.252-3.974-4.329c-1.708-0.692-2.826-1.195-2.788,0.327
	c0.069,2.737-1.051,8.163-2.266,10.931c-1.68,3.83-3.425,6.851-4.839,9.408c-2.527,4.574-4.214,7.569-4.123,10.37
	c0.095,2.905,1.362,4.928,3.51,8.513c3.436,5.735,7.511,8.006,10.324,13.929c0.361,0.759,0.947,2.767,1.138,4.681
	c0.219,2.199,0.511,4.08,0.702,4.901c0.123,0.53,0.748,2.481,1.138,4.132c0.599,2.538,1.935,2.553,1.997,0.603
	c0.104-2.847,0.268-6.499,0.596-9.307c0.166-1.413,0.48-2.875,0.646-4.287c0.496-4.242,2.773-8.344-1.206-12.414
	C239.333,361.703,234.307,355.624,233.533,354.49z"/>
<path d="M369.619,202.079c-7.466-0.04-9.521,2.365-20.926,2.343c-2.818-0.005-6.809-0.171-10.11-1.293
	c-8.41-2.856-15.871-6.61-18.827-7.653c-1.568-0.554-3.354-1.522-4.613-2.007c-1.57-0.603-2.286-0.673-1.821,1.316
	c0.279,1.189,0.574,2.595,0.827,3.92c0.25,1.313,0.651,1.819,1.466,2.318c6.362,3.897,10.723,7.437,15.624,10.283
	c3.109,1.806,6.227,3.599,12.111,3.665c10.689,0.119,17.563-3.742,26.147-3.649c7.229,0.079,13.304,3.851,17.296,8.781
	c0.38,0.468,1.957,2.862,2.688,2.853c0.471-0.005,0.786-0.53,0.502-3.172C388.51,206.089,380.682,202.238,369.619,202.079z"/>
<path d="M227.521,375.363c-1.718-1.923-3.724-2.58-5.063-4.102c-1.695-1.928-2.67-4.678-3.56-8.689
	c-0.196-0.882-0.373-2.258-0.629-3.704c-0.383-2.158-0.267-4.186-1.263-4.192c-0.559-0.003-0.848,1.021-1.16,3.681
	c-0.467,3.988-0.922,8.525-0.891,12.494c0.027,3.529,0.384,5.22,3.789,9.707c2.603,3.432,6.07,4.047,9.21,6.116
	c0.493,0.324,1.721,1.17,2.184,1.715c1.109,1.305,2.025,2.257,2.517,2.054c0.503-0.208,0.296-1.018-0.244-2.954
	C231.749,385.073,228.855,376.857,227.521,375.363z"/>
<path d="M187.461,329.098c2.325-6.343,1.757-11.352,2.508-17.105c1.438-11.005,2.499-16.899,9.772-22.396
	c2.68-2.026,4.462-1.837,6.613-3.761c0.723-0.648,0.834-2.625,0.88-3.625c0.272-6.013,1.864-9.878-3.779-2.955
	c-3.585,4.201-10.156,7.227-14.446,10.199c-5.598,3.878-8.615,8.049-10.195,13.384c-1.293,4.363-1.364,9.577-1.945,16.016
	c-1.674,18.521-11.564,29.354-20.682,36.325c-1.763,1.348-1.398,2.017,0.388,2.086c3.078,0.12,9.355-1.78,10.554-2.362
	C176.792,350.216,183.344,340.335,187.461,329.098z"/>
<path d="M152.004,313.876c1.83-1.972,2.415-6.143,2.415-8.671c0-4.829,0.586-8.397,1.929-12.946c0.854-2.889,2.664-7.066,3.53-8.746
	c0.746-1.447,0.676-1.417,0.208-1.699c-0.749-0.45-1.458,0.98-1.679,1.284c-5.029,7.234-10.701,16.343-16.833,19.822
	c-8.162,4.628-17.127,4.886-21.039,3.438c-0.986-0.365-1.22,0.697-0.402,1.7c1.775,2.176,5.795,4.92,8.01,5.718
	c2.993,1.078,7.644-0.225,10.867-1.341c5.348-1.854,4.253-2.028,1.77,0.922c-1.458,1.732-9.094,8.493-8.612,18.234
	c0.089,4.527,4.545,10.06,6.056,11.634c1.899,1.976,1.987,0.279,1.698-1.718c-0.18-1.249-0.335-2.771-0.335-3.651
	c0-7.534,0.306-9.895,4.295-14.962C144.911,321.585,150.479,315.779,152.004,313.876z"/>
<path d="M110.705,230.334c2.383,2.57,5.07,4.358,7.433,5.629c4.465,2.4,9.873,3.944,16.137,3.968
	c11.087,0.042,22.093-6.25,30.962-6.969c6.07-0.493,19.972-1.639,29.785-1.123c2.9,0.144,3.933,0.046,3.979-2.055
	c0.033-1.486-0.691-1.812-1.759-2.448c-2.266-1.35-3.168-2.027-8.645-2.801c-5.928-0.839-11.625-1.737-18.729-1.937
	c-5.463-0.152-12.052,1.048-16.708,2.667c-7.432,2.583-17.388,7.051-23.183,6.812c-8.113-0.335-18.288-5.412-21.435-9.244
	c-0.615-0.75-0.718-1.065-1.373-0.993c-0.512,0.056-0.465,0.668-0.317,1.748C107.091,225.333,108.518,227.978,110.705,230.334z"/>
<path d="M118.35,255.45c2.541-0.096,3.752-0.219,7.238-1.887c2.368-1.134,6.746-3.874,8.609-4.732
	c1.357-0.626,4.601-1.771,4.487-2.722c-0.071-0.594-0.988-0.543-3.055-0.5c-3.867,0.037-8.134-0.17-11.821-0.278
	c-5.313-0.156-13.524-2.592-17.927-4.732c-1.022-0.497-1.146,0.246-0.938,1.305c0.747,3.789,4.514,8.892,4.974,9.433
	C112.298,254.131,115.184,255.569,118.35,255.45z"/>
<path d="M150.542,282.562c2.484-5.185,6.523-10.109,11.247-11.48c5.238-1.523,14.124-2.185,21.803-3.607
	c1.89-0.35,3.787-1.327,5.083-1.975c2.774-1.386,7.327-5.252,8.815-6.535c0.455-0.393-0.381-0.531-0.381-3.084
	c0-0.556-0.062-1.213-0.055-1.995c0.025-3.002-0.237-3.182-2.43-1.028c-3.443,3.139-6.734,5.031-10.034,6.157
	c-4.058,1.384-7.876,1.499-10.989,1.642c-12.356,0.569-25.504,3.958-32.017,14.155c-4.176,6.538-10.372,11.855-15.994,13.643
	c-2.224,0.708-7.715,1.976-13.268,2.063c-0.949,0.015-1.016,0.975-0.382,1.34c1.459,0.841,4.485,2.381,5.434,2.75
	c4.356,1.695,8.089,2.48,11.363,2.473C138.596,297.059,147.088,289.776,150.542,282.562z"/>
<path d="M117.565,280.3c2.82,0.014,7.195-1.198,10.893-5.131c10.349-11.009,18.62-18.427,31.459-21.956
	c4.147-1.14,9.223-0.182,13.699-0.147c8.761,0.067,14.577-1.744,20.5-5.45c4.739-2.964,3.728-4.305,4.703-7.62
	c1.781-6.059-1.168-2.809-6.472-0.497c-9.477,4.213-19.88,1.371-27.969,1.546c-9.95,0.216-15.766,3.225-21.598,7.684
	c-4.082,3.12-8.261,8.08-13.732,12.133c-5.86,4.341-13.138,7.638-21.456,7.798c-0.853,0.017-1.948-0.15-0.697,1.985
	C108.926,274.112,112.346,280.276,117.565,280.3z"/>
<path d="M363.015,294.407c-2.875-1.131-10.715-3.065-14.709-3.794c-1.147-0.209-1.746-0.284-1.96,0.192
	c-0.228,0.505,0.022,0.775,0.702,1.254c2.408,1.699,4.899,3.156,7.457,5.389c2.385,2.082,4.888,4.336,6.91,6.881
	c1.241,1.562,2.34,2.989,2.87,4.503c1.45,4.157,1.785,7.442,1.793,8.164c0,3.414,0.969,6.174,3.526,7.916
	c0.516,0.352,1.202,0.937,1.761,0.593c0.458-0.281,0.452-0.887,0.077-1.568c-0.348-0.633,0.013-2.436,0.531-3.798
	c0.637-1.673,1.868-4.247,2.335-5.288c1.052-2.339,1.459-4.474,1.399-6.487C375.521,302.124,370.432,297.324,363.015,294.407z"/>
<path d="M135.405,222.051c9.039,0.032,20.329-2.028,23.296-2.497c0.624-0.067,1.916-0.115,2.8-0.104
	c0.7,0.008,1.015-0.593,0.158-1.16c-1.648-1.088-4.307-1.996-5.996-2.628c-2.322-0.869-7.238-1.929-12.4-1.71
	c-4.113,0.174-7.757,0.435-10.357,0.157c-4.782-0.51-8.018-3.509-12.272-9.385c-0.786-1.087-2.706-3.889-4.029-5.967
	c-1.565-2.456-2.479-3.951-2.691-0.874c-0.198,2.873-0.461,6.395-0.547,9.555c-0.087,3.209,1.859,6.183,3.4,8.164
	C120.606,220.74,127.115,222.022,135.405,222.051z"/>
<path d="M380.621,277.722c-1.778-0.365-10.017-1.614-12.534-2.167c-7.793-1.709-13.01-7.795-15.66-10.151
	c-0.393-0.35-0.838-0.423-1.087-0.28c-0.387,0.222-0.402,0.976,0.193,2.081c1.491,2.766,5.41,7.58,6.531,8.986
	c1.246,1.564,2.97,2.936,5.153,4.391c1.239,0.825,2.656,1.647,4.143,2.623c4.428,2.905,9.199,5.856,10.39,8.854
	c0.559,1.406,1.366,3.013,1.749,4.166c0.573,1.723,1.72,5.078,1.915,5.868c0.546,2.226,1.86,0.236,2.938-1.411
	c3.217-4.657,4.588-9.016,4.526-12.459C388.792,283.495,388.102,279.261,380.621,277.722z"/>
<path d="M386.55,251.141c-1.933-0.42-10.294-3.791-14.931-6.507c-3.292-1.928-7.053-4.312-9.486-7.429
	c-4.364-5.593-10.028-10.496-16.794-12.657c-4.28-1.366-12.345-3.151-16.402-5.15c-4.193-2.065-7.247-8.918-11.19-10.873
	c-0.901-0.446-1.82-1.226-1.886,1.035c-0.029,1.008-0.15,2.459-0.103,4.029c0.045,1.468-0.962,3.897-0.68,5.527
	c0.513,2.964,1.402,4.91,4.713,6.905c1.667,1.005,3.59,1.818,5.951,2.497c5.933,1.707,10.582,1.911,14.927,2.671
	c3.112,0.544,6.202,1.519,8.871,2.864c7.95,4.008,12.63,12.067,21.461,19.87c2.911,2.571,6.198,3.577,9.828,5.301
	c2.714,1.288,5.336,3.222,7.549,4.923c0.474,0.364,1.863,2.034,2.765,3.156c1.122,1.398,2.159,2.423,2.198-3.043
	c0.01-1.381,0.208-3.552-0.081-5.301C392.614,255.054,390.568,251.974,386.55,251.141z"/>
<path d="M357.031,312.276c-4.659-9.133-8.774-13.393-13.367-16.415c-2.483-1.635-5.582-3.596-9.189-4.574
	c-4.089-1.109-8.746-1.054-15.993-1.028c-7.807,0.027-16.542-6.557-21.357-10.877c-0.995-0.893-3.302-3.571-4.405-4.481
	c-0.5-0.413-1.499-0.123-1.187,1.058c0.167,0.63,0.319,1.539,0.339,2.423c0.017,0.756-0.112,1.501-0.112,2.09
	c0,2.084,0.678,3.558,2.708,4.854c4.768,3.045,10.461,6.557,16.659,9.303c5.99,2.654,12.302,4.403,16.388,5.407
	c8.826,2.169,16.559,5.386,21.89,11.586c2.438,2.837,4.776,6.34,6.311,10.294c2.119,5.461,3.267,11.475,3.429,17.171
	c0.099,2.73,0.737,3.849,1.345,3.873c0.643,0.026,0.832-0.782,1.037-2.075c0.506-3.174,3.018-8.109,3.111-10.468
	c0.115-2.887-2.239-5.089-3.903-8.96C359.379,318.309,357.998,314.175,357.031,312.276z"/>
<path d="M393.6,235.984c-1.563-2.691-3.054-4.734-5.789-6.882c-3.799-2.875-11.6,1.124-15.817-3.726
	c-4.388-5.047-7.162-7.542-13.995-7.443c-1.738,0.025-9.829,0.152-9.213,1.755c0.373,0.968,3.785,1.867,7.945,4.334
	c2.498,1.482,5.384,3.327,6.423,4.366c0.944,0.977,1.478,2.402,2.7,3.505c1.262,1.138,3.251,1.844,5.561,2.242
	c1.492,0.256,3.891,0.895,5.62,1.372c2.887,0.797,5.582,2.813,8.28,4.931c3.14,2.465,6.187,4.973,8.389,6.678
	c1.435,1.177,1.564,0.364,1.547-1.141C395.222,243.281,395.075,238.525,393.6,235.984z"/>
<path d="M350.004,340.178c0.005-3.495,1.441-5.583,1.476-11.456c0.013-2.035-0.611-4.458-1.705-6.551
	c-2.432-4.648-6.73-8.733-9.002-10.793c-1.531-1.387-3.008-3.262-5.339-4.603c-0.382-0.221-1.24,0.489-0.627,1.369
	c0.985,1.417,3.441,4.311,4.975,7.091c1.085,1.97,1.432,4.193,1.537,4.723c0.588,2.967,1.219,7.283,1.308,10.744
	c0.077,2.932,0.133,6.081,0.185,9.15c0.043,2.492,0.707,5.324,1.372,6.933c0.851,2.055,2.724,4.35,6.174,4.698
	c1.284,0.129,2.694-0.041,3.958-0.348c1.916-0.468,1.277-1.08,0.506-2.015C351.819,345.207,350,342.972,350.004,340.178z"/>
<path d="M284.524,372.877c1.108-2.455,3.02-7.474,3.738-10.006c0.721-2.548,1.655-4.793,1.89-7.071
	c0.14-1.349,0.228-3.603,0.092-4.822c-0.592-5.291-4.763-9.196-8.944-14.268c-3.207-3.756-6.457-9.026-6.55-12.994
	c-0.028-1.214,0.324-3.243,0.324-4.724c0-2.324,2.42-4.659,2.816-6.391c0.286-1.257,0.755-2.781,0.953-3.711
	c0.354-1.664,0.653-2.542,1.139-3.631c0.431-0.967,1.665-1.799,3.055-2.493c1.406-0.704,2.64-1.289,3.335-1.61
	c1.704-0.789-0.787-3.31-2.336-3.214c-1.044,0.063-2.354,0.391-3.76,0.754c-2.111,0.543-6.002,0.748-8.681,0.464
	c-4.794-0.509-13.671-1.06-18.233-6.852c-0.921-1.157-1.506-1.626-1.789-2.492c-0.179-0.555-0.32-1.251-0.3-2.444
	c0.034-2.087-0.223-2.542,1.107-3.245c2.584-1.363,5.438-3.83,10.1-6.194c7.05-3.576,7.025-5.917,3.623-7.427
	c-0.642-0.286-0.468-2.31-2.387-2.68c-3.561-0.686-5.193,1.479-13.227,0.592c-1.334-0.147-5.509,0.326-7.581,0.211
	c-2.283-0.126-4.5-1.095-6.731-0.969c-1.232,0.07-2.179,1.497-2.669,2.564c-0.559,1.216-2.021,0.491-2.461,2.399
	c-0.162,0.705,0.405,1.43,0.951,1.971c3.383,3.354,12.51,7.342,15.862,10.12c0.374,0.31,0.314,1.383,0.321,2.276
	c0.006,0.953-0.024,1.859-0.044,2.379c-0.021,0.508-3.34,5.632-7.535,7.182c-6.499,2.404-12.953,2.679-16.483,2.679
	c-3.192,0-4.972-0.739-8.366-1.277c-1.957-0.309-4.381,2.646-2.754,3.23c7.639,2.743,7.047,5.415,7.687,7.802
	c1.056,3.943,1.12,7.7-0.146,11.466c-1.601,4.761-6.621,6.444-9.538,11.355c-3.937,5.832-7.208,19.305-10.126,27.056
	c-1.227,3.259-3.265,10.934-0.438,15.736c1.822,3.093,3.875,5.661,7.059,8.673c1.99,1.884,3.488,2.788,4.042,2.502
	c0.512-0.265,0.469-0.584,0.045-1.364c-2.539-4.376-4.36-12.969-2.784-23.317c0.619-4.06,1.544-8.49,3.142-12.589
	c1.891-4.849,5.31-9.754,8.588-13.097c3.872-3.95,7.17-8.113,7.301-13.072c0.278-10.565-2.68-11.453-2.601-14.515
	c0.066-2.57,3.703-3.603,6.899-4.84c6.169-2.387,14.177-4.821,17.508-4.823c3.617-0.002,13.529,3.044,21.447,6.284
	c1.86,0.762,3.51,2.337,3.58,4.399c0.085,2.541-2.247,6.041-5.713,8.833c-1.296,1.043-2.887,2.195-3.276,3.646
	c-0.89,3.305-0.225,7.121,1.487,10.715c0.937,1.968,2.24,3.818,3.653,5.604c2.562,3.236,5.054,5.933,7.245,8.754
	c3.012,3.88,4.88,7.166,4.792,10.689c-0.053,2.156-0.117,3.117-1.287,6.635c-0.683,2.054-0.161,4.322,0.354,6.844
	C282.562,373.715,283.492,375.833,284.524,372.877z"/>
<path d="M266.293,344.856c-3.332-3.787-6.596-7.148-6.596-10.115c0-2.569-0.035-6.331,1.71-10.523
	c0.235-0.567,0.664-2.024-0.16-2.346c-0.589-0.229-2.192,0.253-2.966,0.233c-0.481-0.013-1.08-0.189-1.58-0.068
	c-0.937,0.227-1.284,0.927-1.292,3.087c-0.029,1.698-2.134,6.517-2.163,13.574c-0.022,5.342,2.737,8.004,5.222,11.47
	c3.113,4.344,8.32,8.825,8.667,15.081c0.396,7.151-2.224,17.293-5.451,24.132c-1.276,2.706-0.032,3.44,2.292,2.944
	c5.241-1.12,8.615-3.956,9.869-8.355c2.927-10.261,3.923-23.049-2.03-31.702C270.24,349.978,268.292,347.127,266.293,344.856z"/>
<path d="M307.815,347.184c-0.116-2.561-1.479-6.821-3.537-10.046c-3.518-5.511-9.204-11.425-12.672-16.592
	c-2.923-4.356-4.958-9.662-7.223-13.995c-0.522-0.999-1.115-0.459-1.334,0.011c-0.589,1.26-1.242,4.86-1.156,8.316
	c0.08,3.231,1.047,6.728,2.333,9.972c1.746,4.402,5.391,8.026,7.996,12.151c3.342,5.293,6.079,9.336,5.954,16.357
	c-0.083,4.636-1.319,9.386-3.935,14.284c-3.849,7.207-8.51,13.575-10.245,15.708c-0.994,1.223-1.277,1.697-1.002,2.171
	c0.31,0.531,1.234,0.068,1.823-0.256c2.585-1.424,8.721-4.508,12.079-7.416c1.52-1.316,2.683-3.061,3.265-4.403
	c0.557-1.287,0.662-0.78,1.323,0.224c1.235,1.872,4.12,4.966,4.256,5.134c0.698,0.85,1.306,1,1.65,0.73
	c0.341-0.268,0.268-0.863,0.036-1.378c-0.995-2.201-1.638-4.538-2.004-5.845c-0.637-2.179-1-5.481-0.984-7.269
	c0.041-4.494,1.87-6.775,2.923-11.158C307.948,351.432,307.883,348.649,307.815,347.184z"/>
<path d="M322.883,331.454c-0.011-5.572-1.546-9.609-9.05-13.497c-3.372-1.746-11.627-5.083-14.931-8.665
	c-1.975-2.14-3.616-5.708-5.061-8.956c-1.239-2.787-2.322-5.363-3.011-6.7c-1.214-2.355-1.716,0.415-3.9,3.285
	c-1.619,2.128,0.038,2.122,1.159,3.683c1.834,2.553,3.151,5.924,4.53,9.183c1.245,2.945,2.341,5.261,4.006,7.294
	c2.298,2.806,5.689,4.952,11.201,8.479c1.479,0.946,3.696,3.207,4.413,5.257c1.843,5.269,0.347,13.44,0.262,20.374
	c-0.062,5.048,1.498,7.473,1.584,11.291c0.084,3.722-1.187,5.39,0.373,10.007c1.582,3.772,3.017,3.356,3.996,1.684
	c0.754-1.289,1.584-3.007,2.277-4.498c0.708-1.522,1.12-2.447,1.148-4.397c0.056-3.949-2.409-5.085-2.323-15.308
	C319.606,344.148,322.902,340.252,322.883,331.454z"/>
<path d="M334.586,343.174c-0.115-2.414,0.406-4.479,0.646-5.34c0.921-3.315,1.569-7.237,1.567-10.561
	c-0.004-11.682-13.001-19.754-23.994-24.806c-1.624-0.747-3.191-1.321-4.621-2.029c-1.877-0.929-3.568-2.034-5.318-3.517
	c-2.573-2.18-7.968-7.52-10.008-9.552c-0.512-0.51-0.937-0.388-1.219,0.236c-0.21,0.463-0.583,2.051-0.776,2.808
	c-0.2,0.775,0.245,0.936,1.001,1.68c1.709,1.679,3.231,3.182,4.471,4.441c3.792,3.847,7.712,7.704,12.046,10.911
	c3.039,2.247,7.274,3.774,10.528,5.659c2.756,1.597,4.316,2.666,6.387,4.903c2.006,2.167,3.15,5.957,3.175,9.465
	c0.046,6.804-2.895,14.44-2.979,22.584c-0.063,6.041,2.75,11.57,6.977,15.39c2.305,2.254,2.559,0.498,3.062-0.5
	c0.95-1.884,2.19-4.381,3.184-7.749c0.473-1.606-0.093-2.897-0.917-4.255C335.948,349.896,334.732,346.243,334.586,343.174z"/>
<path d="M168.186,320.109c1.002-5.95,1.602-18.158,5.447-27.374c1.787-4.283,4.431-7.843,7.861-9.966
	c4.759-2.949,14.419-3.33,20.646-8.682c1.732-1.489,3.521-3.251,2.809-5.346c-0.258-0.76-1.69-3.246-4.676-5.152
	c-0.748-0.477-0.863-0.635-1.715,0.606c-6.02,8.774-17.881,10.848-24.424,12.683c-7.63,2.14-10.477,8.385-11.797,16.336
	c-1.302,7.843-1.029,13.849-2.94,25.518c-1.31,8.002-6.897,19.831-12.563,21.483c-1.027,0.237-1.463,0.363-1.446,1.017
	c0.006,0.224,0.139,0.431,0.448,0.58c0.439,0.233,2.702,1.259,5.999,1.268c2.971,0.01,6.332-1.088,8.025-2.781
	C165.884,334.275,166.983,327.247,168.186,320.109z"/>
<path d="M271.294,236.65c6.634,5.096,12.349-1.169,14.348-5.917c1.954,0.639,3.439,0.273,2.913-1.75
	c-0.422-1.62-10.31-2.209-11.066-2.189c-4.262,0.113-7.952,2.418-10.38,5.53c-0.547-0.12-2.925-1.15-3.371-1.377
	c-0.554-0.281-1.37-0.861-2.221-0.861c-0.814,0-1.313,0.625-1.413,1.074c-0.178,0.801,0.657,1.85,1.183,2.677
	c0.525,0.826,0.889,1.779,1.328,3.022c0.714,2.023,0.894,3.144,1.461,4.961c0.675,2.165,0.935,3.673,1.468,5.982
	c0.274,1.081,1.082,1.45,1.616,1.437c1.172-0.032,1.569-1.19,1.429-2.248c-0.25-1.892-0.566-4.173-0.566-6.014
	c0-1.942,0.115-4.076,0.42-5.068C268.886,234.474,269.35,235.157,271.294,236.65z"/>
<path d="M321.119,156.85c-1.16,0.507-2.372,1.385-7.236,2.213c-4.796,0.815-9.899-0.109-12.758,0.821
	c-8.208,2.757-10.324,6.485-12.724,10.243c-3.83,6-2.67,14.46-2.386,20.532c-0.036,1.553,1.674,2.493,1.791,0.373
	c0.275-4.974,2.644-12.851,5.685-16.89c2.049-2.723,4.336-4.125,7.988-4.646c4.816-0.687,9.013-0.988,12.109-2.589
	c3.041-1.573,4.309-3.76,13.725-6.223c3.089-0.808,7.969-1.661,11.839-1.671c3.871-0.011,7.326,0.577,10.044,1.071
	c2.165,0.393,9.355,2.639,9.947,3.062c0.929,0.662,2.215,0.494,0.895-1.498c-0.793-1.195-2.413-3.572-3.799-4.912
	c-3.259-3.152-10.686-5.599-17.192-5.584C328.449,151.177,327.663,153.987,321.119,156.85z"/>
<path d="M289.261,148.565c-0.503,0.374-1.329,0.914-1.854,1.429c-4.202,4.116-8.737,12.291-12.472,18.623
	c-1.982,3.36-4.844,5.787-4.748,9.526c0.093,3.615,2.695,7.022,3.065,10.91c0.124,1.291-0.04,2.495-0.802,5.445
	c-0.542,1.549,0.409,1.854,2.272,0.88c2.305-1.203,4.013-1.956,4.311-11.366c0.335-10.638,1.192-10.603,5.967-18.838
	c1.419-2.448,3.441-4.679,4.672-6.347c3.994-5.409,6.953-6.868,13.871-6.742c2.447,0.044,4.815,0.129,7.239,0.135
	c3.697,0.007,7.285-0.943,11.021-3.734c3.323-2.481,6.908-5.454,12.511-5.285c2.735,0.082,5.776,0.965,8.384,1.972
	c0.981,0.378,2.255,1.001,2.853,1.37c4.187,2.577,2.589-1.45-0.609-5.418c-1.945-2.413-4.686-6.693-11.11-6.67
	c-1.482,0.006-3.405,0.428-5.281,0.941c-3.889,1.064-9.591,5.607-15.536,6.994C302.866,144.755,293.229,145.609,289.261,148.565z"/>
<path d="M349.039,169.665c-3.301-0.828-6.444-2.379-9.626-3.161c-2.931-0.719-9.326,0.179-14.268,0.915
	c-3.277,0.489-6.123,1.565-9.661,2.509c-1.408,0.376-1.093,1.581,0.036,1.623c1.125,0.042,3.328,0.121,5.937,0.184
	c3.506,0.085,7.022,0.763,9.61,1.855c4.612,1.949,7.507,4.921,14.698,4.856c6.086,0.076,12.696-2.979,16.923-7.149
	c2.486-2.454,2.36-3.429,0.233-2.933c-0.975,0.227-2.489,0.531-4.838,1.078C356.299,169.858,351.043,170.167,349.039,169.665z"/>
<path d="M297.851,133.704c-0.756,0.741-1.749,1.711-2.629,2.414c-1.404,1.124-2.448,2.4-3.781,3.621
	c-0.467,0.428-0.215,1.194,0.387,1.194c1.22,0,1.668-0.528,2.883-0.876c1.775-0.507,2.584-1.441,6.882-2.051
	c3.232-0.458,6.032-1.084,8.658-1.863c2.627-0.779,5.082-1.712,7.586-3.463c3.641-2.548,0.345-5.504-0.934-7.238
	c-1.74-2.361-7.274-7.626-8.241-3.247c-0.917,4.147-3.27,5.206-5.946,7.239C301.023,130.718,299.537,132.05,297.851,133.704z"/>
<path d="M365.661,197.005l4.054,0.095c2.968,0.069,6.108-0.781,9.129-0.467c1.537,0.159,3.821,1.124,5.181,1.602
	c0.707,0.248,0.997-0.578,0.526-1.618c-0.66-1.457-1.865-3.118-2.513-4.073c-1.816-2.679-4.945-3.642-6.989-1.491
	c-2.879,3.03-8.207,3.792-9.527,4.15C363.613,195.592,363.947,196.964,365.661,197.005z"/>
<path d="M321.269,273.145c-4.211-0.007-7.869-0.981-11.664-3.81c-3.042-2.268-4.763-3.924-6.652-6.541
	c-1.179-1.632-1.21-2.257-2.518-0.977c-0.77,0.751-3.98,3.627-5.302,5.308c-1.069,1.36-0.302,2.31,0.973,3.517
	c2.503,2.367,7.689,5.475,11.434,8.291c4.463,3.356,8.293,6.182,14.176,6.139c7.039-0.051,9.366-2.198,16.425-2.262
	c7.239-0.066,14.972,2.61,20.652,4.926c1.856,0.771,5.515,2.824,5.792,1.669c0.195-0.814-0.337-1.156-1.316-2.454
	c-0.474-0.629-4.939-5.331-8.631-8.172c-5.113-3.936-8.961-6.739-16.903-6.954C334.094,271.729,326.483,273.153,321.269,273.145z"/>
<path d="M362.595,264.057c2.018,1.779,4.297,3.275,5.334,3.981c2.068,1.409,8.854,4.571,17.397,4.972
	c2.02,0.095,2.934,0.151,3.13-0.615c0.101-0.395-0.396-0.782-1.526-1.219c-2.777-1.074-7.271-3.463-9.933-4.931
	c-3.635-2.004-7.052-4.731-10.1-7.518c-4.914-4.493-9.562-9.983-20.106-8.983c-6.88,0.652-14.977,6.19-22.204,6.266
	c-6.472,0.067-11.819-3.672-17.299-9.022c-2.556-2.495-3.492-3.681-4.383-4.678c-0.587-0.657-0.884-1.005-1.425-0.735
	c-1,0.5,0.601,4.011,1.098,9.416c0.624,6.769,1.836,7.43,7.192,11.246c5.127,3.655,11.269,4.507,14.995,4.516
	c5.384,0.012,16.101-4.842,24.305-6.206C356.135,259.372,359.314,261.166,362.595,264.057z"/>
<path d="M262.626,152.729c-5.399,6.022-6.746,11.863-5.322,19.938c0.747,4.235,1.439,8.584,0.978,12.86
	c-0.252,2.323-0.984,4.577-1.457,6.457c-0.417,1.659-0.668,2.309,1.421,1.799c1.587-0.387,2.874,0.209,4.068,0.524
	c1.225,0.324,2.171,0.573,2.616,0.333c0.537-0.291,0.197-1.288-0.298-4.219c-0.786-4.658-1.897-8.826-1.793-14.139
	c0.062-3.125,1.02-7.203,2.327-9.495c3.418-5.991,6.322-10.448,16.076-18.182c2.767-2.193,4.875-6.916,5.323-11.275
	c0.414-4.024,2.484-7.067,3.629-8.938c1.563-2.55,4.798-5.52,7.431-7.419c1.783-1.288,3.195-2.366,5.49-3.396
	c0.525-0.236,1.061-1.049-0.029-1.627c-0.613-0.326-1.844-0.849-2.607-1.225c-8.767-4.292-12.989-1.538-15.986,3.478
	c-2.335,3.906-3.779,9.179-4.666,13.795c-0.833,4.341-2.19,8.568-5.07,11.832C270.874,148.23,265.463,149.565,262.626,152.729z"/>
<path d="M349.393,241.435c-6.697-1.686-13.498-3.617-17.542-3.905c-11.118-0.792-17.703-5.086-22.027-12.761
	c-0.111-0.196-0.339-1.035-1.062-0.707c-1.276,0.58-3.924,1.712-5.973,2.738c-1.332,0.668-1.92,0.646-2.477,2.499
	c-0.445,1.484-0.14,2.156,1.527,3.518c3.979,3.253,8.227,4.028,12.289,7.42c4.424,3.693,6.7,6.145,13.487,6.145
	c5.854,0,8.912-1.875,13.308-2.763c2.096-0.423,4.506-0.716,6.762-0.556c2.18,0.155,3.777,0.411,3.854-0.389
	C351.615,241.863,351.008,241.797,349.393,241.435z"/>
<path d="M342.823,186.987c-6.831-0.24-13.361-3.176-18.847-6.102c-4.659-2.484-8.134-4.885-13.817-4.885
	c-3.897-0.04-12.039,1.283-15.659,6.755c-1.29,1.948-1,2.292,0.499,2.209c1.394-0.077,3.842,0.008,5.607,0.003
	c3.754-0.01,5.036,3.126,6.175,3.124c1.092-0.002,0.881-2.18,3.409-2.612c1.808-0.308,4.956,0.089,8.274,1.675
	c1.761,0.842,7.901,3.328,10.448,4.325c4.735,2.066,11.95,3.989,17.11,3.989c6.361,0,16.345-4.155,19.855-6.814
	c2.288-1.733,4.971-5.172,5.957-10.008c0.271-1.333,0.447-2.304,0.457-4.51c0.003-0.791-0.038-1.267-0.467-1.292
	c-1.01-0.058-2.002,2.15-2.207,2.53C365.499,182.206,358.403,187.534,342.823,186.987z"/>
<path d="M142.183,207.213c2.793,0.236,6.503,1.159,9.115,2.115c6.005,2.199,9.308,2.937,19.717,6.592
	c2.444,0.857,11.271,5.338,12.568,4.154c0.458-0.418,0.794-0.46,0.863-1.524c0.041-0.634-0.236-1.729-0.252-2.347
	c-0.023-0.892-0.153-1.701-0.162-2.385c-0.044-3.111-1.376-1.584-3.174-1.239c-5.048,0.635-9.548-3.928-14.208-7.258
	c-2.233-1.596-7.327-4.466-9.525-5.565c-3.747-1.874-6.151-2.625-11.474-4.258c-0.548-0.188-2.264-0.464-3.86-0.78
	c-5.334-1.056-9.334-3.764-11.103-5.245c-4.886-4.094-4.406-5.734-5.882-6.458c-0.606-0.297-0.785,0.372-1.237,1.303
	c-0.604,1.245-1.729,3.683-1.729,7.313c0,4.676,1.841,7.531,3.855,9.834C129.75,206.103,135.369,206.638,142.183,207.213z"/>
<path d="M194.837,184.731c1.022,0.654,0.885,0.922,3.455,0.647c4.893-0.523,6.072,0.139,8.129,1.363
	c2.401,1.429,6.945,4.826,8.987,6.902c1.939,2.144,3.034,1.338,2.195-1.238c-0.467-1.434-1.023-3.588-2.271-5.425
	c-2.608-3.84-3.031-5.087-9.566-8.157c-4.07-1.912-8.196-2.451-11.596-4.994c-6.823-5.103-10.188-10.38-12.101-16.316
	c-1.903-5.909-2.137-12.106-1.455-18.696c0.358-3.46,2.721-13.208,4.654-17.467c0.596-1.313-0.736-1.39-1-1.105
	c-2.139,2.311-4.752,6.086-6.159,8.126c-4.942,7.172-7.584,14.939-7.635,22.868c-0.048,7.653,1.492,14.17,7.624,20.379
	C183.746,177.338,190.092,181.689,194.837,184.731z"/>
<path d="M193.177,162.329c3.08,3.889,8.396,8.005,14.197,10.977c3.406,1.669,8.129,3.665,10.977,4.693
	c3.325,1.2,5.324,1.523,7.119,4.396c1.321,2.114,1.72,4.961,1.72,8.082c0.158,2.913,1.756,4.693,4.225,4.642
	c1.472-0.03,2.312,0.003,2.325-0.748c0.021-1.247-0.616-3.519-0.725-4.949c-0.457-5.96-3.692-12.529-6.423-17.16
	c-3.423-5.804-8.603-8.07-13.939-10.896c-2.837-1.503-5.808-3.329-8.59-5.128c-3.696-2.39-6.323-5.753-8.727-9.749
	c-1.016-1.688-2.056-3.439-3.016-5.357c-1.564-3.128-1.982-5.594-3.172-5.595c-0.496,0-0.745,0.774-1.103,2.71
	c-0.826,4.459-0.63,9.909,0.371,14.356C189.396,156.951,191.549,160.272,193.177,162.329z"/>
<path d="M161.027,180.701c5.129,4.033,9.793,5.409,12.748,7.77c4.059,3.242,5.805,9.213,7.878,13.542
	c0.88,1.975,1.829,3.021,2.295,2.952c0.999-0.149,0.908-3.225,1.058-5.295c0.302-4.18,0.339-5.979,1.961-6.904
	c1.558-0.89,1.016-1.578,0.803-2.023c-5.191-10.83-12.705-13.609-19.286-18.882c-3.773-3.023-5.403-8.087-6.329-13.308
	c-1.055-5.951-1.685-11.879-1.721-18.559c-0.04-7.365-1.937-2.714-3.433,0.396c-2.803,5.829-5.935,20.424-4.177,27.891
	C154.349,174.746,157.103,177.615,161.027,180.701z"/>
<path d="M204.938,146.492c3.523,3.213,7.459,6.429,11.424,9.618l3.857,3.102c1.639,1.317,2.867,0.544,1.248-1.252
	c-1.16-1.391-2.698-2.998-3.952-4.439c-1.11-1.276-4.35-4.9-7.808-8.766c-1.516-1.695-3.595-5.528-4.412-7.335
	c-1.833-3.784-1.861-7.905-0.941-12.075c0.679-3.078,1.793-6.273,3.219-8.364c1.652-2.421,1.858-3.457,1.383-3.731
	c-1.018-0.59-5.071,2.049-7.468,3.467c-4.077,2.413-6.235,8.579-6.177,12.742C195.394,135.352,199.367,141.412,204.938,146.492z"/>
<path d="M139.512,186.286c2.87,2.267,6.541,3.674,9.744,4.737c6.875,2.283,12.34,3.614,16.548,5.14
	c1.635,0.593,5.428,3.117,8.65,6.348c1.876,1.88,3.77,2.298,2.611-0.713c-0.443-1.153-1.672-3.388-2.09-4.82
	c-1.032-3.542-3.791-7.19-9.688-9.818c-2.308-0.996-5.851-2.254-9.467-3.664c-2.829-1.103-5.049-2.708-6.353-3.907
	c-3.823-3.52-4.832-9.071-4.852-10.629c-0.141-5.234-0.234-9.612-0.234-14.615c0-1.867-0.763-1.767-2.09-0.451
	c-1.273,1.262-3.19,3.658-4.507,6.278c-1.934,3.847-3.056,8.126-3.33,11.363C133.907,178.009,135.552,183.158,139.512,186.286z"/>
<path d="M217.337,141.894c1.391,2.114,2.066,3.529,5.658,6.854c4.692,4.344,7.356,20.81,10.243,27.412
	c1.322,3.026,3.518,9.958,6.021,12.819c1.089,1.246,2.269,2.773,3.15,3.72c1.194,1.282,1.954,1.626,2.307,1.19
	c0.33-0.407-0.026-1.001-0.301-1.73c-0.646-1.868-1.383-3.95-2.382-6.227c-1.785-4.068-2.818-9.043-3.706-14.148
	c-0.483-2.778-1.022-5.546-1.485-8.336c-0.978-5.902-2.641-11.264-3.594-15.638c-1.057-4.855-3.741-7.317-6.552-10.467
	c-1.232-1.38-2.425-3.017-3.47-4.588c-1.404-2.109-2.761-4.925-4.016-7.247c-1.488-2.752-2.04-4.008-2.534-5.135
	c-0.732-1.673-1.722-1.55-1.891,0.023c-0.248,2.32-0.277,6.755-0.185,10.53C214.714,135.471,216.399,140.468,217.337,141.894z"/>
<path d="M219.806,111.508c1.346,1.067,2.703,2.601,3.366,3.634c1.906,2.97,1.856,3.902,2.301,5.961
	c0.546,2.533,0.171,3.674,4.307,8.71c0.278,0.338,1.772,1.771,3.154,2.893c1.396,1.133,2.499,1.852,2.499-0.74
	c1.012-7.53-0.508-11.769-2.903-15.791c-1.919-3.223-4.465-4.805-6.726-5.475c-0.701-0.208-1.444-0.285-2.043-0.351
	c-1.125-0.124-3.015-0.457-4.041-0.177C219.25,110.299,219.186,111.016,219.806,111.508z"/>
<path d="M238.868,145.211c0.574,0.044,0.793-0.576,1.054-1.454c1.122-3.771,3.931-12.703,4.194-13.628
	c1.024-3.599,2.091-6.371,3.642-8.325c1.932-2.435,4.495-3.701,7.262-4.873c3.023-1.28,7.756-5.376,8.988-6.185
	c3.057-2.008-0.672-2.154-2.49-2.27c-5.195-0.33-8.166-0.297-11.863,0.932c-3.217,1.069-4.756,1.725-7.254,5.334
	c-3.857,5.571-3.344,21.477-4.084,29.071C238.244,144.814,238.535,145.186,238.868,145.211z"/>
<path d="M208.794,298.678c1.891-0.663,3.975-0.798,2.75-2.601c-0.747-1.099-1.156-1.972-1.908-3.458
	c-1.012-2.003-0.595-2.039-4.107,0.045c-1.5,0.995-2.501,1.581-3.353,2.652c-2.014,2.539-2.523,5.994-2.733,7.318
	c-0.462,2.913-1.104,7.199-1.769,9.755c-0.555,2.134-1.613,5.502-2.412,7.31c-0.584,1.322,0.313,1.942,1.368,0.954
	c1.135-1.063,2.643-2.593,2.833-2.8c3.938-4.254,5.969-8.146,6.552-9.876c0.472-1.399,0.102-4.339,0.264-6.297
	C206.345,300.897,207.501,299.13,208.794,298.678z"/>
<path d="M232.214,249.107c1.84,0.088,1.701-2.167,2.572-5.368c1.594-5.859,2.396-8.319,4.215-11.324
	c1.061-1.751-0.733-2.563-1.808-2.189c-1.075,0.374-2.667,1.345-3.532,1.681c-2.351,0.914-1.372-0.376-3.479-1.79
	c-1.359-0.912-2.129-1.59-4.744-2.515c-1.256-0.445-2.89-0.704-4.588-0.706c-3.637-0.004-7.612,0.843-9.103,1.291
	c-1.12,0.337-1.809,2.156-0.353,2.69c0.425,0.156,0.923,0.218,1.156,0.149c1.533-0.456,1.002-0.449,2.06,1.377
	c1.733,2.99,3.745,5.091,6.582,5.926c2.744,0.807,5.951-0.912,7.882-2.396c1.379-1.061,1.495-0.974,1.664-0.51
	c0.517,1.423,0.451,2.279,0.516,3.087c0.162,2.021,0.205,4.697-0.258,6.859C230.32,248.542,231.536,249.074,232.214,249.107z"/>
<path d="M259.068,126.43c-6.816,3.207-14.429,11.061-15.865,23.926c-1.073,9.614,0.365,19.637,1.578,25.459
	c0.7,3.357,3.914,15.171,5.452,17.662c0.664,1.073,1.815,0.869,1.306-3.456c-0.833-7.517-0.753-17.705-1.032-26.827
	c-0.08-2.603-0.281-5.372-0.183-7.663c0.192-4.466,0.525-6.739,2.271-9.029c3.443-4.517,10.829-7.244,15.675-10.455
	c8.959-5.937,10.272-13.751,9.168-23.655c-0.172-1.558-0.897-5.119-1.862-4.922c-0.448,0.091-2.472,3.952-4.644,7.322
	C266.495,121.672,263.599,124.299,259.068,126.43z"/>
<path fill="#FFFFFF" d="M109.674,104.273c-1.312-1.956-2.919-3.719-4.834-5.288c-2.273-1.875-4.59-3.24-6.94-4.112
	c-2.343-0.864-4.706-1.176-7.089-0.933c-2.376,0.236-4.746,1.099-7.116,2.568c-2.371,1.47-4.708,3.611-7.021,6.417
	c-1.738,2.137-3.071,4.369-3.985,6.696c-0.915,2.327-1.446,4.671-1.579,7.043c-0.127,2.365,0.11,4.681,0.717,6.953
	c0.614,2.264,1.576,4.405,2.888,6.422c1.319,2.024,2.966,3.845,4.949,5.482c3.155,2.585,6.319,4.173,9.5,4.758
	c3.181,0.584,6.334,0.142,9.455-1.334c3.119-1.476,6.167-4.028,9.142-7.645c1.823-2.24,3.191-4.531,4.117-6.886
	c0.925-2.356,1.435-4.705,1.543-7.047c0.101-2.349-0.166-4.627-0.809-6.841C111.971,108.314,110.994,106.236,109.674,104.273z
	 M106.079,121.772c-0.335,1.636-1.205,3.318-2.608,5.046c-1.048,1.264-2.162,2.199-3.334,2.813c-1.181,0.608-2.41,0.941-3.672,0.999
	c-1.262,0.058-2.542-0.123-3.842-0.519c-1.294-0.403-2.593-0.984-3.882-1.742c-1.294-0.751-2.557-1.648-3.789-2.658
	c-1.565-1.27-2.919-2.615-4.049-4.037c-1.129-1.422-1.958-2.895-2.458-4.434c-0.507-1.532-0.603-3.111-0.285-4.724
	c0.325-1.607,1.15-3.251,2.499-4.912c1.291-1.561,2.691-2.633,4.187-3.232c1.495-0.599,3.051-0.8,4.659-0.599
	c1.607,0.188,3.233,0.703,4.871,1.535c1.638,0.833,3.25,1.894,4.825,3.196c1.594,1.294,2.977,2.651,4.127,4.077
	c1.157,1.419,1.993,2.898,2.507,4.436C106.339,118.549,106.421,120.13,106.079,121.772z"/>
<path fill="#FFFFFF" d="M135.687,61.357c-0.132-0.543-0.169-1.085-0.118-1.62c0.045-0.542,0.165-1.032,0.38-1.471l1.374-2.914
	c-0.152-0.209-0.334-0.445-0.553-0.713c-0.226-0.263-0.457-0.534-0.689-0.804c-0.239-0.266-0.462-0.507-0.667-0.726l-13.152,9.521
	c0.05,0.166,0.148,0.367,0.285,0.624c0.14,0.242,0.299,0.494,0.469,0.762c0.178,0.262,0.344,0.509,0.495,0.732
	c0.157,0.218,0.275,0.381,0.354,0.49l3.985-0.682c0.437-0.067,0.899-0.034,1.386,0.099c0.487,0.133,0.956,0.338,1.398,0.622
	c0.442,0.284,0.815,0.619,1.102,1.015l8.07,11.147l3.824,4.694l-0.326,0.236l-34.007-10.352l-10.82,7.832
	c0.065,0.154,0.171,0.351,0.325,0.595c0.147,0.236,0.314,0.483,0.492,0.745c0.186,0.257,0.36,0.498,0.518,0.715
	c0.165,0.211,0.284,0.375,0.362,0.484l3.892-0.614c0.538-0.058,1.087,0.03,1.653,0.271c0.561,0.234,1.036,0.613,1.42,1.128
	l10.095,13.945l3.688,5.291c0.268,0.387,0.499,0.835,0.726,1.346c0.214,0.509,0.378,1.029,0.49,1.576
	c0.112,0.547,0.132,1.066,0.074,1.558c-0.066,0.498-0.231,0.925-0.524,1.291l-1.799,2.227c0.136,0.221,0.338,0.501,0.596,0.824
	c0.255,0.335,0.526,0.661,0.818,0.983c0.29,0.335,0.543,0.603,0.764,0.81l14.038-10.163c-0.054-0.174-0.156-0.396-0.316-0.683
	c-0.155-0.279-0.334-0.576-0.538-0.891c-0.198-0.306-0.38-0.59-0.552-0.844c-0.172-0.254-0.307-0.44-0.386-0.549l-4.775,1.75
	c-0.401,0.149-0.729,0.22-0.988,0.206c-0.258-0.014-0.495-0.127-0.705-0.319s-0.453-0.478-0.709-0.849l-5.238-6.941l-4.625-6.389
	l-2.887-3.597l0.326-0.236l35.465,11.287l4.759-6.288l-18.569-25.65C136.042,62.403,135.812,61.906,135.687,61.357z"/>
<path fill="#FFFFFF" d="M438.524,175.007c2.283-0.538,4.49-1.42,6.624-2.66c2.544-1.466,4.63-3.155,6.268-5.049
	c1.629-1.889,2.749-3.993,3.359-6.311c0.615-2.311,0.645-4.835,0.109-7.575c-0.537-2.74-1.709-5.687-3.51-8.845
	c-1.379-2.384-2.99-4.422-4.836-6.101c-1.846-1.68-3.842-3.005-6.005-3.968c-2.157-0.955-4.397-1.551-6.726-1.785
	c-2.324-0.226-4.656-0.08-6.996,0.436c-2.348,0.52-4.622,1.419-6.845,2.699c-3.515,2.042-6.106,4.446-7.768,7.219
	c-1.662,2.774-2.357,5.886-2.08,9.33c0.279,3.445,1.586,7.202,3.907,11.267c1.446,2.5,3.099,4.592,4.967,6.291
	c1.869,1.7,3.877,3.008,6.021,3.938c2.151,0.925,4.367,1.479,6.655,1.66C433.954,175.731,436.233,175.55,438.524,175.007z
	 M423.49,165.454c-1.404-0.892-2.666-2.301-3.782-4.227c-0.809-1.428-1.289-2.803-1.448-4.119c-0.152-1.321-0.031-2.59,0.36-3.793
	s1.008-2.338,1.833-3.417c0.83-1.071,1.827-2.082,2.986-3.022c1.154-0.948,2.434-1.813,3.807-2.61
	c1.731-1.018,3.46-1.811,5.182-2.367c1.72-0.556,3.383-0.811,4.992-0.736c1.604,0.067,3.108,0.536,4.499,1.403
	c1.384,0.872,2.625,2.226,3.698,4.077c0.999,1.761,1.506,3.453,1.539,5.065c0.032,1.612-0.327,3.141-1.08,4.577
	c-0.74,1.439-1.79,2.781-3.141,4.021c-1.351,1.24-2.904,2.375-4.671,3.391c-1.766,1.037-3.514,1.853-5.247,2.426
	c-1.729,0.583-3.399,0.843-5.012,0.78C426.401,166.836,424.9,166.354,423.49,165.454z"/>
<path fill="#FFFFFF" d="M80.717,148.238c0.817,0.89,1.398,1.758,1.756,2.619c0.363,0.853,0.548,1.712,0.542,2.57
	c-0.002,0.85-0.129,1.712-0.394,2.589c-0.26,0.869-0.611,1.768-1.034,2.683l-3.117,6.747l-9.902-4.79l-1.436-0.732l7.343-13.77
	l-5.232-2.667l-6.831,14.031l-11.028-5.622l4.624-8.564c0.332-0.693,0.744-1.269,1.237-1.729c0.489-0.451,1.131-0.738,1.921-0.852
	c0.786-0.126,1.798-0.02,3.04,0.312c0.157-0.308,0.34-0.688,0.545-1.155c0.206-0.466,0.402-0.937,0.586-1.403
	c0.188-0.475,0.312-0.864,0.392-1.189l-8.566-4.368l-15.063,29.545c0.345,0.359,0.78,0.667,1.285,0.924
	c0.5,0.266,1.137,0.58,1.894,0.955l2.72-2.167c0.247-0.229,0.523-0.412,0.816-0.564c0.284-0.157,0.667-0.21,1.117-0.164
	c0.464,0.042,1.059,0.249,1.802,0.628l14.259,7.271l8.847,4.704c0.32,0.174,0.537,0.425,0.659,0.756
	c0.118,0.34,0.162,0.718,0.129,1.143c-0.021,0.42-0.101,0.853-0.221,1.298l-0.585,2.416c0.475,0.274,0.996,0.54,1.582,0.785
	c0.573,0.25,1.202,0.473,1.883,0.659l15.351-30.109l-8.244-6.013L80.717,148.238z"/>
<path fill="#FFFFFF" d="M60.339,186.511c0.466,0.34,0.972,0.76,1.524,1.262c0.543,0.5,1.084,1.048,1.608,1.662
	c0.533,0.616,1.001,1.254,1.41,1.926c0.418,0.676,0.716,1.358,0.913,2.044c0.197,0.687,0.241,1.353,0.128,2.008l-1.462,8.306
	l-10.682-2.62l-16.319-4.275c-0.365-0.086-0.73-0.241-1.109-0.459s-0.697-0.52-0.954-0.904c-0.259-0.375-0.4-0.858-0.419-1.429
	l0.015-2.555c-0.502-0.241-1.07-0.459-1.694-0.652c-0.636-0.187-1.311-0.374-2.035-0.563l-4.917,18.77
	c0.52,0.245,1.061,0.457,1.601,0.628c0.552,0.165,1.125,0.324,1.738,0.485l1.417-1.772c0.246-0.332,0.554-0.677,0.947-1.041
	c0.384-0.366,0.827-0.657,1.336-0.86c0.51-0.204,1.074-0.235,1.691-0.093l16.207,4.246l8.534,2.415
	c0.587,0.183,1.047,0.472,1.389,0.87c0.345,0.388,0.598,0.821,0.753,1.289s0.246,0.917,0.276,1.332l0.032,2.151
	c0.612,0.16,1.207,0.316,1.787,0.448c0.581,0.132,1.131,0.227,1.654,0.274l8.245-31.468l-11.669-5.438L60.339,186.511z"/>
<path fill="#FFFFFF" d="M186.773,62.94c0.044,1.208-0.076,2.244-0.362,3.131c-0.277,0.884-0.693,1.66-1.255,2.309
	c-0.553,0.645-1.208,1.218-1.979,1.715c-0.761,0.493-1.612,0.949-2.527,1.371l-6.749,3.113l-4.428-10.069l-0.618-1.489l14.521-5.715
	l-2.251-5.423l-14.301,6.246l-4.745-11.433l9.076-3.517c0.702-0.312,1.389-0.483,2.062-0.513c0.665-0.026,1.339,0.172,2.015,0.598
	c0.68,0.414,1.381,1.151,2.111,2.209c0.319-0.132,0.705-0.303,1.164-0.524c0.459-0.221,0.914-0.452,1.356-0.687
	c0.451-0.239,0.798-0.456,1.069-0.652l-3.685-8.88l-30.631,12.711c0.03,0.497,0.162,1.014,0.378,1.536
	c0.208,0.527,0.489,1.179,0.822,1.956l3.476,0.115c0.336-0.015,0.665,0.025,0.987,0.1c0.318,0.065,0.643,0.274,0.956,0.601
	c0.325,0.333,0.644,0.875,0.963,1.646l6.135,14.784l3.68,9.319c0.131,0.34,0.134,0.672,0.011,1.003
	c-0.131,0.335-0.342,0.651-0.644,0.953c-0.288,0.306-0.63,0.583-1.01,0.845l-2.013,1.458c0.183,0.516,0.408,1.057,0.694,1.623
	c0.275,0.562,0.609,1.14,1.006,1.723l31.216-12.954l-2.373-9.924L186.773,62.94z"/>
<path fill="#FFFFFF" d="M469.795,194.131c-0.237-1.623-0.572-3.208-1.013-4.743c-0.401-1.367-1.014-2.673-1.839-3.918
	c-0.837-1.253-1.827-2.381-2.973-3.396c-1.155-1.012-2.411-1.854-3.764-2.511c-1.364-0.663-2.769-1.086-4.216-1.278
	c-1.448-0.191-2.89-0.086-4.326,0.315c-1.44,0.423-2.653,1.049-3.647,1.881c-0.995,0.833-1.818,1.814-2.471,2.937
	c-0.652,1.122-1.183,2.329-1.576,3.625c-0.395,1.297-0.71,2.621-0.95,3.973c-0.239,1.351-0.447,2.674-0.622,3.968
	c-0.16,1.109-0.316,2.159-0.482,3.142c-0.166,0.982-0.373,1.857-0.605,2.64c-0.235,0.773-0.536,1.427-0.899,1.929
	c-0.361,0.511-0.813,0.84-1.362,1.007c-0.573,0.154-1.114,0.141-1.621-0.033c-0.5-0.185-0.962-0.479-1.39-0.894
	c-0.425-0.405-0.808-0.873-1.14-1.404c-0.337-0.521-0.62-1.056-0.854-1.595c-0.235-0.54-0.414-1.025-0.541-1.466
	c-0.369-1.287-0.547-2.568-0.52-3.829c0.015-1.268,0.25-2.459,0.675-3.576c0.432-1.129,1.083-2.121,1.946-2.995
	c0.865-0.865,1.96-1.557,3.277-2.063l-1.14-3.97l-10.281,1.814c-0.309,1.143-0.506,2.363-0.589,3.67
	c-0.085,1.298-0.073,2.626,0.025,3.972c0.109,1.351,0.27,2.678,0.509,3.961c0.242,1.293,0.521,2.507,0.842,3.628
	c0.443,1.544,1.042,3.083,1.792,4.589c0.763,1.512,1.659,2.906,2.715,4.194c1.046,1.292,2.229,2.365,3.557,3.248
	c1.325,0.874,2.765,1.455,4.335,1.73c1.574,0.285,3.262,0.168,5.059-0.327c1.248-0.367,2.318-0.933,3.207-1.685
	c0.886-0.761,1.623-1.659,2.218-2.705c0.596-1.046,1.077-2.179,1.45-3.409c0.385-1.225,0.685-2.504,0.915-3.814
	c0.231-1.309,0.424-2.618,0.587-3.918c0.167-1.291,0.32-2.529,0.481-3.699c0.162-1.17,0.355-2.23,0.58-3.18
	c0.237-0.943,0.53-1.724,0.901-2.337c0.372-0.614,0.855-1.011,1.44-1.188c0.866-0.239,1.63-0.279,2.305-0.114
	c0.662,0.159,1.241,0.479,1.733,0.945c0.488,0.457,0.901,1.025,1.238,1.684c0.339,0.66,0.621,1.364,0.828,2.12
	c0.303,1.057,0.491,2.127,0.56,3.201c0.06,1.077-0.029,2.118-0.266,3.13c-0.237,1.013-0.658,1.939-1.251,2.785
	c-0.6,0.858-1.407,1.578-2.429,2.179l1.028,3.584l8.547-2.451c0.246-1.433,0.368-2.95,0.362-4.53
	C470.144,197.363,470.021,195.757,469.795,194.131z"/>
<path fill="#FFFFFF" d="M226.672,48.889c-0.67-0.958-1.49-1.783-2.471-2.48c-0.98-0.696-2.059-1.287-3.245-1.78
	c-1.179-0.504-2.42-0.928-3.698-1.287c-1.278-0.358-2.559-0.678-3.834-0.969c-1.266-0.293-2.479-0.566-3.626-0.842
	c-1.146-0.276-2.181-0.573-3.102-0.89c-0.914-0.329-1.66-0.698-2.234-1.128c-0.573-0.43-0.921-0.952-1.041-1.554
	c-0.152-0.889-0.118-1.656,0.111-2.313c0.221-0.646,0.597-1.194,1.107-1.639c0.501-0.444,1.105-0.799,1.792-1.073
	s1.415-0.487,2.186-0.619c1.079-0.2,2.16-0.282,3.233-0.246c1.076,0.044,2.1,0.236,3.083,0.571c0.983,0.335,1.862,0.846,2.645,1.521
	c0.794,0.683,1.43,1.56,1.928,2.639l3.66-0.677l-1.604-8.777c-1.399-0.385-2.894-0.656-4.463-0.805
	c-1.581-0.156-3.188-0.191-4.824-0.122c-1.635,0.078-3.241,0.257-4.809,0.547c-1.396,0.268-2.753,0.753-4.07,1.455
	c-1.325,0.713-2.542,1.592-3.66,2.638c-1.117,1.055-2.076,2.228-2.859,3.515c-0.791,1.298-1.348,2.659-1.679,4.086
	c-0.331,1.427-0.366,2.877-0.107,4.352c0.28,1.479,0.785,2.753,1.515,3.828c0.73,1.075,1.625,1.992,2.676,2.754
	c1.051,0.762,2.197,1.408,3.448,1.929c1.249,0.52,2.533,0.966,3.853,1.336c1.319,0.371,2.612,0.707,3.88,1.009
	c1.086,0.268,2.114,0.526,3.073,0.788c0.96,0.262,1.809,0.554,2.563,0.862c0.746,0.311,1.365,0.674,1.828,1.087
	c0.473,0.41,0.756,0.895,0.868,1.458c0.098,0.587,0.031,1.126-0.189,1.616c-0.232,0.482-0.57,0.916-1.023,1.302
	c-0.444,0.384-0.945,0.721-1.505,1c-0.549,0.288-1.108,0.517-1.667,0.698s-1.058,0.313-1.509,0.396
	c-1.313,0.243-2.604,0.296-3.854,0.147c-1.257-0.138-2.417-0.49-3.485-1.024c-1.079-0.542-2.001-1.289-2.785-2.236
	c-0.775-0.949-1.356-2.11-1.732-3.475l-4.053,0.75l0.804,10.448c1.105,0.419,2.298,0.736,3.588,0.946
	c1.28,0.212,2.602,0.329,3.946,0.363c1.353,0.022,2.686-0.009,3.984-0.122c1.308-0.115,2.541-0.274,3.685-0.486
	c1.577-0.292,3.163-0.741,4.731-1.343c1.576-0.613,3.047-1.374,4.43-2.302c1.383-0.919,2.564-1.996,3.57-3.236
	c0.996-1.238,1.713-2.619,2.139-4.161c0.436-1.543,0.485-3.241,0.167-5.085C227.791,50.976,227.333,49.851,226.672,48.889z"/>
<path fill="#FFFFFF" d="M419.001,122.625c1.348-0.489,2.534-1.177,3.546-2.074c1.267-1.132,2.203-2.332,2.813-3.6
	c0.601-1.261,0.919-2.567,0.947-3.912c0.041-1.343-0.161-2.688-0.594-4.047c-0.433-1.359-1.059-2.702-1.867-4.023
	c-0.803-1.314-1.758-2.583-2.839-3.805l-14.949-16.909c-0.188,0.077-0.428,0.211-0.719,0.404c-0.291,0.193-0.583,0.414-0.875,0.647
	c-0.306,0.233-0.565,0.448-0.794,0.651c-0.229,0.203-0.389,0.356-0.477,0.447l1.357,3.794c0.148,0.485,0.139,0.954-0.032,1.413
	c-0.164,0.452-0.418,0.831-0.777,1.148l-13.2,11.67l-6.066,5.133c-0.408,0.335-0.866,0.6-1.375,0.792
	c-0.501,0.201-0.996,0.292-1.485,0.29c-0.489-0.003-0.929-0.139-1.301-0.399l-2.305-1.651c-0.207,0.157-0.473,0.393-0.804,0.698
	c-0.326,0.313-0.65,0.626-0.971,0.96c-0.326,0.327-0.581,0.603-0.786,0.835l12.967,14.666c0.167-0.072,0.392-0.208,0.678-0.421
	c0.285-0.214,0.593-0.447,0.915-0.719c0.315-0.267,0.602-0.507,0.868-0.729c0.251-0.223,0.431-0.381,0.54-0.477l-1.46-3.476
	c-0.216-0.448-0.26-0.845-0.131-1.177c0.123-0.34,0.411-0.696,0.841-1.063l6.701-6.155l3.013,3.408l0.843,0.868
	c-0.839,1.818-1.583,3.642-2.246,5.457c-0.656,1.822-1.158,3.586-1.521,5.29c-0.363,1.705-0.53,3.299-0.491,4.776
	c0.039,1.58,0.241,3.026,0.603,4.347c0.36,1.32,0.85,2.541,1.467,3.659c0.618,1.119,1.329,2.156,2.132,3.122
	c0.812,0.961,1.679,1.885,2.611,2.751l3.599-2.796c-0.535-0.938-0.9-1.946-1.099-3.026c-0.205-1.086-0.271-2.219-0.207-3.391
	c0.06-1.179,0.208-2.373,0.452-3.589c0.247-1.242,0.553-2.46,0.912-3.649c0.366-1.194,0.748-2.326,1.161-3.409
	c0.413-1.083,0.807-2.071,1.196-2.979c1.654,0.611,3.266,0.928,4.83,0.942C416.191,123.343,417.647,123.106,419.001,122.625z
	 M414.57,113.005c-1.238,1.106-2.437,1.808-3.583,2.091c-1.139,0.277-2.312,0.123-3.492-0.473c-1.188-0.589-2.455-1.633-3.803-3.144
	l-2.827-3.11l11.084-9.801l1.678,1.898c1.438,1.611,2.444,3.155,3.025,4.639c0.589,1.478,0.72,2.886,0.394,4.212
	c-0.32,1.333-1.13,2.575-2.439,3.732L414.57,113.005z"/>
<path fill="#FFFFFF" d="M373.71,88.797l-6.436,8.917c-0.141-0.101-0.272-0.196-0.396-0.286c-0.125-0.09-0.257-0.185-0.397-0.286
	c-1.735-1.335-3.227-2.778-4.465-4.324c-1.24-1.545-2.132-3.195-2.68-4.929c-0.542-1.74-0.631-3.568-0.278-5.467
	c0.358-1.907,1.27-3.875,2.727-5.925c1.625-2.235,3.263-3.964,4.928-5.188c1.663-1.238,3.316-2.021,4.973-2.363
	c1.648-0.349,3.269-0.315,4.848,0.104c1.587,0.424,3.115,1.159,4.572,2.223c2.034,1.479,3.39,3.191,4.077,5.156
	c0.694,1.957,0.745,4.1,0.143,6.411c0.618,0.553,1.164,0.994,1.625,1.339c0.461,0.344,0.906,0.63,1.33,0.864l5.864-8.124
	c-0.639-0.969-1.211-1.832-1.738-2.579c-0.52-0.754-1.022-1.436-1.521-2.057c-0.504-0.613-1.042-1.214-1.615-1.78
	c-0.572-0.567-1.231-1.162-1.981-1.763c-0.737-0.603-1.614-1.271-2.626-2.002c-2.098-1.502-4.283-2.641-6.573-3.418
	c-2.292-0.778-4.588-1.205-6.902-1.277c-2.314-0.073-4.558,0.201-6.729,0.812c-2.183,0.614-4.201,1.56-6.07,2.837
	c-1.875,1.286-3.514,2.884-4.915,4.808c-2.053,2.861-3.411,5.645-4.066,8.355c-0.655,2.711-0.651,5.329,0,7.87
	c0.643,2.535,1.897,4.979,3.754,7.325c1.857,2.346,4.267,4.582,7.223,6.716c1.152,0.832,2.222,1.545,3.235,2.158
	c1.006,0.607,1.991,1.128,2.97,1.575c0.972,0.441,1.977,0.836,3.007,1.178c1.04,0.348,2.165,0.674,3.368,0.974l8.728-12.091
	L373.71,88.797z"/>
<path fill="#FFFFFF" d="M311.121,33.395c0.043-0.255,0.083-0.55,0.123-0.894c0.029-0.346,0.061-0.701,0.092-1.055
	c0.021-0.356,0.038-0.685,0.051-0.984l-16.006-2.724c-0.084,0.151-0.16,0.362-0.245,0.64c-0.075,0.269-0.145,0.559-0.215,0.868
	c-0.064,0.311-0.123,0.602-0.178,0.865c-0.045,0.265-0.079,0.464-0.101,0.596l3.275,2.369c0.355,0.264,0.655,0.617,0.901,1.058
	c0.246,0.44,0.428,0.919,0.535,1.435c0.108,0.515,0.129,1.014,0.047,1.497L297.09,50.63l-0.674,6.017l-0.397-0.067l-16.418-31.529
	l-13.168-2.242c-0.065,0.155-0.13,0.368-0.198,0.648c-0.065,0.271-0.125,0.563-0.188,0.873c-0.054,0.313-0.103,0.606-0.148,0.87
	c-0.035,0.267-0.069,0.466-0.091,0.598l3.164,2.349c0.417,0.344,0.739,0.797,0.963,1.371c0.225,0.564,0.287,1.169,0.189,1.804
	l-2.888,16.971l-1.196,6.338c-0.089,0.462-0.248,0.941-0.453,1.46c-0.213,0.509-0.471,0.991-0.783,1.454
	c-0.312,0.463-0.668,0.84-1.06,1.143c-0.402,0.302-0.822,0.483-1.288,0.531l-2.85,0.274c-0.063,0.252-0.121,0.593-0.17,1.003
	c-0.062,0.418-0.104,0.838-0.129,1.272c-0.037,0.441-0.05,0.809-0.044,1.112l17.085,2.908c0.085-0.161,0.173-0.389,0.266-0.705
	c0.091-0.305,0.177-0.641,0.26-1.007c0.079-0.356,0.154-0.684,0.215-0.985c0.062-0.301,0.1-0.528,0.123-0.661l-4.593-2.183
	c-0.388-0.183-0.668-0.367-0.839-0.562c-0.171-0.195-0.256-0.442-0.266-0.726c-0.01-0.284,0.023-0.658,0.109-1.101l1.289-8.6
	l1.324-7.776l0.546-4.579l0.397,0.067l16.772,33.225l7.822-1.005l5.313-31.217c0.104-0.556,0.299-1.069,0.603-1.542
	c0.295-0.475,0.656-0.881,1.074-1.219c0.419-0.347,0.853-0.604,1.317-0.759L311.121,33.395z"/>
<path fill="#FFFFFF" d="M353.739,47.806l-30.5-13.024c-0.335,0.369-0.613,0.824-0.835,1.345c-0.231,0.517-0.501,1.174-0.824,1.954
	l2.348,2.567c0.246,0.231,0.447,0.494,0.618,0.776c0.176,0.273,0.254,0.651,0.239,1.103c-0.01,0.465-0.176,1.073-0.505,1.84
	l-6.285,14.721l-4.094,9.145c-0.151,0.332-0.386,0.565-0.709,0.709c-0.332,0.14-0.705,0.21-1.131,0.206
	c-0.421,0.008-0.858-0.043-1.311-0.132l-2.45-0.42c-0.241,0.491-0.472,1.03-0.675,1.631c-0.21,0.588-0.391,1.231-0.529,1.923
	l31.081,13.272l5.439-8.633l-3.398-2.453c-0.833,0.875-1.658,1.514-2.493,1.93c-0.826,0.419-1.671,0.664-2.528,0.715
	c-0.848,0.055-1.717-0.013-2.609-0.217c-0.885-0.201-1.805-0.489-2.747-0.85l-6.943-2.652l4.106-10.204l0.633-1.482l14.236,6.392
	l2.306-5.4l-14.462-5.863l4.86-11.384l8.859,4.034c0.713,0.283,1.316,0.655,1.808,1.116c0.483,0.457,0.813,1.078,0.98,1.859
	c0.179,0.776,0.142,1.793-0.104,3.055c0.316,0.135,0.709,0.292,1.188,0.466c0.479,0.173,0.962,0.338,1.439,0.489
	c0.487,0.155,0.884,0.252,1.215,0.31L353.739,47.806z"/>
<path fill="#FFFFFF" d="M167.952,426.015l-15.185,13.996c-0.255,0.243-0.509,0.446-0.765,0.598c-0.253,0.16-0.53,0.291-0.825,0.408
	c-0.298,0.109-0.636,0.225-1.015,0.341c-0.122,0.273-0.237,0.556-0.338,0.838c-0.104,0.287-0.179,0.562-0.23,0.837l7.857,3.517
	c0.13-0.155,0.249-0.325,0.372-0.52c0.116-0.19,0.224-0.391,0.322-0.584c0.1-0.198,0.189-0.382,0.262-0.544l-1.714-1.458
	c-0.207-0.178-0.375-0.368-0.511-0.581c-0.136-0.213-0.212-0.448-0.233-0.7c-0.026-0.254,0.032-0.532,0.163-0.837
	c0.062-0.137,0.133-0.269,0.218-0.406c0.083-0.133,0.192-0.267,0.327-0.406l3.011-2.986l7.068,3.164l-0.446,4.17
	c-0.019,0.204-0.048,0.392-0.085,0.556c-0.038,0.165-0.095,0.334-0.167,0.495c-0.139,0.327-0.344,0.581-0.602,0.763
	c-0.265,0.185-0.586,0.266-0.977,0.244l-2.078-0.239c-0.152,0.339-0.278,0.647-0.367,0.928c-0.093,0.274-0.155,0.575-0.195,0.896
	l9.101,4.075c0.171-0.221,0.328-0.462,0.472-0.731c0.143-0.263,0.278-0.537,0.4-0.81c-0.147-0.308-0.275-0.632-0.396-0.971
	c-0.116-0.337-0.207-0.676-0.276-1.01c-0.067-0.339-0.09-0.666-0.079-0.977l1.307-21.227L167.952,426.015z M167.646,432.069
	l-0.637,5.978l-5.4-2.417l4.396-4.369l1.875-2.073l0.212,0.095L167.646,432.069z"/>
<path fill="#FFFFFF" d="M152.513,430.75c0.947-1.541,1.566-2.978,1.856-4.316c0.29-1.336,0.303-2.592,0.038-3.755
	c-0.262-1.167-0.756-2.265-1.478-3.287c-0.724-1.019-1.624-1.984-2.701-2.892c-1.078-0.909-2.286-1.773-3.62-2.592l-8.432-5.224
	c-0.211,0.194-0.402,0.418-0.575,0.688c-0.178,0.266-0.328,0.509-0.46,0.732l1.074,1.405c0.257,0.328,0.398,0.707,0.434,1.131
	c0.032,0.428-0.101,0.884-0.396,1.381l-5.084,8.208l-2.812,4.288c-0.258,0.417-0.552,0.682-0.881,0.795
	c-0.325,0.116-0.683,0.109-1.075-0.023l-1.779-0.519c-0.183,0.295-0.343,0.585-0.483,0.875c-0.137,0.284-0.258,0.573-0.358,0.861
	l8.686,5.379c1.733,1.074,3.446,1.836,5.137,2.288c1.687,0.448,3.317,0.556,4.882,0.333c1.56-0.228,3.024-0.811,4.382-1.759
	C150.223,433.798,151.443,432.466,152.513,430.75z M149.602,423.917c-0.144,1.518-0.731,3.105-1.755,4.759
	c-0.991,1.61-2.09,2.809-3.284,3.605c-1.198,0.793-2.493,1.159-3.89,1.09s-2.889-0.59-4.484-1.572l-2.361-1.462l3.262-5.642
	l6.042-9.754l1.968,1.219c1.655,1.032,2.86,2.206,3.604,3.516C149.449,420.982,149.75,422.4,149.602,423.917z"/>
<path fill="#FFFFFF" d="M124.847,416.116l6.063-7.79c0.167-0.214,0.366-0.417,0.605-0.589c0.238-0.179,0.503-0.303,0.791-0.367
	c0.292-0.06,0.592-0.03,0.912,0.1l1.332,0.615c0.213-0.191,0.422-0.415,0.626-0.677c0.206-0.254,0.406-0.54,0.605-0.85l-8.079-6.287
	c-0.255,0.202-0.474,0.411-0.65,0.638c-0.185,0.228-0.354,0.455-0.51,0.69l0.69,1.169c0.159,0.292,0.271,0.598,0.343,0.912
	c0.071,0.315,0.078,0.629,0.023,0.944s-0.188,0.613-0.402,0.896l-6.022,7.737l-3.1,3.822c-0.215,0.267-0.458,0.47-0.729,0.603
	c-0.276,0.129-0.551,0.203-0.838,0.219c-0.286,0.016-0.555-0.018-0.806-0.101l-1.434-0.485c-0.185,0.229-0.362,0.456-0.527,0.679
	c-0.169,0.225-0.333,0.491-0.496,0.8l8.236,6.409c0.282-0.208,0.548-0.442,0.788-0.706c0.244-0.26,0.453-0.511,0.641-0.75
	l-1.503-1.802c-0.208-0.238-0.305-0.448-0.29-0.638c0.013-0.188,0.138-0.42,0.36-0.697L124.847,416.116z"/>
<path fill="#FFFFFF" d="M40.766,282.504c0.962,0.198,2.042,0.234,3.248,0.111l10.775-1.147c0.336-0.03,0.6-0.019,0.784,0.045
	c0.186,0.069,0.324,0.16,0.41,0.291c0.091,0.125,0.167,0.266,0.223,0.417l0.737,1.591c0.149-0.015,0.33-0.04,0.55-0.069
	c0.219-0.035,0.444-0.069,0.667-0.117c0.224-0.04,0.419-0.088,0.586-0.14l-0.993-9.319c-0.097-0.023-0.226-0.032-0.392-0.025
	c-0.161,0.005-0.332,0.019-0.514,0.037c-0.182,0.02-0.352,0.044-0.505,0.066c-0.154,0.016-0.27,0.034-0.347,0.042l-0.275,1.5
	c-0.096,0.518-0.252,0.923-0.473,1.208c-0.226,0.292-0.476,0.502-0.758,0.626c-0.276,0.125-0.553,0.198-0.823,0.222l-9.485,1.009
	c-1.366,0.141-2.511,0.117-3.439-0.073c-0.929-0.191-1.675-0.507-2.246-0.954c-0.566-0.446-0.99-0.98-1.269-1.603
	c-0.284-0.621-0.455-1.294-0.527-2.021c-0.063-0.544-0.068-1.113-0.024-1.697s0.172-1.155,0.375-1.711
	c0.208-0.563,0.515-1.075,0.933-1.547c0.417-0.474,0.972-0.867,1.65-1.19c0.685-0.323,1.525-0.54,2.526-0.652l11.336-1.208
	c0.308-0.037,0.556-0.003,0.735,0.106c0.179,0.108,0.319,0.322,0.414,0.641l0.618,2.041c0.15-0.005,0.344-0.02,0.581-0.04
	c0.237-0.025,0.474-0.051,0.715-0.087c0.242-0.032,0.449-0.07,0.618-0.11l-1.116-10.477c-0.096-0.012-0.225-0.021-0.392-0.02
	c-0.161,0-0.333,0.002-0.517,0.01c-0.183,0.008-0.354,0.021-0.509,0.032c-0.154,0.011-0.27,0.023-0.347,0.032l-0.526,1.961
	c-0.052,0.195-0.156,0.373-0.31,0.54c-0.156,0.162-0.348,0.293-0.571,0.4c-0.223,0.102-0.455,0.172-0.703,0.198l-11.204,1.193
	c-1.47,0.167-2.688,0.503-3.646,1.017c-0.96,0.51-1.711,1.146-2.254,1.907c-0.542,0.759-0.927,1.591-1.159,2.501
	c-0.227,0.905-0.35,1.843-0.359,2.802c-0.015,0.959,0.035,1.896,0.137,2.81c0.074,0.693,0.212,1.414,0.414,2.15
	c0.207,0.741,0.49,1.468,0.851,2.183c0.359,0.708,0.803,1.374,1.342,1.984c0.539,0.617,1.174,1.141,1.912,1.584
	C38.957,281.995,39.81,282.312,40.766,282.504z"/>
<path fill="#FFFFFF" d="M78.128,346.563c0.411,0.069,0.769,0.207,1.085,0.422l0.948,0.644c0.286-0.123,0.551-0.248,0.79-0.377
	c0.244-0.132,0.482-0.288,0.716-0.477l-3.795-7.689c-0.33,0.058-0.64,0.143-0.93,0.268c-0.293,0.12-0.557,0.237-0.797,0.363
	l0.11,1.798c0.011,0.285-0.058,0.584-0.215,0.891c-0.155,0.312-0.399,0.581-0.728,0.805c-0.329,0.224-0.745,0.354-1.253,0.389
	l-13.738,0.776l9.893-10.219c0.436-0.443,0.864-0.705,1.282-0.769c0.417-0.07,0.817,0.115,1.202,0.542
	c0.002,0.006,0.056,0.065,0.152,0.185c0.096,0.12,0.209,0.262,0.345,0.423c0.135,0.162,0.266,0.313,0.387,0.458
	c0.126,0.142,0.211,0.242,0.268,0.294c0.283-0.141,0.564-0.296,0.84-0.477c0.279-0.173,0.54-0.37,0.786-0.585l-4.413-8.94
	c-0.275,0.042-0.541,0.118-0.806,0.218c-0.261,0.099-0.519,0.213-0.773,0.339l-0.096,1.307c-0.034,0.257-0.104,0.49-0.211,0.697
	c-0.11,0.203-0.245,0.393-0.395,0.566c-0.152,0.18-0.312,0.357-0.473,0.53l-14.722,15.829l2.424,2.659l20.844-0.948
	C77.296,346.467,77.723,346.491,78.128,346.563z"/>
<path fill="#FFFFFF" d="M101.102,387.855c0.809-0.281,1.526-0.686,2.159-1.223c0.925-0.794,1.567-1.637,1.924-2.528
	c0.359-0.887,0.481-1.804,0.368-2.74c-0.112-0.937-0.408-1.877-0.894-2.817s-1.114-1.859-1.882-2.754l-7.702-9.07
	c-0.154,0.058-0.327,0.154-0.523,0.292c-0.2,0.142-0.38,0.28-0.549,0.423c-0.169,0.143-0.288,0.251-0.356,0.325l0.804,2.282
	c0.082,0.258,0.084,0.51,0.001,0.755c-0.079,0.241-0.213,0.45-0.397,0.627l-8.082,6.864l-3.662,2.979
	c-0.247,0.181-0.513,0.319-0.801,0.426c-0.292,0.102-0.575,0.154-0.857,0.146c-0.283,0.001-0.532-0.079-0.751-0.226l-1.388-0.915
	c-0.122,0.087-0.26,0.206-0.425,0.354c-0.162,0.151-0.328,0.308-0.487,0.471c-0.162,0.161-0.3,0.306-0.416,0.434l6.776,7.98
	c0.098-0.039,0.222-0.107,0.383-0.217c0.158-0.104,0.321-0.221,0.497-0.355c0.172-0.131,0.331-0.252,0.469-0.362
	c0.143-0.115,0.245-0.2,0.304-0.251l-1.025-2.182c-0.109-0.249-0.127-0.467-0.061-0.646c0.066-0.18,0.214-0.365,0.442-0.549
	l4.394-3.863l1.764,2.078c0.101,0.118,0.208,0.245,0.328,0.369c0.115,0.127,0.221,0.226,0.325,0.297
	c-0.292,0.64-0.585,1.339-0.885,2.089c-0.301,0.75-0.581,1.525-0.841,2.321c-0.262,0.795-0.475,1.581-0.647,2.352
	c-0.17,0.777-0.277,1.506-0.313,2.191c-0.027,0.901,0.059,1.737,0.247,2.516c0.191,0.782,0.451,1.506,0.786,2.166
	c0.335,0.66,0.706,1.268,1.117,1.82c0.407,0.549,0.819,1.042,1.23,1.484l1.87-1.239c-0.297-0.555-0.497-1.141-0.604-1.762
	c-0.107-0.614-0.143-1.273-0.103-1.978c0.034-0.705,0.12-1.467,0.253-2.286c0.088-0.547,0.209-1.115,0.368-1.707
	c0.15-0.593,0.32-1.18,0.509-1.762c0.185-0.579,0.375-1.126,0.558-1.638c0.187-0.507,0.357-0.957,0.506-1.337
	c0.908,0.435,1.812,0.678,2.708,0.723C99.442,388.253,100.293,388.134,101.102,387.855z M95.277,383.818
	c-0.725-0.365-1.471-0.996-2.243-1.888l-1.743-2.052l6.688-5.68l1.308,1.592c1.2,1.431,1.836,2.743,1.907,3.94
	c0.072,1.197-0.452,2.273-1.572,3.232c-0.748,0.642-1.475,1.035-2.194,1.18C96.716,384.29,95.998,384.18,95.277,383.818z"/>
<path fill="#FFFFFF" d="M78.025,372.561c-1.109,0.272-2.114,0.222-3.005-0.157c-0.89-0.379-1.678-1.052-2.357-2.024l-2.937-4.115
	l5.387-3.782l0.997-0.664l4.85,7.591l2.545-1.692l-5.127-7.407l6.365-4.234l3.166,4.999c0.266,0.41,0.429,0.806,0.49,1.198
	c0.062,0.392-0.005,0.801-0.203,1.226c-0.197,0.423-0.551,0.891-1.057,1.402c0.08,0.139,0.195,0.322,0.344,0.536
	c0.148,0.213,0.31,0.426,0.472,0.63c0.163,0.206,0.31,0.367,0.436,0.476l4.538-3.019l-10.106-15.192
	c-0.25,0.073-0.501,0.186-0.753,0.348c-0.255,0.156-0.527,0.337-0.814,0.536l0.44,2.221c0.048,0.182,0.059,0.368,0.034,0.55
	c-0.021,0.18-0.102,0.368-0.241,0.559c-0.141,0.188-0.356,0.383-0.661,0.586l-8.246,5.486l-4.594,2.937
	c-0.206,0.13-0.427,0.198-0.659,0.199c-0.235-0.003-0.463-0.058-0.694-0.164c-0.231-0.106-0.438-0.248-0.628-0.433l-1.317-1.2
	c-0.25,0.146-0.509,0.324-0.772,0.539c-0.271,0.214-0.525,0.443-0.769,0.685l10.493,15.773l5.173-2.484L78.025,372.561z"/>
<path fill="#FFFFFF" d="M50.844,327.129l5.229-2.053l9.25-3.444c0.255-0.096,0.531-0.163,0.825-0.183
	c0.297-0.029,0.587,0.005,0.866,0.103c0.281,0.103,0.521,0.285,0.725,0.564l0.811,1.224c0.282-0.053,0.577-0.132,0.888-0.249
	c0.309-0.109,0.629-0.246,0.96-0.405l-3.572-9.594c-0.323,0.038-0.619,0.101-0.888,0.201c-0.277,0.098-0.54,0.201-0.797,0.321
	l-0.026,1.357c-0.019,0.332-0.083,0.651-0.188,0.957c-0.105,0.305-0.264,0.577-0.476,0.816c-0.213,0.238-0.482,0.421-0.812,0.549
	l-9.188,3.421l-4.645,1.623c-0.324,0.115-0.638,0.162-0.938,0.13c-0.303-0.035-0.576-0.116-0.828-0.252
	c-0.251-0.137-0.463-0.308-0.633-0.51l-0.965-1.165c-0.278,0.097-0.547,0.198-0.805,0.299c-0.263,0.104-0.542,0.244-0.842,0.42
	l3.641,9.78c0.35-0.029,0.7-0.09,1.042-0.188c0.344-0.092,0.654-0.196,0.939-0.303l-0.333-2.322
	c-0.051-0.313-0.024-0.541,0.089-0.695C50.282,327.38,50.51,327.248,50.844,327.129z"/>
<path fill="#FFFFFF" d="M114.951,408.657c0.233-0.663,0.347-1.344,0.335-2.045c-0.011-0.701-0.105-1.411-0.29-2.13
	c-0.176-0.719-0.412-1.44-0.694-2.152c-0.279-0.716-0.576-1.419-0.889-2.106c-0.309-0.684-0.597-1.34-0.852-1.959
	c-0.26-0.623-0.463-1.199-0.614-1.736c-0.147-0.532-0.207-1.012-0.181-1.437c0.025-0.416,0.17-0.773,0.432-1.06
	c0.413-0.433,0.834-0.713,1.272-0.856c0.438-0.137,0.876-0.159,1.314-0.067c0.442,0.095,0.875,0.265,1.299,0.524
	c0.424,0.261,0.831,0.573,1.211,0.936c0.457,0.428,0.853,0.905,1.175,1.419c0.327,0.519,0.568,1.063,0.717,1.634
	c0.152,0.575,0.191,1.158,0.121,1.752c-0.067,0.59-0.267,1.177-0.597,1.756l1.36,1.271l3.542-3.785
	c-0.201-0.523-0.47-1.055-0.793-1.609c-0.328-0.55-0.695-1.098-1.101-1.637c-0.406-0.547-0.83-1.066-1.274-1.557
	c-0.439-0.495-0.882-0.946-1.315-1.351c-0.594-0.557-1.272-1.025-2.014-1.399c-0.745-0.38-1.53-0.651-2.343-0.821
	c-0.821-0.169-1.634-0.224-2.451-0.161c-0.813,0.065-1.587,0.26-2.324,0.585c-0.738,0.326-1.397,0.796-1.979,1.411
	c-0.561,0.606-0.966,1.242-1.215,1.914c-0.249,0.663-0.371,1.344-0.379,2.042c-0.004,0.702,0.074,1.404,0.242,2.108
	c0.165,0.708,0.38,1.41,0.646,2.099c0.262,0.693,0.539,1.361,0.831,2.015c0.296,0.649,0.571,1.271,0.827,1.866
	c0.25,0.591,0.445,1.152,0.584,1.669c0.134,0.521,0.178,1.002,0.126,1.438c-0.048,0.433-0.228,0.818-0.534,1.154
	c-0.378,0.396-0.794,0.645-1.241,0.743c-0.447,0.105-0.906,0.1-1.372-0.01c-0.462-0.114-0.911-0.299-1.339-0.555
	c-0.428-0.248-0.81-0.537-1.149-0.855c-0.554-0.519-1.012-1.099-1.37-1.73c-0.362-0.635-0.604-1.293-0.725-1.983
	c-0.121-0.689-0.104-1.379,0.053-2.075c0.158-0.694,0.48-1.364,0.961-2.006l-1.553-1.454l-4.361,3.93
	c0.208,0.613,0.476,1.227,0.81,1.842c0.334,0.617,0.71,1.22,1.13,1.809c0.419,0.59,0.86,1.147,1.329,1.677
	c0.46,0.529,0.931,1.016,1.4,1.454c0.667,0.625,1.392,1.189,2.18,1.692c0.789,0.502,1.614,0.91,2.47,1.211
	c0.857,0.308,1.716,0.476,2.583,0.505c0.867,0.03,1.709-0.115,2.533-0.436c0.816-0.321,1.582-0.856,2.294-1.609
	C114.327,409.939,114.718,409.312,114.951,408.657z"/>
<path fill="#FFFFFF" d="M61.357,308.753c0.324,0.041,0.622,0.134,0.904,0.275c0.282,0.143,0.513,0.326,0.703,0.549l1.169,1.463
	c0.218-0.039,0.457-0.106,0.711-0.2c0.254-0.094,0.496-0.197,0.729-0.308l-2.285-8.715c-0.131,0-0.303,0.016-0.51,0.053
	c-0.208,0.03-0.409,0.071-0.609,0.111c-0.199,0.046-0.35,0.08-0.451,0.106l-0.371,2.235c-0.045,0.244-0.154,0.48-0.326,0.713
	c-0.173,0.231-0.381,0.438-0.625,0.614c-0.245,0.177-0.496,0.304-0.758,0.372l-8.582,2.221l-3.296,1.124l-0.059-0.224l13.269-16.169
	l-1.835-6.998c-0.131,0-0.3,0.028-0.506,0.069c-0.206,0.042-0.403,0.093-0.601,0.144c-0.196,0.057-0.346,0.096-0.447,0.122
	l-0.388,2.171c-0.027,0.2-0.109,0.391-0.242,0.579c-0.129,0.18-0.294,0.336-0.492,0.471c-0.2,0.132-0.418,0.233-0.658,0.296
	l-9.831,2.543l-3.804,0.882c-0.262,0.068-0.542,0.106-0.853,0.119c-0.304,0.01-0.612-0.012-0.917-0.064
	c-0.301-0.058-0.575-0.151-0.827-0.284c-0.248-0.14-0.442-0.317-0.582-0.546l-0.914-1.529c-0.147,0.027-0.318,0.072-0.52,0.128
	c-0.2,0.064-0.405,0.128-0.607,0.203c-0.204,0.07-0.386,0.14-0.545,0.204l2.46,9.384c0.097,0.002,0.229-0.015,0.399-0.042
	c0.164-0.026,0.344-0.055,0.534-0.093c0.184-0.036,0.356-0.075,0.513-0.109c0.156-0.035,0.273-0.065,0.348-0.084l0.092-2.911
	c0.015-0.247,0.05-0.438,0.119-0.568c0.068-0.131,0.174-0.226,0.32-0.298c0.147-0.072,0.339-0.144,0.578-0.212l4.938-1.379
	l5.636-1.458l2.512-0.854l0.059,0.223l-14.502,17.202l1.966,3.194l18.029-4.664C60.72,308.737,61.034,308.718,61.357,308.753z"/>
<path fill="#FFFFFF" d="M365.051,432.527c-0.335-0.067-0.671-0.16-1.016-0.267c-0.339-0.109-0.665-0.24-0.973-0.386
	c-0.312-0.15-0.587-0.327-0.828-0.521l-16.192-13.789l-3.308,3.012l2.077,20.546c0.042,0.351,0.051,0.675,0.019,0.972
	c-0.024,0.298-0.086,0.599-0.17,0.904c-0.091,0.304-0.201,0.644-0.336,1.016c0.146,0.262,0.303,0.522,0.467,0.774
	c0.167,0.256,0.343,0.481,0.532,0.687l7.529-4.174c-0.045-0.196-0.11-0.394-0.192-0.609c-0.083-0.206-0.178-0.414-0.273-0.607
	c-0.097-0.199-0.192-0.381-0.278-0.537l-2.195,0.495c-0.266,0.059-0.521,0.079-0.771,0.061c-0.251-0.02-0.485-0.099-0.699-0.233
	c-0.219-0.134-0.407-0.346-0.573-0.633c-0.072-0.132-0.135-0.268-0.194-0.418c-0.056-0.146-0.098-0.313-0.128-0.505l-0.58-4.201
	l6.772-3.754l3.068,2.86c0.152,0.138,0.285,0.273,0.394,0.403c0.11,0.129,0.21,0.277,0.296,0.432
	c0.177,0.307,0.257,0.624,0.249,0.939c-0.012,0.322-0.14,0.628-0.393,0.926l-1.438,1.52c0.18,0.325,0.351,0.609,0.522,0.851
	c0.164,0.238,0.367,0.467,0.6,0.693l8.722-4.833c-0.074-0.27-0.172-0.539-0.3-0.815
	C365.333,433.062,365.196,432.789,365.051,432.527z M346.616,431.421l-0.855-6.139l-0.533-2.744l0.204-0.112l1.96,2.029l4.399,4.099
	L346.616,431.421z"/>
<path fill="#FFFFFF" d="M447.179,349.03c-0.166-0.83-0.417-1.62-0.77-2.369c-0.344-0.751-0.808-1.437-1.388-2.058
	c-0.582-0.621-1.312-1.149-2.186-1.588l-14.844-7.342c-0.285-0.135-0.495-0.282-0.632-0.431c-0.137-0.147-0.207-0.331-0.226-0.543
	c-0.019-0.212,0.007-0.49,0.077-0.82l0.346-1.607c-0.128-0.076-0.297-0.159-0.502-0.255c-0.208-0.09-0.416-0.18-0.634-0.263
	c-0.214-0.087-0.407-0.159-0.571-0.215l-4.547,9.273c0.099,0.086,0.23,0.182,0.401,0.285c0.168,0.107,0.352,0.21,0.544,0.318
	c0.2,0.106,0.386,0.203,0.569,0.295l1.087-1.092c0.266-0.252,0.573-0.427,0.918-0.516c0.347-0.094,0.7-0.122,1.051-0.085
	c0.345,0.034,0.659,0.122,0.931,0.257l12.44,6.154c0.829,0.403,1.531,0.801,2.111,1.186c0.574,0.383,1.053,0.787,1.43,1.208
	c0.382,0.425,0.684,0.888,0.911,1.402c0.23,0.509,0.409,1.098,0.539,1.761c0.129,0.663,0.23,1.424,0.31,2.29l2.959-0.167
	c0.029-0.836,0.022-1.687-0.017-2.545C447.444,350.705,447.343,349.858,447.179,349.03z"/>
<path fill="#FFFFFF" d="M418.285,376.229c0.207,0.353,0.397,0.758,0.574,1.229c0.182,0.469,0.309,0.964,0.398,1.486
	c0.086,0.519,0.096,1.033,0.031,1.544c-0.061,0.507-0.229,0.978-0.507,1.408l-2.992,4.163l-5.143-4.001l-8.006-6.539
	c-0.309-0.236-0.513-0.51-0.618-0.822c-0.107-0.308-0.062-0.679,0.133-1.113l0.632-1.412c-0.178-0.202-0.397-0.407-0.65-0.613
	c-0.254-0.198-0.531-0.409-0.826-0.627l-6.429,7.924c0.172,0.217,0.372,0.43,0.602,0.638c0.229,0.2,0.458,0.394,0.683,0.575
	l1.428-0.811c0.211-0.12,0.458-0.206,0.741-0.255c0.278-0.052,0.569-0.051,0.866,0.004c0.302,0.06,0.581,0.191,0.842,0.397
	l7.717,6.261l3.833,3.239c0.249,0.223,0.428,0.467,0.538,0.736c0.11,0.268,0.167,0.542,0.164,0.818
	c-0.006,0.273-0.055,0.534-0.151,0.775l-0.648,1.486c0.246,0.199,0.501,0.392,0.757,0.579c0.263,0.186,0.517,0.348,0.771,0.491
	l11.35-13.988l-4.466-4.993L418.285,376.229z"/>
<path fill="#FFFFFF" d="M455.789,314.997c-0.298,0.163-0.613,0.309-0.941,0.45c-0.328,0.133-0.658,0.244-0.986,0.332
	c-0.333,0.085-0.655,0.128-0.964,0.134l-21.129-0.065l-0.577,4.408l14.763,14.251c0.256,0.238,0.471,0.479,0.638,0.725
	c0.173,0.242,0.318,0.51,0.451,0.794c0.127,0.29,0.262,0.617,0.398,0.987c0.278,0.105,0.564,0.203,0.851,0.288
	c0.291,0.087,0.568,0.145,0.844,0.178l3.033-7.997c-0.161-0.12-0.337-0.228-0.537-0.339c-0.197-0.104-0.401-0.199-0.598-0.287
	c-0.202-0.087-0.391-0.165-0.555-0.227l-1.348,1.784c-0.163,0.214-0.343,0.393-0.546,0.54c-0.203,0.146-0.43,0.237-0.68,0.272
	c-0.251,0.041-0.53-0.001-0.84-0.112c-0.14-0.053-0.274-0.116-0.416-0.193c-0.136-0.075-0.274-0.175-0.422-0.302l-3.136-2.813
	l2.729-7.195l4.163,0.201c0.203,0.007,0.39,0.025,0.556,0.053c0.166,0.027,0.336,0.074,0.501,0.137
	c0.331,0.119,0.595,0.308,0.791,0.552c0.199,0.252,0.297,0.566,0.297,0.955l-0.115,2.075c0.344,0.131,0.657,0.238,0.941,0.311
	c0.277,0.076,0.579,0.119,0.901,0.141l3.512-9.264c-0.229-0.156-0.475-0.298-0.75-0.425
	C456.346,315.219,456.067,315.101,455.789,314.997z M441.096,325.989l-4.588-4.105l-2.166-1.741l0.082-0.216l2.789,0.281
	l5.967,0.284L441.096,325.989z"/>
<path fill="#FFFFFF" d="M438.767,354.7c-0.326,0.101-0.666,0.181-1.019,0.252c-0.351,0.066-0.699,0.107-1.039,0.127
	c-0.347,0.017-0.672-0.006-0.979-0.062l-20.816-4.35l-1.462,4.228l11.664,17.042c0.204,0.287,0.367,0.567,0.482,0.844
	c0.121,0.273,0.21,0.566,0.284,0.875c0.065,0.31,0.132,0.661,0.191,1.052c0.253,0.161,0.516,0.314,0.78,0.456
	c0.269,0.145,0.531,0.259,0.796,0.349l4.611-7.27c-0.134-0.15-0.286-0.293-0.459-0.442c-0.173-0.142-0.355-0.278-0.532-0.403
	c-0.181-0.128-0.351-0.243-0.501-0.337l-1.691,1.485c-0.205,0.18-0.418,0.318-0.649,0.423c-0.229,0.104-0.472,0.146-0.725,0.129
	c-0.256-0.01-0.522-0.107-0.806-0.281c-0.126-0.079-0.247-0.169-0.37-0.274c-0.119-0.101-0.235-0.228-0.354-0.382l-2.521-3.41
	l4.148-6.539l4.063,1.042c0.199,0.048,0.38,0.104,0.539,0.165c0.158,0.061,0.316,0.143,0.466,0.237
	c0.302,0.186,0.524,0.423,0.668,0.705c0.145,0.289,0.178,0.619,0.099,1.002l-0.535,2.023c0.314,0.198,0.6,0.367,0.866,0.496
	c0.259,0.131,0.547,0.235,0.859,0.321l5.341-8.419c-0.194-0.201-0.409-0.391-0.654-0.573
	C439.271,355.032,439.02,354.86,438.767,354.7z M422.055,362.557l-3.692-4.978l-1.781-2.154l0.124-0.197l2.693,0.842l5.825,1.492
	L422.055,362.557z"/>
<path fill="#FFFFFF" d="M461.427,266.192c0.199-0.047,0.386-0.078,0.555-0.095c0.169-0.017,0.346-0.016,0.523,0.002
	c0.354,0.029,0.658,0.143,0.913,0.33c0.259,0.193,0.438,0.473,0.539,0.85l0.431,2.047c0.369,0.037,0.7,0.059,0.997,0.055
	c0.288,0.001,0.593-0.036,0.911-0.099l0.988-9.922c-0.264-0.092-0.54-0.165-0.841-0.217c-0.296-0.052-0.598-0.092-0.896-0.122
	c-0.246,0.236-0.514,0.46-0.797,0.683c-0.283,0.217-0.575,0.41-0.871,0.581c-0.301,0.17-0.604,0.296-0.901,0.384l-20.552,5.467
	l0.594,4.434l18.077,9.985c0.313,0.165,0.584,0.342,0.81,0.537c0.231,0.19,0.442,0.412,0.648,0.654
	c0.197,0.248,0.414,0.531,0.644,0.854c0.297,0.03,0.602,0.049,0.901,0.057c0.306,0.008,0.591-0.009,0.868-0.047l0.854-8.566
	c-0.188-0.074-0.388-0.133-0.61-0.188c-0.218-0.049-0.442-0.089-0.656-0.122c-0.22-0.033-0.424-0.058-0.6-0.076l-0.843,2.087
	c-0.104,0.251-0.231,0.473-0.389,0.668c-0.159,0.196-0.358,0.343-0.59,0.442c-0.232,0.105-0.514,0.138-0.846,0.111
	c-0.148-0.015-0.296-0.042-0.454-0.079c-0.153-0.038-0.313-0.099-0.488-0.183l-3.785-1.913l0.768-7.706L461.427,266.192z
	 M454.146,273.55l-5.533-2.789l-2.561-1.124l0.023-0.231l2.785-0.458l5.872-1.285L454.146,273.55z"/>
<path fill="#FFFFFF" d="M462.086,287.319c-0.426,0.453-0.932,0.878-1.521,1.268c-0.583,0.396-1.246,0.784-1.98,1.169
	c-0.49,0.258-1.016,0.501-1.585,0.729c-0.564,0.236-1.137,0.452-1.716,0.65c-0.573,0.199-1.124,0.376-1.643,0.536
	c-0.519,0.155-0.98,0.289-1.375,0.397c-0.195-0.988-0.543-1.855-1.044-2.601c-0.506-0.746-1.112-1.354-1.821-1.833
	c-0.709-0.479-1.463-0.81-2.274-0.994c-1.189-0.265-2.249-0.272-3.176-0.022c-0.925,0.244-1.732,0.697-2.415,1.348
	c-0.681,0.651-1.255,1.453-1.716,2.404c-0.46,0.953-0.819,2.007-1.076,3.159l-2.636,11.603c0.138,0.088,0.319,0.169,0.547,0.244
	c0.232,0.075,0.451,0.136,0.667,0.186c0.216,0.049,0.374,0.079,0.473,0.09l1.344-2.012c0.158-0.219,0.357-0.373,0.603-0.453
	c0.24-0.082,0.488-0.1,0.74-0.06l10.339,2.349l4.58,1.142c0.292,0.09,0.564,0.219,0.821,0.386c0.256,0.172,0.467,0.367,0.632,0.598
	c0.169,0.227,0.255,0.473,0.269,0.738l0.1,1.658c0.144,0.044,0.322,0.085,0.539,0.128c0.219,0.038,0.443,0.079,0.669,0.107
	c0.225,0.034,0.424,0.057,0.597,0.073l2.319-10.21c-0.09-0.054-0.218-0.112-0.402-0.177c-0.181-0.063-0.37-0.124-0.583-0.184
	c-0.209-0.058-0.401-0.113-0.573-0.158c-0.177-0.045-0.306-0.076-0.382-0.092l-1.131,2.128c-0.134,0.237-0.296,0.381-0.479,0.437
	s-0.42,0.046-0.705-0.024l-5.726-1.198l0.604-2.658c0.035-0.151,0.072-0.313,0.099-0.483c0.033-0.169,0.048-0.313,0.043-0.438
	c0.687-0.151,1.422-0.336,2.203-0.546c0.78-0.208,1.568-0.451,2.362-0.718c0.794-0.269,1.549-0.569,2.271-0.894
	c0.722-0.33,1.371-0.682,1.94-1.064c0.737-0.52,1.355-1.089,1.865-1.706c0.51-0.623,0.934-1.265,1.261-1.929
	c0.328-0.665,0.592-1.326,0.787-1.986c0.194-0.655,0.342-1.28,0.449-1.875l-2.113-0.753
	C462.87,286.349,462.521,286.86,462.086,287.319z M449.5,297.643l-0.597,2.625l-8.556-1.944l0.489-2.002
	c0.424-1.817,1.094-3.115,2.008-3.889c0.915-0.775,2.09-1.002,3.528-0.682c0.963,0.213,1.713,0.56,2.262,1.048
	c0.543,0.481,0.886,1.122,1.03,1.915C449.806,295.515,449.75,296.489,449.5,297.643z"/>
<path fill="#FFFFFF" d="M200.114,438.72c-0.969-0.8-2.093-1.503-3.376-2.103c-1.283-0.6-2.682-1.124-4.189-1.571L183,432.174
	c-0.154,0.243-0.281,0.512-0.379,0.817c-0.103,0.305-0.186,0.581-0.256,0.832l1.41,1.083c0.335,0.251,0.571,0.583,0.716,0.984
	c0.144,0.407,0.133,0.885-0.023,1.445l-2.795,9.294l-1.61,4.895c-0.142,0.473-0.358,0.807-0.648,1.003
	c-0.285,0.196-0.635,0.283-1.049,0.256l-1.862-0.039c-0.101,0.334-0.18,0.656-0.241,0.974c-0.059,0.311-0.1,0.624-0.123,0.929
	l9.835,2.958c1.962,0.59,3.824,0.884,5.583,0.881c1.754-0.004,3.365-0.325,4.827-0.949c1.455-0.627,2.723-1.576,3.795-2.85
	c1.066-1.275,1.903-2.887,2.494-4.832c0.518-1.742,0.744-3.299,0.677-4.673c-0.067-1.373-0.382-2.596-0.943-3.655
	C201.847,440.461,201.081,439.525,200.114,438.72z M197.601,449.058c-0.542,1.822-1.296,3.272-2.247,4.357
	c-0.957,1.083-2.119,1.776-3.493,2.074c-1.374,0.298-2.958,0.181-4.763-0.356l-2.673-0.805l1.694-6.327l3.321-11.044l2.228,0.669
	c1.877,0.57,3.353,1.396,4.417,2.474c1.065,1.071,1.728,2.37,1.979,3.88C198.321,445.493,198.164,447.186,197.601,449.058z"/>
<path fill="#FFFFFF" d="M266.4,462.968c-0.784,0.568-1.768,0.896-2.95,0.977l-5.039,0.395l-0.465-6.566l-0.054-1.196l9.005-0.242
	l-0.138-3.055l-8.99,0.575l-0.347-7.637l5.916-0.135c0.487-0.017,0.912,0.047,1.279,0.197c0.367,0.149,0.684,0.417,0.946,0.806
	c0.262,0.387,0.48,0.932,0.656,1.628c0.161,0.003,0.377-0.001,0.637-0.018s0.524-0.046,0.784-0.08
	c0.259-0.034,0.473-0.077,0.631-0.128l-0.248-5.445l-18.228,0.828c-0.066,0.252-0.098,0.525-0.09,0.824
	c0.003,0.3,0.018,0.627,0.039,0.975l2.13,0.769c0.18,0.052,0.345,0.139,0.489,0.254c0.143,0.11,0.262,0.277,0.355,0.494
	c0.087,0.218,0.145,0.503,0.161,0.869l0.45,9.895l0.147,5.449c0.005,0.244-0.051,0.469-0.17,0.668
	c-0.124,0.2-0.288,0.368-0.498,0.511c-0.209,0.142-0.438,0.247-0.695,0.314l-1.707,0.511c-0.003,0.287,0.016,0.603,0.065,0.939
	c0.042,0.341,0.108,0.676,0.189,1.011l18.926-0.859l0.539-5.714l-2.044-0.306C267.746,461.564,267.184,462.4,266.4,462.968z"/>
<path fill="#FFFFFF" d="M243.849,447.205c-0.773-0.918-1.721-1.667-2.837-2.246c-1.117-0.575-2.366-1.02-3.747-1.331
	c-1.382-0.312-2.86-0.525-4.428-0.641l-9.941-0.767c-0.099,0.27-0.166,0.559-0.196,0.878c-0.036,0.318-0.058,0.605-0.073,0.865
	l1.608,0.755c0.381,0.174,0.683,0.446,0.91,0.808c0.228,0.367,0.319,0.833,0.285,1.412l-0.747,9.651l-0.529,5.114
	c-0.038,0.491-0.178,0.862-0.419,1.115c-0.236,0.253-0.56,0.411-0.97,0.474l-1.828,0.357c-0.027,0.347-0.036,0.679-0.027,1.001
	c0.008,0.316,0.034,0.628,0.078,0.932l10.239,0.789c2.044,0.157,3.925,0.047,5.643-0.331c1.712-0.378,3.219-1.032,4.512-1.951
	c1.289-0.92,2.326-2.115,3.101-3.585c0.769-1.47,1.243-3.218,1.406-5.24c0.135-1.807,0.022-3.373-0.336-4.697
	S244.623,448.119,243.849,447.205z M240.762,455.568c-0.141,1.89-0.569,3.464-1.266,4.724c-0.703,1.259-1.691,2.181-2.97,2.764
	c-1.278,0.583-2.852,0.805-4.729,0.666l-2.784-0.214l0.306-6.527l0.888-11.471l2.32,0.18c1.954,0.155,3.572,0.646,4.842,1.47
	c1.27,0.819,2.194,1.943,2.762,3.36C240.705,451.939,240.913,453.624,240.762,455.568z"/>
<path fill="#FFFFFF" d="M305.277,449.934l1.587,6.455c-0.129,0.054-0.3,0.125-0.515,0.2c-0.219,0.083-0.446,0.161-0.678,0.235
	c-0.237,0.076-0.451,0.14-0.638,0.186c-1.264,0.289-2.479,0.404-3.644,0.355c-1.166-0.056-2.241-0.317-3.227-0.781
	c-0.982-0.466-1.835-1.175-2.559-2.122c-0.723-0.945-1.275-2.167-1.648-3.661c-0.387-1.599-0.534-3.006-0.438-4.239
	c0.097-1.228,0.395-2.288,0.901-3.176c0.502-0.883,1.167-1.611,1.998-2.174c0.836-0.566,1.796-0.978,2.883-1.24
	c1.056-0.254,2.01-0.317,2.864-0.185c0.859,0.13,1.623,0.427,2.296,0.889c0.673,0.468,1.255,1.066,1.755,1.805
	c0.202-0.039,0.423-0.087,0.662-0.141c0.237-0.052,0.464-0.108,0.678-0.167c0.213-0.058,0.378-0.105,0.5-0.146l-1.311-5.325
	c-0.63-0.079-1.228-0.143-1.805-0.195c-0.577-0.046-1.169-0.065-1.772-0.061c-0.607,0.013-1.272,0.067-1.991,0.164
	c-0.716,0.103-1.532,0.264-2.447,0.488c-1.461,0.365-2.778,0.901-3.946,1.604c-1.167,0.703-2.176,1.545-3.021,2.517
	c-0.845,0.972-1.511,2.044-1.994,3.212c-0.488,1.17-0.777,2.405-0.875,3.701c-0.097,1.296,0.021,2.613,0.348,3.964
	c0.661,2.639,1.688,4.685,3.097,6.141c1.411,1.45,3.147,2.358,5.218,2.709c2.068,0.359,4.42,0.208,7.065-0.449
	c1.388-0.341,2.688-0.764,3.902-1.279c1.208-0.514,2.334-1.128,3.374-1.846l-2.104-8.552L305.277,449.934z"/>
<path fill="#FFFFFF" d="M382.562,406.978c-1.083-1.458-2.194-2.573-3.333-3.344c-1.14-0.771-2.307-1.252-3.491-1.439
	c-1.187-0.191-2.395-0.14-3.619,0.15c-1.222,0.295-2.458,0.773-3.708,1.44c-1.25,0.667-2.508,1.47-3.771,2.409l-8.025,5.918
	c0.103,0.268,0.241,0.531,0.427,0.793c0.181,0.265,0.353,0.497,0.512,0.703l1.711-0.478c0.403-0.117,0.809-0.107,1.218,0.018
	c0.411,0.129,0.788,0.423,1.141,0.886l5.76,7.81l2.951,4.226c0.292,0.397,0.43,0.771,0.413,1.121
	c-0.012,0.346-0.155,0.677-0.424,0.993l-1.148,1.467c0.207,0.281,0.418,0.539,0.635,0.777c0.214,0.234,0.438,0.455,0.669,0.656
	l8.265-6.097c1.649-1.216,3.001-2.529,4.054-3.938c1.048-1.406,1.76-2.887,2.135-4.432c0.372-1.54,0.374-3.125-0.003-4.746
	C384.55,410.254,383.763,408.617,382.562,406.978z M380.585,419.007c-0.586,1.278-1.629,2.475-3.142,3.598l-2.248,1.657
	l-4.047-5.151l-6.845-9.282l1.873-1.38c1.582-1.161,3.127-1.845,4.628-2.051c1.498-0.209,2.932,0.039,4.293,0.744
	c1.363,0.702,2.625,1.843,3.785,3.417c1.132,1.525,1.84,2.999,2.138,4.411C381.314,416.384,381.17,417.729,380.585,419.007z"/>
<path fill="#FFFFFF" d="M336.905,439.521l-4.053-10.049c-0.121-0.316-0.182-0.572-0.172-0.768c0.016-0.197,0.066-0.354,0.167-0.474
	c0.095-0.121,0.21-0.235,0.34-0.328l1.33-1.146c-0.056-0.139-0.129-0.306-0.217-0.51c-0.093-0.2-0.189-0.407-0.293-0.61
	c-0.101-0.205-0.201-0.379-0.296-0.525l-8.692,3.505c0.004,0.1,0.031,0.226,0.083,0.385c0.049,0.154,0.109,0.315,0.177,0.484
	c0.068,0.17,0.138,0.327,0.2,0.47c0.059,0.143,0.108,0.249,0.136,0.321l1.519-0.147c0.523-0.05,0.957-0.009,1.292,0.125
	c0.342,0.136,0.613,0.32,0.811,0.557c0.195,0.232,0.341,0.477,0.437,0.73l3.569,8.846c0.508,1.277,0.799,2.384,0.87,3.329
	c0.07,0.945-0.029,1.75-0.301,2.421c-0.274,0.666-0.672,1.22-1.195,1.658c-0.52,0.443-1.12,0.792-1.8,1.061
	c-0.506,0.21-1.051,0.371-1.625,0.488c-0.573,0.118-1.158,0.15-1.749,0.107c-0.597-0.045-1.174-0.201-1.743-0.473
	c-0.569-0.272-1.1-0.698-1.596-1.262c-0.499-0.569-0.938-1.318-1.32-2.251l-4.264-10.572c-0.122-0.286-0.156-0.535-0.1-0.737
	c0.056-0.202,0.224-0.394,0.504-0.574l1.792-1.152c-0.046-0.143-0.113-0.325-0.197-0.547c-0.09-0.222-0.179-0.443-0.28-0.665
	c-0.097-0.224-0.19-0.413-0.275-0.565l-9.771,3.941c0.016,0.096,0.042,0.223,0.089,0.383c0.044,0.154,0.092,0.32,0.152,0.494
	c0.058,0.173,0.116,0.335,0.17,0.48c0.053,0.146,0.096,0.255,0.125,0.326l2.03-0.03c0.202-0.004,0.402,0.047,0.605,0.151
	c0.197,0.105,0.377,0.253,0.541,0.438c0.159,0.188,0.29,0.391,0.382,0.622l4.215,10.45c0.563,1.368,1.22,2.447,1.977,3.229
	c0.752,0.783,1.571,1.331,2.45,1.646c0.879,0.314,1.785,0.457,2.724,0.43c0.932-0.029,1.868-0.168,2.792-0.421
	c0.927-0.249,1.814-0.553,2.665-0.902c0.647-0.261,1.303-0.591,1.956-0.986c0.655-0.402,1.278-0.873,1.866-1.416
	c0.583-0.539,1.102-1.149,1.542-1.835c0.445-0.687,0.774-1.44,1-2.272c0.221-0.83,0.292-1.737,0.215-2.709
	C337.616,441.695,337.355,440.648,336.905,439.521z"/>
<path fill="#FFFFFF" d="M408.427,396.497c-0.341,0.021-0.69,0.018-1.05,0.003c-0.357-0.019-0.704-0.062-1.041-0.123
	c-0.339-0.066-0.65-0.167-0.933-0.293l-19.186-9.175l-2.426,3.758l7.275,19.328c0.131,0.328,0.223,0.638,0.268,0.933
	c0.053,0.295,0.07,0.601,0.067,0.918c-0.01,0.317-0.028,0.674-0.064,1.069c0.207,0.215,0.426,0.427,0.65,0.627
	c0.227,0.205,0.455,0.377,0.691,0.528l6.207-5.964c-0.094-0.179-0.208-0.354-0.342-0.539c-0.134-0.18-0.279-0.355-0.421-0.519
	c-0.145-0.167-0.283-0.319-0.406-0.447l-1.995,1.041c-0.243,0.125-0.482,0.21-0.73,0.256c-0.249,0.046-0.495,0.029-0.736-0.046
	c-0.246-0.072-0.481-0.229-0.715-0.465c-0.104-0.107-0.2-0.223-0.295-0.354c-0.091-0.127-0.175-0.278-0.253-0.456l-1.638-3.911
	l5.584-5.365l3.698,1.978c0.182,0.094,0.344,0.191,0.484,0.288c0.139,0.097,0.274,0.214,0.396,0.341
	c0.25,0.252,0.409,0.538,0.481,0.844c0.072,0.315,0.026,0.644-0.142,0.997l-1,1.837c0.257,0.268,0.495,0.5,0.722,0.688
	c0.22,0.188,0.475,0.358,0.758,0.516l7.19-6.908c-0.141-0.242-0.304-0.477-0.499-0.712
	C408.838,396.94,408.634,396.713,408.427,396.497z M390.325,400.154l-2.401-5.713l-1.218-2.517l0.167-0.161l2.415,1.459l5.304,2.833
	L390.325,400.154z"/>
</svg>
