<svg xmlns="http://www.w3.org/2000/svg" viewBox="0 0 156 200" width="156" height="200">
	<style>
		tspan { white-space:pre }
		.shp0 { fill: #e4e5e7 } 
		.shp1 { fill: #000201 } 
		.shp2 { fill: #fefefe } 
		.shp3 { fill: #00793c } 
		.shp4 { fill: #fcb817 } 
	</style>
	<g >
		<path class="shp0" d="M64.87 0.05C64.84 0.08 63.85 0.13 62.67 0.15C61.49 0.17 59.63 0.23 58.53 0.29C57.42 0.35 55.33 0.46 53.87 0.53C52.41 0.59 51.17 0.68 51.12 0.71C51.06 0.75 49.96 0.81 48.66 0.85C47.37 0.89 46.24 0.96 46.16 1.01C46.08 1.05 45.2 1.13 44.21 1.19C43.22 1.25 41.77 1.34 41 1.39C40.23 1.45 39.44 1.54 39.25 1.6C39.06 1.65 38.51 1.7 38.04 1.7C37.57 1.7 37.15 1.73 37.11 1.78C37.07 1.82 36.3 1.9 35.41 1.97C34.52 2.04 33.16 2.16 32.39 2.24C31.62 2.33 30.58 2.44 30.09 2.5C29.59 2.56 29.07 2.61 28.94 2.61C28.8 2.61 28.64 2.64 28.59 2.69C28.53 2.74 27.95 2.81 27.28 2.85C26.62 2.88 25.98 2.96 25.86 3.01C25.73 3.06 25.39 3.1 25.08 3.1C24.78 3.1 24.51 3.15 24.48 3.2C24.45 3.25 23.91 3.33 23.27 3.38C22.63 3.42 22.09 3.48 22.07 3.53C22.05 3.57 21.57 3.63 21 3.66C20.44 3.69 19.93 3.76 19.88 3.8C19.82 3.84 19.43 3.9 19 3.94C18.57 3.97 18.13 4.05 18.02 4.1C17.91 4.16 17.6 4.2 17.32 4.2C17.05 4.2 16.8 4.23 16.78 4.28C16.76 4.32 16.3 4.39 15.76 4.44C15.21 4.48 14.72 4.56 14.67 4.6C14.61 4.64 14.19 4.71 13.72 4.75C13.25 4.79 12.82 4.85 12.77 4.9C12.71 4.94 12.37 5 12.02 5.04C11.66 5.07 11.25 5.13 11.11 5.16C10.98 5.2 10.66 5.25 10.41 5.27C10.17 5.3 9.92 5.36 9.86 5.41C9.81 5.46 9.44 5.53 9.04 5.57C8.64 5.62 8.31 5.67 8.31 5.7C8.31 5.73 8.03 5.78 7.69 5.82C7.34 5.87 6.99 5.91 6.91 5.93C6.83 5.95 6.69 6 6.61 6.03C6.53 6.06 6.26 6.11 6.01 6.15C5.76 6.18 5.44 6.21 5.31 6.21C5.17 6.21 5.01 6.25 4.96 6.3C4.9 6.34 4.61 6.41 4.31 6.46C4 6.5 3.69 6.55 3.6 6.57C3.52 6.58 3.27 6.63 3.05 6.66C2.83 6.7 2.61 6.76 2.55 6.81C2.5 6.85 2.1 6.93 1.67 6.97C1.23 7.01 0.86 7.08 0.84 7.13C0.82 7.17 0.62 7.2 0.4 7.2L0 7.2C0.05 80.71 0.09 102.14 0.12 102.25C0.14 102.36 0.19 102.52 0.23 102.6C0.26 102.68 0.32 103.11 0.34 103.55C0.37 103.99 0.45 105.03 0.52 105.85C0.59 106.68 0.68 107.4 0.72 107.45C0.75 107.5 0.81 107.93 0.85 108.4C0.89 108.87 0.96 109.3 1 109.35C1.04 109.41 1.11 109.74 1.14 110.1C1.17 110.46 1.21 110.94 1.23 111.17C1.24 111.4 1.29 111.62 1.33 111.67C1.37 111.71 1.41 111.9 1.4 112.08C1.4 112.25 1.47 112.57 1.55 112.78C1.64 112.98 1.71 113.39 1.7 113.68C1.7 113.96 1.75 114.22 1.8 114.25C1.86 114.28 1.9 114.44 1.9 114.6C1.9 114.77 1.96 115.05 2.04 115.23C2.11 115.4 2.2 115.9 2.24 116.33C2.27 116.75 2.35 117.12 2.4 117.15C2.46 117.18 2.53 117.43 2.55 117.7C2.58 117.98 2.65 118.22 2.7 118.25C2.76 118.28 2.8 118.5 2.8 118.75C2.8 119 2.85 119.22 2.9 119.25C2.96 119.28 3 119.46 3 119.65C3 119.84 3.05 120.02 3.1 120.05C3.16 120.08 3.18 120.15 3.15 120.2C3.13 120.25 3.15 120.32 3.2 120.35C3.26 120.38 3.33 120.61 3.36 120.88C3.39 121.14 3.45 121.42 3.5 121.5C3.54 121.58 3.62 121.88 3.66 122.15C3.7 122.43 3.82 122.81 3.91 123C4.01 123.19 4.06 123.4 4.03 123.45C4 123.5 4.04 123.66 4.1 123.8C4.17 123.94 4.27 124.13 4.32 124.23C4.37 124.32 4.4 124.46 4.4 124.53C4.4 124.59 4.49 124.92 4.59 125.25C4.7 125.58 4.8 125.98 4.83 126.15C4.85 126.32 4.94 126.6 5.04 126.78C5.13 126.95 5.2 127.11 5.2 127.13C5.2 127.14 5.21 127.22 5.24 127.3C5.26 127.38 5.36 127.72 5.46 128.05C5.57 128.38 5.71 128.76 5.78 128.9C5.85 129.04 5.91 129.22 5.9 129.3C5.9 129.38 5.97 129.59 6.05 129.75C6.14 129.92 6.21 130.13 6.21 130.22C6.21 130.32 6.25 130.4 6.31 130.4C6.36 130.4 6.43 130.59 6.46 130.83C6.49 131.06 6.6 131.4 6.71 131.58C6.82 131.75 6.91 131.96 6.91 132.03C6.91 132.09 6.98 132.28 7.06 132.45C7.15 132.62 7.25 132.9 7.29 133.09C7.33 133.27 7.39 133.44 7.43 133.46C7.48 133.48 7.51 133.58 7.51 133.68C7.5 133.77 7.57 133.92 7.66 134C7.75 134.08 7.82 134.24 7.82 134.35C7.81 134.46 7.95 134.84 8.13 135.2C8.3 135.56 8.48 135.96 8.53 136.1C8.59 136.24 8.69 136.48 8.76 136.65C8.83 136.82 9.1 137.38 9.35 137.9C9.6 138.42 9.82 138.95 9.83 139.07C9.85 139.19 9.92 139.35 9.99 139.42C10.06 139.49 10.12 139.62 10.12 139.7C10.13 139.78 10.21 139.98 10.32 140.15C10.42 140.32 10.54 140.52 10.57 140.6C10.61 140.68 10.77 141.02 10.93 141.35C11.09 141.68 11.26 142.02 11.31 142.1C11.36 142.18 11.55 142.57 11.73 142.95C11.91 143.34 12.19 143.86 12.34 144.13C12.49 144.39 12.61 144.66 12.61 144.72C12.61 144.79 12.7 144.94 12.82 145.05C12.93 145.16 13.05 145.34 13.09 145.45C13.12 145.56 13.25 145.82 13.38 146.03C13.51 146.23 13.62 146.47 13.62 146.55C13.62 146.63 13.66 146.7 13.72 146.7C13.77 146.7 13.85 146.8 13.88 146.93C13.91 147.05 14.07 147.34 14.23 147.58C14.39 147.81 14.52 148.02 14.52 148.05C14.52 148.08 14.65 148.3 14.82 148.55C14.98 148.8 15.12 149.02 15.12 149.05C15.12 149.08 15.27 149.34 15.46 149.63C15.65 149.91 15.88 150.31 15.99 150.5C16.09 150.69 16.35 151.12 16.56 151.45C16.77 151.78 17.03 152.17 17.14 152.33C17.24 152.48 17.32 152.63 17.32 152.68C17.32 152.72 17.39 152.82 17.48 152.9C17.57 152.98 17.77 153.28 17.92 153.55C18.08 153.83 18.29 154.14 18.39 154.25C18.49 154.36 18.62 154.56 18.68 154.7C18.74 154.84 19 155.2 19.24 155.5C19.49 155.8 19.72 156.14 19.76 156.25C19.79 156.36 19.94 156.57 20.07 156.73C20.21 156.88 20.33 157.02 20.33 157.05C20.33 157.08 20.47 157.29 20.65 157.53C20.83 157.76 21.01 157.96 21.05 157.98C21.09 157.99 21.13 158.05 21.13 158.1C21.13 158.16 21.23 158.34 21.35 158.52C21.48 158.7 21.7 158.98 21.85 159.15C22 159.31 22.18 159.56 22.25 159.7C22.32 159.84 22.47 160.04 22.58 160.15C22.69 160.26 22.94 160.55 23.13 160.8C23.32 161.05 23.51 161.26 23.55 161.28C23.6 161.29 23.63 161.35 23.63 161.4C23.63 161.46 23.93 161.85 24.29 162.28C24.65 162.7 25.14 163.27 25.37 163.54C25.6 163.8 25.9 164.18 26.03 164.36C26.17 164.55 26.32 164.7 26.36 164.7C26.4 164.7 26.43 164.76 26.43 164.83C26.43 164.89 26.61 165.12 26.83 165.33C27.05 165.53 27.23 165.75 27.23 165.8C27.23 165.86 27.33 165.96 27.44 166.03C27.55 166.09 27.64 166.2 27.64 166.25C27.64 166.31 27.86 166.56 28.14 166.83C28.41 167.09 28.64 167.32 28.64 167.35C28.64 167.38 28.74 167.5 28.86 167.63C28.99 167.76 29.5 168.29 30.01 168.81C30.52 169.33 30.93 169.78 30.94 169.83C30.94 169.87 31.01 169.97 31.09 170.05C31.17 170.13 31.29 170.2 31.34 170.2C31.4 170.2 31.44 170.26 31.44 170.33C31.44 170.39 32.22 171.2 33.17 172.13C34.12 173.05 34.92 173.8 34.94 173.8C34.97 173.81 35.27 174.07 35.6 174.4C35.93 174.73 36.25 175 36.32 175C36.39 175 36.45 175.07 36.45 175.15C36.45 175.23 36.5 175.3 36.57 175.3C36.64 175.31 36.88 175.53 37.1 175.8C37.32 176.08 37.53 176.3 37.57 176.3C37.61 176.3 38 176.6 38.42 176.96C38.85 177.32 39.42 177.8 39.7 178.03C39.97 178.26 40.23 178.44 40.27 178.43C40.32 178.41 40.35 178.46 40.35 178.53C40.35 178.59 40.56 178.81 40.81 179C41.06 179.19 41.35 179.42 41.44 179.5C41.53 179.58 41.81 179.81 42.05 180C42.3 180.19 42.6 180.44 42.74 180.55C42.87 180.66 43.14 180.89 43.34 181.07C43.54 181.25 43.76 181.39 43.83 181.4C43.9 181.4 43.97 181.43 43.98 181.48C44 181.52 44.45 181.89 44.99 182.3C45.53 182.71 46.15 183.17 46.37 183.33C46.58 183.48 46.79 183.6 46.84 183.6C46.88 183.6 47.01 183.7 47.12 183.83C47.24 183.95 47.67 184.28 48.07 184.55C48.48 184.83 48.85 185.11 48.89 185.18C48.93 185.24 49.03 185.3 49.11 185.3C49.2 185.3 49.3 185.36 49.34 185.43C49.38 185.5 49.55 185.64 49.71 185.75C49.88 185.86 50.1 186 50.21 186.07C50.32 186.14 50.53 186.25 50.66 186.32C50.8 186.39 50.94 186.47 50.97 186.5C50.99 186.53 51.15 186.64 51.32 186.76C51.48 186.87 51.99 187.22 52.44 187.53C52.9 187.85 53.31 188.1 53.37 188.1C53.42 188.1 53.47 188.15 53.47 188.2C53.47 188.25 53.64 188.37 53.84 188.45C54.05 188.54 54.35 188.69 54.52 188.78C54.69 188.87 54.84 188.98 54.87 189.01C54.9 189.04 55.22 189.28 55.6 189.54C55.97 189.79 56.33 190 56.4 190.01C56.47 190.01 56.66 190.1 56.82 190.21C56.99 190.31 57.29 190.46 57.5 190.55C57.71 190.63 57.87 190.75 57.87 190.8C57.87 190.86 57.98 190.94 58.1 191C58.22 191.05 58.39 191.14 58.47 191.2C58.56 191.25 58.74 191.35 58.88 191.4C59.01 191.46 59.33 191.62 59.58 191.77C59.82 191.91 60.16 192.11 60.33 192.21C60.49 192.31 60.79 192.47 60.98 192.56C61.17 192.65 61.55 192.84 61.83 192.98C62.1 193.12 62.39 193.3 62.46 193.37C62.52 193.44 62.64 193.5 62.71 193.5C62.77 193.49 62.9 193.56 62.98 193.65C63.06 193.74 63.2 193.8 63.28 193.8C63.36 193.8 63.49 193.86 63.56 193.95C63.63 194.03 63.72 194.09 63.76 194.08C63.8 194.07 63.94 194.1 64.08 194.14C64.22 194.19 64.47 194.33 64.63 194.46C64.8 194.59 65.02 194.69 65.13 194.69C65.24 194.69 65.4 194.76 65.48 194.85C65.57 194.94 65.71 195.01 65.81 195C65.91 195 65.98 195.05 65.98 195.1C65.98 195.16 66.06 195.2 66.16 195.2C66.26 195.2 66.74 195.4 67.24 195.65C67.73 195.9 68.18 196.15 68.24 196.21C68.29 196.26 68.42 196.3 68.51 196.3C68.61 196.3 68.95 196.44 69.26 196.61C69.58 196.78 70.18 197.05 70.59 197.22C71 197.38 71.43 197.56 71.54 197.6C71.65 197.65 71.96 197.78 72.22 197.89C72.48 198.01 72.76 198.1 72.84 198.1C72.93 198.1 73.16 198.21 73.37 198.35C73.58 198.49 73.85 198.6 73.97 198.6C74.09 198.6 74.2 198.65 74.2 198.7C74.2 198.75 74.27 198.8 74.37 198.8C74.47 198.8 74.68 198.87 74.85 198.95C75.01 199.04 75.19 199.11 75.25 199.11C75.3 199.11 75.53 199.19 75.75 199.3C75.97 199.41 76.23 199.49 76.32 199.5C76.42 199.5 76.66 199.59 76.85 199.7C77.04 199.81 77.24 199.88 77.3 199.85C77.35 199.82 77.4 199.85 77.4 199.9C77.4 199.96 77.68 199.99 78.08 199.98C78.52 199.96 78.91 199.88 79.21 199.74C79.45 199.62 79.87 199.43 80.13 199.31C80.39 199.19 80.66 199.1 80.73 199.1C80.8 199.1 80.99 199.04 81.15 198.95C81.32 198.87 81.53 198.8 81.63 198.8C81.73 198.8 81.83 198.75 81.85 198.7C81.88 198.65 82.15 198.52 82.46 198.43C82.76 198.33 83.01 198.22 83.01 198.18C83.01 198.13 83.07 198.1 83.16 198.1C83.24 198.1 83.48 198.01 83.68 197.9C83.89 197.79 84.14 197.7 84.23 197.7C84.33 197.7 84.43 197.66 84.46 197.6C84.49 197.55 84.58 197.5 84.66 197.5C84.74 197.5 85.11 197.35 85.48 197.18C85.86 197 86.18 196.85 86.21 196.84C86.24 196.84 86.51 196.72 86.81 196.58C87.11 196.44 87.51 196.27 87.69 196.19C87.87 196.11 88.01 196.02 88.01 195.98C88.01 195.93 88.08 195.92 88.16 195.95C88.25 195.98 88.34 195.96 88.36 195.9C88.39 195.85 88.5 195.8 88.61 195.8C88.72 195.8 88.83 195.77 88.84 195.73C88.85 195.68 89.07 195.55 89.31 195.43C89.56 195.31 89.83 195.2 89.92 195.2C90 195.2 90.2 195.09 90.37 194.96C90.53 194.83 90.78 194.69 90.92 194.65C91.05 194.61 91.39 194.46 91.67 194.31C91.94 194.17 92.18 194.02 92.19 193.98C92.21 193.93 92.32 193.9 92.44 193.9C92.57 193.89 92.71 193.83 92.77 193.76C92.82 193.69 93.07 193.55 93.32 193.45C93.57 193.34 93.94 193.16 94.15 193.03C94.35 192.9 94.57 192.8 94.62 192.8C94.68 192.8 94.72 192.75 94.72 192.7C94.72 192.65 94.76 192.62 94.8 192.64C94.84 192.66 95.01 192.59 95.17 192.49C95.34 192.39 95.68 192.21 95.92 192.08C96.17 191.95 96.38 191.82 96.4 191.78C96.41 191.73 96.49 191.7 96.57 191.7C96.66 191.7 96.75 191.63 96.77 191.55C96.8 191.46 96.99 191.38 97.22 191.35C97.52 191.31 97.64 191.25 97.68 191.1C97.7 190.99 97.76 190.91 97.8 190.92C97.84 190.93 97.98 190.91 98.1 190.87C98.22 190.83 98.33 190.75 98.33 190.7C98.33 190.65 98.4 190.58 98.5 190.55C98.6 190.53 98.95 190.35 99.28 190.16C99.61 189.96 100.05 189.72 100.25 189.6C100.46 189.49 100.63 189.36 100.63 189.3C100.63 189.25 100.72 189.2 100.83 189.2C100.94 189.2 101.05 189.13 101.08 189.05C101.11 188.97 101.19 188.9 101.25 188.9C101.32 188.9 101.83 188.62 102.38 188.28C102.93 187.94 103.41 187.63 103.43 187.6C103.46 187.57 103.83 187.33 104.26 187.07C104.69 186.81 105.03 186.56 105.03 186.5C105.03 186.45 105.09 186.4 105.16 186.4C105.23 186.4 105.51 186.24 105.79 186.05C106.06 185.85 106.73 185.39 107.28 185.02C107.82 184.65 108.37 184.25 108.5 184.13C108.63 184 108.82 183.88 108.91 183.85C109.01 183.82 109.21 183.69 109.37 183.55C109.52 183.41 109.66 183.3 109.69 183.3C109.72 183.3 110 183.1 110.32 182.85C110.63 182.6 111.07 182.25 111.28 182.07C111.5 181.9 111.72 181.73 111.78 181.71C111.84 181.68 111.97 181.59 112.06 181.51C112.15 181.42 112.29 181.3 112.36 181.25C112.43 181.19 112.67 181.01 112.89 180.85C113.12 180.69 113.34 180.51 113.4 180.46C113.45 180.4 113.79 180.13 114.15 179.86C114.5 179.59 114.91 179.26 115.05 179.14C115.19 179.01 115.42 178.81 115.56 178.68C115.71 178.55 115.98 178.32 116.17 178.15C116.35 177.99 116.75 177.65 117.05 177.41C117.35 177.16 117.73 176.85 117.89 176.71C118.04 176.57 118.28 176.34 118.42 176.2C118.56 176.06 118.7 175.95 118.74 175.95C118.77 175.95 119.16 175.6 119.6 175.16C120.04 174.73 120.83 173.99 121.35 173.52C121.87 173.04 122.62 172.32 123.03 171.93C123.43 171.53 123.76 171.16 123.76 171.1C123.76 171.05 123.81 171 123.88 171C123.95 171 124.2 170.8 124.43 170.55C124.67 170.3 124.86 170.08 124.86 170.05C124.86 170.02 125.28 169.56 125.79 169.03C126.3 168.5 126.86 167.92 127.04 167.76C127.22 167.59 127.37 167.39 127.37 167.33C127.36 167.26 127.4 167.2 127.44 167.2C127.48 167.21 127.78 166.89 128.11 166.5C128.44 166.1 128.91 165.58 129.14 165.34C129.37 165.1 129.57 164.88 129.57 164.85C129.57 164.82 129.71 164.63 129.89 164.43C130.07 164.23 130.31 163.97 130.42 163.86C130.54 163.74 130.76 163.47 130.92 163.25C131.08 163.03 131.34 162.72 131.49 162.55C131.65 162.38 131.77 162.23 131.77 162.2C131.76 162.17 131.9 162 132.07 161.83C132.23 161.65 132.37 161.46 132.37 161.4C132.37 161.35 132.44 161.3 132.52 161.3C132.6 161.3 132.73 161.15 132.8 160.98C132.88 160.8 133.11 160.47 133.31 160.25C133.51 160.03 133.7 159.77 133.73 159.68C133.75 159.58 133.82 159.5 133.87 159.5C133.93 159.5 133.97 159.43 133.97 159.35C133.97 159.27 134.04 159.17 134.11 159.13C134.19 159.08 134.44 158.78 134.67 158.45C134.9 158.12 135.17 157.7 135.28 157.53C135.39 157.35 135.52 157.2 135.57 157.2C135.63 157.2 135.67 157.16 135.67 157.1C135.67 157.05 135.79 156.88 135.92 156.73C136.06 156.57 136.18 156.42 136.17 156.38C136.17 156.33 136.28 156.15 136.4 155.98C136.52 155.8 136.65 155.63 136.68 155.6C136.71 155.57 136.88 155.35 137.06 155.1C137.23 154.85 137.38 154.62 137.38 154.58C137.38 154.53 137.49 154.38 137.63 154.23C137.77 154.07 137.96 153.79 138.05 153.6C138.14 153.41 138.32 153.14 138.45 153C138.57 152.86 138.68 152.67 138.68 152.58C138.68 152.48 138.72 152.4 138.78 152.4C138.83 152.4 139.22 151.84 139.63 151.15C140.04 150.46 140.38 149.85 140.38 149.8C140.38 149.75 140.43 149.7 140.48 149.7C140.54 149.7 140.64 149.59 140.71 149.46C140.77 149.32 140.94 149.01 141.08 148.76C141.22 148.5 141.36 148.3 141.41 148.3C141.45 148.3 141.48 148.22 141.48 148.13C141.48 148.03 141.56 147.84 141.67 147.7C141.77 147.56 142.12 146.96 142.44 146.35C142.75 145.75 143.1 145.13 143.2 144.97C143.3 144.82 143.35 144.7 143.31 144.7C143.27 144.7 143.28 144.66 143.33 144.62C143.39 144.58 143.53 144.38 143.64 144.17C143.74 143.97 143.87 143.8 143.91 143.8C143.95 143.8 143.98 143.7 143.98 143.58C143.99 143.45 144.08 143.19 144.21 143C144.33 142.81 144.6 142.31 144.81 141.9C145.02 141.49 145.19 141.07 145.19 140.97C145.19 140.88 145.23 140.8 145.29 140.8C145.34 140.8 145.39 140.74 145.39 140.68C145.39 140.61 145.49 140.39 145.63 140.2C145.76 140.01 145.9 139.72 145.94 139.55C145.98 139.38 146.11 139.12 146.23 138.95C146.36 138.78 146.49 138.49 146.53 138.3C146.57 138.11 146.69 137.83 146.79 137.68C146.9 137.52 146.99 137.38 146.99 137.35C146.99 137.32 147.04 137.15 147.1 136.97C147.17 136.8 147.23 136.63 147.24 136.6C147.25 136.57 147.29 136.46 147.33 136.35C147.37 136.24 147.45 136.08 147.5 136C147.55 135.92 147.62 135.78 147.65 135.7C147.68 135.62 147.74 135.46 147.79 135.35C147.83 135.24 147.94 134.95 148.04 134.7C148.14 134.45 148.27 134.12 148.35 133.95C148.42 133.78 148.55 133.47 148.64 133.25C148.73 133.03 148.84 132.78 148.88 132.7C148.93 132.62 149 132.39 149.04 132.2C149.08 132.01 149.15 131.78 149.2 131.7C149.24 131.62 149.31 131.46 149.35 131.35C149.39 131.24 149.43 131.13 149.44 131.1C149.45 131.07 149.49 130.96 149.53 130.85C149.57 130.74 149.64 130.58 149.69 130.5C149.73 130.42 149.8 130.19 149.84 130C149.89 129.81 149.98 129.54 150.06 129.4C150.13 129.26 150.19 129.07 150.19 128.97C150.19 128.88 150.24 128.8 150.29 128.8C150.35 128.8 150.39 128.73 150.39 128.65C150.39 128.57 150.53 128.08 150.7 127.58C150.86 127.07 151.03 126.58 151.06 126.5C151.1 126.42 151.14 126.24 151.17 126.1C151.19 125.96 151.28 125.69 151.36 125.5C151.44 125.31 151.55 124.95 151.59 124.7C151.64 124.45 151.78 123.96 151.9 123.6C152.03 123.24 152.15 122.88 152.18 122.8C152.21 122.72 152.29 122.4 152.36 122.1C152.43 121.8 152.55 121.3 152.62 121C152.69 120.7 152.77 120.41 152.81 120.35C152.84 120.3 152.9 120.04 152.93 119.78C152.97 119.51 153.04 119.28 153.1 119.25C153.15 119.22 153.2 119 153.2 118.75C153.2 118.5 153.23 118.28 153.27 118.26C153.31 118.24 153.38 117.97 153.42 117.66C153.46 117.35 153.54 117.08 153.6 117.05C153.65 117.02 153.72 116.72 153.76 116.38C153.79 116.03 153.86 115.7 153.9 115.65C153.95 115.6 154.02 115.22 154.07 114.82C154.11 114.42 154.18 114.1 154.22 114.1C154.26 114.1 154.3 113.86 154.29 113.58C154.29 113.29 154.36 112.92 154.44 112.75C154.53 112.58 154.6 112.21 154.6 111.93C154.6 111.64 154.64 111.38 154.7 111.35C154.75 111.32 154.82 110.91 154.86 110.43C154.89 109.94 154.94 109.48 154.97 109.4C155 109.32 155.04 109.18 155.06 109.1C155.08 109.02 155.12 108.57 155.16 108.1C155.19 107.63 155.24 107.18 155.28 107.1C155.31 107.02 155.4 106.37 155.48 105.65C155.55 104.94 155.63 103.97 155.66 103.5C155.69 103.03 155.77 102.59 155.83 102.51C155.92 102.4 155.96 90.91 155.97 54.86C155.99 16.97 155.97 7.34 155.87 7.28C155.81 7.24 155.63 7.2 155.47 7.2C155.32 7.2 155.18 7.17 155.16 7.13C155.14 7.08 154.77 7.01 154.33 6.97C153.9 6.92 153.39 6.84 153.2 6.79C153 6.73 152.78 6.66 152.7 6.63C152.61 6.59 152.46 6.55 152.35 6.54C152.24 6.52 151.87 6.48 151.54 6.44C151.21 6.4 150.9 6.34 150.84 6.3C150.79 6.26 150.45 6.19 150.09 6.15C149.73 6.11 149.4 6.04 149.34 6C149.29 5.96 148.9 5.9 148.49 5.86C148.08 5.82 147.69 5.75 147.64 5.71C147.58 5.66 147.34 5.6 147.09 5.57C146.84 5.55 146.35 5.47 145.99 5.41C145.63 5.34 145.25 5.25 145.14 5.2C145.03 5.15 144.82 5.11 144.69 5.11C144.55 5.11 144.19 5.08 143.88 5.04C143.58 5.01 143.29 4.94 143.23 4.9C143.18 4.86 142.73 4.79 142.23 4.75C141.74 4.71 141.29 4.64 141.23 4.6C141.18 4.56 140.73 4.49 140.23 4.45C139.73 4.41 139.28 4.34 139.23 4.3C139.17 4.26 138.88 4.19 138.58 4.16C138.27 4.12 137.82 4.07 137.58 4.05C137.33 4.04 137.06 4 136.98 3.97C136.89 3.94 136.69 3.89 136.53 3.85C136.36 3.81 135.73 3.73 135.12 3.66C134.52 3.59 133.95 3.51 133.87 3.48C133.79 3.44 133.23 3.39 132.62 3.35C132.01 3.31 131.47 3.24 131.42 3.19C131.36 3.14 131.12 3.1 130.87 3.1C130.62 3.1 130.01 3.03 129.52 2.95C129.02 2.87 128.4 2.8 128.14 2.8C127.88 2.8 127.64 2.76 127.61 2.7C127.59 2.65 127.46 2.6 127.34 2.61C127.21 2.61 126.67 2.58 126.14 2.53C125.6 2.49 125.16 2.43 125.16 2.4C125.16 2.37 124.47 2.31 123.63 2.27C122.79 2.22 122.06 2.14 122.01 2.1C121.95 2.06 121.21 1.99 120.35 1.95C119.5 1.91 118.76 1.84 118.7 1.8C118.65 1.76 118.31 1.7 117.95 1.66C117.59 1.63 116.51 1.54 115.55 1.45C114.58 1.37 113.64 1.28 113.45 1.25C113.25 1.23 112.33 1.18 111.39 1.14C110.46 1.1 109.65 1.04 109.59 1C109.54 0.95 108.57 0.89 107.44 0.85C106.31 0.82 105.29 0.75 105.18 0.7C105.07 0.65 103.63 0.56 101.98 0.5C100.33 0.43 98.21 0.34 97.27 0.29C96.34 0.23 94.96 0.16 94.22 0.13C93.48 0.1 86.58 0.05 78.9 0.03C71.21 0.01 64.9 0.02 64.87 0.05Z" />
		<path class="shp1" d="M71.09 5.56C70.13 5.58 67.15 5.67 64.48 5.75C61.81 5.83 58.3 5.97 56.67 6.05C55.05 6.13 52.93 6.24 51.97 6.29C51 6.35 49.58 6.44 48.81 6.5C48.04 6.56 46.46 6.67 45.31 6.75C44.15 6.84 42.46 6.97 41.55 7.05C40.64 7.14 39.16 7.27 38.25 7.35C37.34 7.44 35.94 7.57 35.15 7.66C34.35 7.74 33.08 7.87 32.34 7.95C31.6 8.03 30.63 8.14 30.19 8.2C29.75 8.25 28.8 8.37 28.09 8.45C27.37 8.53 26.27 8.67 25.63 8.75C25 8.84 23.96 8.97 23.33 9.06C22.7 9.14 21.89 9.25 21.53 9.3C21.17 9.35 20.4 9.47 19.83 9.55C19.25 9.64 18.32 9.78 17.77 9.86C17.22 9.94 16.52 10.05 16.22 10.1C15.92 10.16 14.81 10.34 13.77 10.51C12.72 10.67 11.1 10.95 10.16 11.11C9.23 11.28 7.88 11.52 7.16 11.66C6.44 11.8 5.78 11.93 5.68 11.96C5.52 12 5.51 14.13 5.54 55.23C5.57 94.46 5.59 98.64 5.74 100.55C5.83 101.7 5.97 103.3 6.05 104.1C6.13 104.9 6.27 106.09 6.35 106.75C6.44 107.41 6.55 108.27 6.6 108.65C6.65 109.03 6.79 109.89 6.91 110.55C7.02 111.21 7.2 112.25 7.31 112.85C7.42 113.45 7.56 114.13 7.61 114.35C7.66 114.57 7.77 115.11 7.87 115.55C7.96 115.99 8.25 117.23 8.52 118.3C8.78 119.37 9.25 121.13 9.56 122.2C9.87 123.27 10.44 125.1 10.83 126.25C11.22 127.41 11.77 128.98 12.07 129.75C12.36 130.52 12.94 131.96 13.34 132.95C13.75 133.94 14.42 135.47 14.82 136.35C15.23 137.23 16.04 138.9 16.63 140.05C17.21 141.21 18.02 142.73 18.42 143.45C18.82 144.17 19.67 145.63 20.31 146.7C20.95 147.77 22.15 149.66 22.98 150.9C23.81 152.14 25.05 153.92 25.73 154.85C26.42 155.78 27.69 157.43 28.55 158.5C29.41 159.57 30.76 161.19 31.56 162.1C32.35 163.01 33.77 164.56 34.71 165.55C35.65 166.54 37.24 168.14 38.26 169.11C39.27 170.08 40.73 171.43 41.5 172.12C42.27 172.8 43.45 173.81 44.11 174.36C44.77 174.91 45.85 175.79 46.51 176.31C47.17 176.84 48.34 177.73 49.11 178.31C49.88 178.89 51.03 179.72 51.67 180.16C52.3 180.61 53.49 181.42 54.32 181.97C55.15 182.52 56.38 183.32 57.07 183.75C57.76 184.18 58.8 184.81 59.38 185.15C59.95 185.5 61.15 186.18 62.03 186.67C62.91 187.17 64.47 188 65.48 188.53C66.5 189.06 68.21 189.9 69.29 190.4C70.36 190.91 72.14 191.7 73.24 192.17C74.35 192.64 75.87 193.26 76.62 193.56L78 194.1C80.13 193.26 81.68 192.63 82.81 192.15C83.94 191.67 85.81 190.83 86.96 190.29C88.12 189.74 90.08 188.76 91.32 188.11C92.56 187.46 94.29 186.51 95.17 186C96.05 185.49 97.47 184.64 98.33 184.12C99.18 183.6 100.69 182.63 101.68 181.97C102.67 181.31 104.16 180.29 104.98 179.7C105.81 179.11 107.12 178.14 107.89 177.56C108.66 176.97 109.94 175.96 110.74 175.31C111.54 174.66 112.8 173.59 113.55 172.95C114.29 172.3 115.73 171 116.75 170.05C117.77 169.1 119.21 167.7 119.95 166.93C120.7 166.17 121.82 164.98 122.46 164.3C123.09 163.61 123.93 162.69 124.32 162.25C124.71 161.81 125.53 160.84 126.15 160.1C126.77 159.36 127.84 158.03 128.52 157.15C129.21 156.27 130.27 154.85 130.88 154C131.49 153.15 132.59 151.55 133.32 150.45C134.05 149.35 135.12 147.66 135.7 146.7C136.27 145.74 137.16 144.21 137.66 143.3C138.17 142.39 139.12 140.57 139.77 139.25C140.42 137.93 141.3 136.09 141.71 135.15C142.13 134.22 142.74 132.78 143.07 131.95C143.4 131.13 143.85 129.98 144.07 129.4C144.29 128.82 144.78 127.41 145.17 126.25C145.56 125.1 146.13 123.27 146.44 122.2C146.75 121.13 147.22 119.37 147.48 118.3C147.75 117.23 148.04 115.99 148.13 115.55C148.23 115.11 148.34 114.57 148.39 114.35C148.44 114.13 148.58 113.45 148.69 112.85C148.8 112.25 148.96 111.35 149.04 110.85C149.13 110.36 149.27 109.5 149.35 108.95C149.43 108.4 149.56 107.41 149.65 106.75C149.73 106.09 149.87 104.9 149.95 104.1C150.03 103.3 150.17 101.7 150.26 100.55C150.41 98.64 150.43 94.46 150.46 55.23C150.49 14.13 150.48 12 150.32 11.95C150.22 11.93 149.15 11.73 147.94 11.5C146.73 11.28 145.6 11.08 145.44 11.05C145.27 11.02 144.35 10.86 143.38 10.69C142.42 10.53 141.2 10.33 140.68 10.24C140.16 10.16 139.3 10.03 138.78 9.95C138.25 9.86 137.04 9.68 136.07 9.54C135.11 9.4 133.85 9.22 133.27 9.14C132.69 9.06 131.7 8.93 131.07 8.84C130.43 8.76 129.38 8.63 128.72 8.55C128.05 8.47 126.54 8.29 125.36 8.15C124.18 8.01 122.55 7.83 121.76 7.75C120.96 7.66 119.61 7.53 118.75 7.45C117.9 7.37 116.41 7.23 115.45 7.15C114.48 7.07 112.91 6.93 111.94 6.85C110.98 6.77 109.52 6.66 108.69 6.6C107.86 6.54 106.11 6.43 104.78 6.35C103.46 6.27 100.98 6.13 99.28 6.05C97.57 5.96 94.15 5.83 91.67 5.75C89.19 5.66 83.94 5.58 80 5.56C76.07 5.54 72.05 5.54 71.09 5.56Z" />
		<path class="shp2" d="M84.16 9.14C83.83 9.2 83.26 9.4 82.91 9.56C82.55 9.73 82.02 10.06 81.73 10.28C81.44 10.51 81.01 11 80.77 11.38C80.53 11.75 80.24 12.32 80.13 12.65C80.02 12.98 79.9 13.52 79.86 13.85C79.83 14.18 79.85 14.81 79.91 15.25C79.98 15.82 80.13 16.29 80.42 16.9C80.72 17.51 81.01 17.92 81.44 18.36C81.79 18.71 82.32 19.1 82.68 19.29C83.03 19.46 83.57 19.67 83.88 19.75C84.2 19.83 84.82 19.9 85.26 19.9C85.7 19.9 86.33 19.83 86.66 19.74C86.99 19.65 87.53 19.44 87.86 19.27C88.19 19.09 88.75 18.67 89.09 18.32C89.53 17.88 89.82 17.48 90.08 16.93C90.33 16.4 90.49 15.86 90.59 15.25C90.71 14.47 90.7 14.24 90.57 13.5C90.48 12.95 90.29 12.38 90.05 11.9C89.82 11.44 89.46 10.94 89.12 10.6C88.77 10.25 88.28 9.9 87.81 9.67C87.39 9.46 86.72 9.23 86.29 9.15C85.86 9.07 85.34 9 85.13 9.01C84.93 9.02 84.49 9.07 84.16 9.14ZM67.92 9.37C67.75 9.53 67.74 9.74 67.81 13.39C67.86 15.51 67.92 17.84 67.95 18.55L68.01 19.85C71.63 19.72 72.66 19.63 73.04 19.53C73.37 19.45 73.91 19.24 74.24 19.06C74.57 18.89 75.04 18.55 75.29 18.3C75.54 18.05 75.91 17.54 76.11 17.15C76.33 16.73 76.52 16.15 76.6 15.7C76.68 15.23 76.7 14.6 76.67 14C76.63 13.44 76.52 12.8 76.4 12.45C76.28 12.12 76.08 11.67 75.96 11.45C75.83 11.23 75.46 10.81 75.13 10.52C74.81 10.22 74.31 9.87 74.02 9.74C73.73 9.61 73.18 9.43 72.79 9.35C72.3 9.25 71.49 9.2 70.1 9.2C68.36 9.2 68.08 9.22 67.92 9.37ZM96.47 9.49C96.25 9.54 95.85 9.69 95.57 9.83C95.3 9.97 94.93 10.23 94.75 10.42C94.58 10.6 94.33 10.98 94.21 11.25C94.07 11.57 93.99 11.95 93.99 12.3C93.99 12.64 94.07 13.02 94.19 13.3C94.31 13.55 94.51 13.86 94.64 14C94.77 14.14 95.08 14.39 95.32 14.56C95.57 14.73 96.27 15.12 96.87 15.43C97.55 15.77 98.13 16.15 98.38 16.4C98.72 16.76 98.78 16.88 98.81 17.33C98.84 17.75 98.8 17.92 98.61 18.19C98.48 18.38 98.22 18.61 98.03 18.72C97.79 18.84 97.47 18.9 97.05 18.9C96.65 18.9 96.22 18.82 95.85 18.68C95.53 18.56 95.07 18.31 94.82 18.12C94.48 17.86 94.33 17.8 94.22 17.87C94.14 17.93 93.94 18.14 93.77 18.34C93.53 18.64 93.49 18.74 93.58 18.88C93.64 18.97 93.93 19.22 94.23 19.43C94.53 19.64 95.06 19.91 95.42 20.03C95.93 20.2 96.3 20.25 97.07 20.25C97.91 20.25 98.16 20.21 98.58 20.02C98.85 19.89 99.23 19.65 99.41 19.47C99.59 19.29 99.86 18.95 100.01 18.7C100.2 18.37 100.28 18.07 100.31 17.55C100.35 16.97 100.31 16.76 100.12 16.31C99.96 15.96 99.7 15.61 99.38 15.32C99.1 15.08 98.3 14.59 97.6 14.24C96.9 13.89 96.16 13.45 95.97 13.28C95.76 13.09 95.57 12.8 95.52 12.6C95.47 12.4 95.48 12.13 95.53 11.95C95.58 11.79 95.69 11.56 95.76 11.45C95.83 11.34 96.09 11.15 96.33 11.03C96.63 10.87 96.96 10.8 97.35 10.8C97.7 10.8 98.13 10.88 98.45 11.01C98.74 11.12 99.1 11.3 99.25 11.41C99.4 11.51 99.6 11.6 99.68 11.6C99.76 11.6 99.94 11.43 100.08 11.23C100.22 11.02 100.33 10.76 100.33 10.65C100.33 10.54 100.18 10.35 100 10.23C99.82 10.1 99.4 9.89 99.05 9.75C98.64 9.59 98.16 9.48 97.65 9.45C97.22 9.43 96.69 9.45 96.47 9.49ZM59.26 9.62C59.16 9.69 58.86 10.48 58.57 11.4C58.29 12.31 57.95 13.39 57.82 13.8C57.69 14.21 57.38 15.23 57.12 16.05C56.87 16.88 56.54 17.91 56.41 18.35C56.27 18.79 56.09 19.38 56.01 19.65C55.93 19.93 55.89 20.17 55.92 20.2C55.96 20.23 56.22 20.24 56.51 20.22C56.79 20.21 57.09 20.18 57.17 20.15C57.27 20.12 57.49 19.57 57.77 18.65C58.05 17.77 58.28 17.18 58.37 17.14C58.46 17.11 59.36 17.06 60.38 17.03L62.23 16.97L63.38 19.9C64.23 19.9 64.55 19.88 64.63 19.85C64.72 19.82 64.78 19.72 64.78 19.63C64.79 19.53 64.16 17.92 63.39 16.05C62.62 14.18 61.71 11.95 61.36 11.1L60.73 9.55C59.66 9.5 59.37 9.54 59.26 9.62ZM50.64 10.13C50.62 10.19 50.66 11.04 50.72 12C50.79 12.96 50.92 14.72 51.01 15.9C51.09 17.08 51.15 18.06 51.14 18.07C51.13 18.08 50.91 17.81 50.66 17.48C50.42 17.14 49.1 15.47 47.73 13.76C46.37 12.05 45.17 10.6 45.08 10.54C44.97 10.47 44.68 10.45 44.31 10.49L43.71 10.55C43.75 12.18 43.82 13.53 43.91 14.6C43.99 15.67 44.11 17.23 44.17 18.05C44.23 18.88 44.31 19.87 44.34 20.25L44.41 20.95C45.39 20.99 45.6 20.96 45.71 20.85C45.81 20.74 45.84 20.57 45.81 20.28C45.78 20.04 45.71 19.2 45.66 18.4C45.6 17.6 45.49 16.05 45.41 14.95C45.33 13.85 45.27 12.94 45.29 12.92C45.3 12.91 45.47 13.12 45.66 13.38C45.85 13.65 47.2 15.36 48.66 17.18L51.32 20.5C52.25 20.5 52.58 20.46 52.65 20.42C52.76 20.36 52.75 19.92 52.62 17.9C52.53 16.55 52.41 14.89 52.36 14.2C52.32 13.51 52.22 12.29 52.15 11.47L52.02 10C50.9 10 50.67 10.04 50.64 10.13Z" />
		<path class="shp1" d="M84.16 10.53C83.94 10.6 83.55 10.78 83.31 10.92C83.06 11.06 82.66 11.4 82.41 11.66C82.17 11.93 81.86 12.38 81.74 12.65C81.61 12.93 81.46 13.42 81.4 13.75C81.32 14.18 81.32 14.54 81.39 15.05C81.45 15.44 81.63 16.02 81.79 16.35C81.94 16.68 82.29 17.17 82.56 17.44C82.83 17.71 83.26 18.03 83.51 18.15C83.75 18.27 84.21 18.43 84.51 18.5C84.81 18.57 85.28 18.6 85.56 18.57C85.84 18.54 86.31 18.43 86.61 18.31C86.91 18.2 87.38 17.92 87.65 17.68C87.92 17.44 88.28 17.05 88.45 16.8C88.61 16.55 88.83 16.1 88.93 15.8C89.05 15.44 89.12 14.97 89.11 14.45C89.11 14.01 89.04 13.43 88.96 13.15C88.88 12.88 88.7 12.47 88.57 12.25C88.44 12.03 88.12 11.65 87.85 11.4C87.58 11.16 87.11 10.85 86.81 10.71C86.39 10.52 86.06 10.45 85.41 10.43C84.91 10.41 84.39 10.45 84.16 10.53Z" />
		<path class="shp2" d="M109.99 10.58C109.96 10.67 109.89 11.29 109.84 11.95C109.79 12.61 109.7 13.67 109.64 14.3C109.58 14.93 109.47 16.21 109.39 17.15C109.31 18.09 109.22 19.28 109.18 19.8C109.13 20.54 109.15 20.77 109.26 20.82C109.33 20.86 109.63 20.9 109.92 20.9C110.24 20.9 110.46 20.85 110.49 20.78C110.52 20.71 110.62 19.74 110.72 18.64C110.81 17.53 110.91 16.59 110.94 16.56C110.97 16.53 111.58 16.55 112.29 16.6C113.01 16.65 113.79 16.71 114.03 16.72C114.32 16.74 114.48 16.7 114.55 16.6C114.6 16.52 114.64 16.26 114.65 16.03C114.65 15.71 114.6 15.59 114.47 15.55C114.38 15.52 113.59 15.44 112.73 15.37C111.87 15.31 111.13 15.23 111.1 15.2C111.07 15.17 111.09 14.5 111.15 13.7C111.21 12.9 111.27 12.15 111.3 12.03C111.34 11.83 111.41 11.8 111.77 11.8C112 11.81 112.91 11.87 113.8 11.94C114.68 12.01 115.45 12.05 115.52 12.04C115.59 12.02 115.65 11.9 115.65 11.78C115.65 11.65 115.68 11.46 115.71 11.35C115.74 11.24 115.71 11.08 115.63 11C115.53 10.88 115.1 10.81 114 10.71C113.17 10.64 112.08 10.55 111.57 10.49C111.06 10.44 110.51 10.4 110.35 10.4C110.16 10.4 110.03 10.46 109.99 10.58Z" />
		<path class="shp1" d="M69.33 10.63C69.29 10.69 69.29 12.46 69.33 14.55C69.39 17.21 69.44 18.37 69.52 18.42C69.59 18.46 70 18.5 70.44 18.5C70.88 18.49 71.58 18.45 71.99 18.39C72.51 18.32 72.93 18.19 73.33 17.97C73.66 17.79 74.1 17.45 74.32 17.2C74.53 16.95 74.8 16.5 74.92 16.2C75.04 15.87 75.14 15.31 75.17 14.8C75.2 14.33 75.17 13.7 75.1 13.4C75.04 13.1 74.84 12.58 74.66 12.25C74.45 11.87 74.15 11.51 73.84 11.27C73.57 11.07 73.05 10.81 72.69 10.7C72.18 10.54 71.76 10.5 70.72 10.5C69.77 10.5 69.38 10.54 69.33 10.63Z" />
		<path class="shp2" d="M38.9 10.95C38.84 10.98 38.1 11.06 37.25 11.15C36.39 11.24 35.27 11.35 34.74 11.41C34.22 11.46 33.71 11.52 33.62 11.55C33.52 11.58 33.43 11.66 33.41 11.73C33.39 11.79 33.43 12.44 33.51 13.15C33.58 13.87 33.69 14.92 33.75 15.5C33.81 16.08 33.92 17.16 34 17.9C34.07 18.64 34.19 19.77 34.24 20.4C34.3 21.03 34.38 21.66 34.4 21.8L34.46 22.05C35.73 21.93 36.43 21.85 36.85 21.8C37.26 21.75 38.3 21.63 39.15 21.54C40 21.45 40.72 21.37 40.73 21.37C40.75 21.36 40.74 21.09 40.71 20.78C40.68 20.44 40.6 20.18 40.53 20.16C40.46 20.14 40.09 20.16 39.7 20.21C39.32 20.25 38.3 20.36 37.45 20.45C36.59 20.54 35.86 20.57 35.82 20.53C35.78 20.49 35.68 19.78 35.59 18.95C35.5 18.13 35.45 17.41 35.48 17.35C35.5 17.29 36.05 17.19 36.71 17.11C37.36 17.04 38.17 16.94 38.5 16.89C38.83 16.84 39.11 16.79 39.13 16.77C39.15 16.76 39.13 16.48 39.1 16.15L39.03 15.55C38.23 15.66 37.43 15.75 36.73 15.82C35.88 15.91 35.42 15.92 35.35 15.85C35.3 15.79 35.2 15.28 35.15 14.7C35.09 14.12 35.02 13.48 34.99 13.28C34.96 13.05 34.99 12.85 35.07 12.77C35.14 12.7 35.53 12.61 35.95 12.56C36.36 12.52 37.31 12.42 38.05 12.34C38.79 12.25 39.44 12.15 39.48 12.12C39.53 12.08 39.54 11.84 39.51 11.58C39.47 11.24 39.39 11.07 39.25 11C39.14 10.95 39.04 10.9 39.03 10.91C39.01 10.91 38.95 10.93 38.9 10.95Z" />
		<path class="shp1" d="M59.9 11.55C59.84 11.66 59.74 11.95 59.68 12.2C59.62 12.45 59.46 12.99 59.33 13.4C59.2 13.81 59 14.49 58.88 14.9C58.76 15.31 58.68 15.71 58.72 15.78C58.76 15.87 59.09 15.89 60.1 15.84C60.85 15.8 61.49 15.73 61.56 15.66C61.67 15.57 61.56 15.2 60.99 13.73C60.6 12.72 60.28 11.87 60.28 11.83C60.28 11.78 60.22 11.66 60.14 11.55L60 11.35L59.9 11.55Z" />
		<path class="shp2" d="M28.76 12.13C28.64 12.2 28.5 12.39 28.45 12.55C28.4 12.72 28.22 13.53 28.05 14.35C27.88 15.18 27.6 16.5 27.43 17.3C27.26 18.1 27.04 19.2 26.93 19.75C26.82 20.3 26.7 20.84 26.67 20.95C26.62 21.1 26.49 20.9 26.09 20.1C25.81 19.52 24.88 17.69 24.03 16.02C22.62 13.27 22.46 12.99 22.23 13C22.09 13 21.76 13.03 21.48 13.06C21.11 13.11 20.99 13.17 21.01 13.29C21.02 13.38 22.17 15.59 23.56 18.2L26.09 22.95C27.18 22.95 27.47 22.9 27.55 22.82C27.63 22.74 27.81 22.11 27.96 21.42C28.11 20.72 28.37 19.54 28.54 18.8C28.7 18.06 28.85 17.36 28.88 17.25C28.91 17.14 29.07 16.42 29.24 15.65C29.41 14.88 29.62 13.94 29.71 13.55C29.79 13.17 29.89 12.72 29.93 12.55C29.97 12.38 29.99 12.19 29.97 12.13C29.95 12.05 29.76 12 29.46 12C29.2 12 28.89 12.06 28.76 12.13ZM125.81 12.15C125.54 12.23 125.09 12.41 124.81 12.54C124.53 12.68 124.09 12.98 123.82 13.22C123.54 13.46 123.12 13.92 122.88 14.25C122.61 14.62 122.35 15.14 122.21 15.6C122.08 16.01 121.95 16.64 121.91 17C121.87 17.44 121.9 17.91 122 18.45C122.09 18.89 122.3 19.54 122.47 19.9C122.64 20.26 122.96 20.77 123.19 21.04C123.42 21.31 123.88 21.71 124.21 21.92C124.54 22.13 125.05 22.4 125.34 22.5C125.62 22.61 126.21 22.75 126.64 22.81C127.2 22.88 127.62 22.88 128.16 22.8C128.58 22.73 129.23 22.55 129.62 22.39C130 22.23 130.42 22.01 130.54 21.9C130.7 21.76 130.75 21.63 130.71 21.48C130.68 21.35 130.56 21.12 130.43 20.95L130.19 20.65C128.53 21.44 128.5 21.45 127.36 21.45C126.33 21.45 126.16 21.42 125.66 21.19C125.36 21.04 124.93 20.77 124.71 20.58C124.49 20.39 124.14 19.92 123.94 19.54C123.71 19.11 123.53 18.59 123.45 18.15C123.36 17.62 123.36 17.28 123.45 16.75C123.51 16.37 123.71 15.76 123.88 15.4C124.06 15.04 124.38 14.57 124.61 14.35C124.83 14.14 125.3 13.82 125.66 13.66C126.16 13.43 126.49 13.35 127.11 13.32C127.77 13.28 128.04 13.32 128.61 13.52C129 13.65 129.58 13.94 129.91 14.16C130.23 14.37 130.56 14.59 130.64 14.65C130.74 14.72 130.86 14.65 131.12 14.35C131.31 14.13 131.46 13.89 131.46 13.83C131.47 13.76 131.25 13.52 130.99 13.3C130.73 13.08 130.29 12.8 130.02 12.66C129.74 12.53 129.29 12.34 129.02 12.25C128.7 12.14 128.1 12.06 127.41 12.04C126.65 12.02 126.16 12.05 125.81 12.15ZM117.06 20.36C117.01 20.5 116.97 20.81 116.96 21.06C116.95 21.44 116.98 21.51 117.18 21.54C117.3 21.57 117.56 21.61 117.75 21.64C117.94 21.66 118.17 21.64 118.25 21.59C118.34 21.54 118.42 21.3 118.45 21.03C118.48 20.76 118.5 20.48 118.48 20.4C118.47 20.32 118.35 20.22 118.23 20.18C118.1 20.14 117.81 20.1 117.57 20.1C117.2 20.1 117.13 20.13 117.06 20.36ZM134.05 22.42C134.01 22.54 133.96 22.85 133.92 23.1C133.86 23.48 133.88 23.56 134.04 23.63C134.14 23.67 134.45 23.73 134.72 23.77L135.22 23.83C135.42 23.11 135.47 22.79 135.47 22.65C135.47 22.51 135.42 22.38 135.35 22.36C135.28 22.34 134.97 22.29 134.67 22.25C134.14 22.18 134.11 22.19 134.05 22.42ZM92.58 23.27C92.44 23.42 92.31 23.62 92.29 23.72C92.28 23.81 92.35 23.9 92.47 23.93C92.61 23.97 92.77 23.88 92.99 23.64C93.17 23.45 93.32 23.26 93.32 23.2C93.32 23.14 93.27 23.1 93.22 23.1C93.16 23.1 93.06 23.07 92.98 23.04C92.9 23.01 92.73 23.1 92.58 23.27ZM73.04 23.99C72.88 24.03 72.56 24.16 72.34 24.27C72.12 24.38 71.81 24.63 71.65 24.81C71.49 25 71.27 25.35 71.16 25.6C71.02 25.91 70.96 26.27 70.96 26.75C70.96 27.23 71.02 27.59 71.16 27.9C71.27 28.15 71.51 28.52 71.7 28.73C71.89 28.94 72.22 29.2 72.44 29.3C72.66 29.41 73.07 29.52 73.34 29.56C73.62 29.59 74.09 29.57 74.4 29.51C74.7 29.45 75.14 29.28 75.37 29.13C75.61 28.97 75.8 28.78 75.8 28.7C75.8 28.62 75.74 28.48 75.65 28.4C75.51 28.27 75.42 28.28 74.87 28.57C74.44 28.79 74.11 28.89 73.79 28.9C73.55 28.9 73.16 28.81 72.94 28.72C72.72 28.62 72.4 28.36 72.22 28.14C72.02 27.91 71.85 27.55 71.79 27.25C71.73 26.98 71.71 26.57 71.75 26.35C71.79 26.13 71.87 25.84 71.94 25.7C72.01 25.56 72.23 25.3 72.43 25.13C72.63 24.95 72.98 24.75 73.22 24.69C73.45 24.63 73.82 24.61 74.04 24.64C74.27 24.68 74.64 24.8 74.87 24.9C75.22 25.06 75.33 25.08 75.45 24.98C75.54 24.91 75.6 24.76 75.58 24.66C75.56 24.54 75.36 24.37 75.07 24.23C74.79 24.1 74.34 23.98 73.97 23.95C73.63 23.93 73.21 23.94 73.04 23.99ZM79.94 24.08C79.88 24.12 79.39 25.3 78.86 26.7C78.33 28.1 77.92 29.31 77.95 29.38C77.98 29.44 78.14 29.5 78.3 29.5C78.58 29.5 78.62 29.45 78.87 28.78C79.01 28.38 79.18 28.02 79.24 27.98C79.3 27.94 79.73 27.9 80.2 27.9C80.67 27.9 81.11 27.94 81.17 27.98C81.23 28.02 81.4 28.36 81.53 28.75C81.77 29.44 81.78 29.45 82.14 29.48C82.34 29.49 82.51 29.47 82.51 29.43C82.51 29.38 82.22 28.52 81.87 27.5C81.52 26.48 81.11 25.31 80.96 24.9C80.82 24.49 80.65 24.12 80.58 24.08C80.51 24.04 80.36 24 80.25 24C80.14 24 80 24.04 79.94 24.08ZM67.49 24.16C67.37 24.21 67.36 24.51 67.42 26.18C67.48 27.74 67.47 28.2 67.37 28.39C67.3 28.52 67.12 28.72 66.99 28.82C66.81 28.96 66.56 29.02 66.18 29.03C65.85 29.03 65.51 28.97 65.31 28.87C65.08 28.75 64.94 28.58 64.84 28.28C64.75 28.01 64.67 27.19 64.63 26.1C64.59 24.93 64.53 24.33 64.45 24.28C64.39 24.24 64.28 24.2 64.21 24.2C64.15 24.2 64.04 24.26 63.96 24.33C63.86 24.44 63.84 24.86 63.89 26.31C63.93 28.01 63.96 28.19 64.19 28.65C64.33 28.94 64.58 29.24 64.78 29.38C64.98 29.51 65.31 29.66 65.53 29.71C65.75 29.77 66.16 29.79 66.44 29.76C66.72 29.72 67.12 29.58 67.37 29.42C67.66 29.24 67.88 28.99 68.05 28.65C68.29 28.15 68.29 28.15 68.22 26.26C68.16 24.97 68.1 24.32 68.01 24.23C67.94 24.16 67.83 24.1 67.76 24.11C67.69 24.11 67.57 24.14 67.49 24.16ZM84.12 24.39L84.11 24.7C85.31 24.79 85.72 24.83 85.78 24.86C85.88 24.89 85.89 25.41 85.84 27.25L85.76 29.6C86.44 29.6 86.52 29.56 86.56 29.38C86.58 29.25 86.62 28.22 86.63 27.08C86.65 25.95 86.7 24.98 86.74 24.93C86.79 24.89 87.22 24.83 87.69 24.8C88.46 24.76 88.57 24.73 88.59 24.55C88.61 24.44 88.59 24.32 88.54 24.29C88.5 24.25 87.49 24.19 86.3 24.15L84.13 24.08L84.12 24.39ZM60.61 24.48C60.55 24.52 60.27 25.04 59.99 25.63C59.71 26.22 59.43 26.72 59.38 26.75C59.32 26.78 58.97 26.33 58.6 25.75C58.23 25.17 57.85 24.68 57.75 24.65C57.65 24.62 57.48 24.62 57.37 24.65C57.26 24.68 57.17 24.76 57.17 24.83C57.17 24.89 57.59 25.58 58.1 26.34L59.03 27.73C59.07 29.14 59.1 29.65 59.13 29.78C59.17 29.96 59.23 30 59.5 29.98L59.83 29.95L59.83 27.45C60.95 25.28 61.28 24.59 61.28 24.53C61.28 24.45 61.16 24.4 61 24.4C60.85 24.4 60.68 24.44 60.61 24.48ZM91.93 24.58C91.88 24.67 91.56 25.43 91.22 26.25C90.88 27.08 90.44 28.13 90.24 28.6C90.03 29.1 89.91 29.52 89.95 29.63C89.99 29.74 90.1 29.79 90.29 29.78C90.53 29.75 90.6 29.66 90.87 29.02L91.17 28.3C92.64 28.3 93.12 28.34 93.18 28.38C93.24 28.42 93.37 28.76 93.48 29.13C93.59 29.54 93.74 29.86 93.85 29.91C93.94 29.96 94.11 29.98 94.22 29.95C94.33 29.92 94.42 29.84 94.42 29.78C94.42 29.71 94.2 28.93 93.93 28.05C93.66 27.17 93.3 25.99 93.13 25.43L92.82 24.4C92.14 24.4 92 24.45 91.93 24.58ZM97.23 25.22C97.22 25.51 97.18 26.16 97.13 26.65C97.08 27.14 97.01 28.11 96.97 28.8L96.9 30.05C97.27 30.15 97.44 30.14 97.53 30.09C97.64 30.02 97.7 29.59 97.8 28.08C97.87 27.02 97.94 26.14 97.95 26.13C97.96 26.12 98.55 27.07 99.25 28.25C100.53 30.4 100.53 30.4 100.88 30.4C101.16 30.4 101.24 30.36 101.27 30.18C101.3 30.05 101.34 29.52 101.38 29C101.41 28.48 101.49 27.38 101.56 26.57C101.67 25.27 101.66 25.08 101.53 25C101.45 24.95 101.33 24.9 101.26 24.9C101.2 24.9 101.07 24.97 100.99 25.05C100.89 25.15 100.83 25.37 100.83 25.68C100.83 25.94 100.78 26.77 100.71 27.53C100.64 28.28 100.56 28.9 100.53 28.9C100.5 28.9 99.93 27.97 99.27 26.82L98.05 24.75L97.24 24.69L97.23 25.22Z" />
		<path class="shp1" d="M80.13 25.33C80.08 25.4 79.91 25.78 79.77 26.18C79.62 26.57 79.5 26.99 79.5 27.1C79.5 27.28 79.57 27.3 80.2 27.3C80.68 27.3 80.91 27.26 80.94 27.18C80.96 27.11 80.85 26.69 80.71 26.25C80.57 25.81 80.4 25.4 80.34 25.33C80.24 25.23 80.2 25.23 80.13 25.33ZM92.25 25.63C92.19 25.69 92.01 26.11 91.83 26.55C91.66 26.99 91.52 27.39 91.52 27.45C91.52 27.51 91.8 27.58 92.14 27.62C92.59 27.68 92.8 27.66 92.89 27.57C92.99 27.48 92.96 27.25 92.73 26.48C92.57 25.94 92.42 25.5 92.39 25.5C92.36 25.5 92.3 25.56 92.25 25.63Z" />
		<path class="shp3" d="M73.34 33.51C71.2 33.56 67.88 33.64 65.98 33.71C64.08 33.77 61.76 33.86 60.83 33.91C59.89 33.96 58.74 34.02 58.27 34.05C57.81 34.08 56.77 34.14 55.97 34.19C55.17 34.25 53.75 34.34 52.82 34.39C51.88 34.45 50.76 34.54 50.31 34.59C49.87 34.65 48.88 34.74 48.11 34.81C47.34 34.87 46.28 34.96 45.76 35.01C45.24 35.06 44.6 35.12 44.36 35.14C44.11 35.17 43.46 35.23 42.91 35.3C42.35 35.36 41.34 35.47 40.65 35.55C39.96 35.63 38.81 35.76 38.1 35.84C37.38 35.93 36.3 36.07 35.7 36.14C35.09 36.22 34.23 36.33 33.79 36.4C33.35 36.46 32.86 36.53 32.69 36.55C32.53 36.58 32.1 36.64 31.74 36.7C31.38 36.75 30.64 36.86 30.09 36.94C29.54 37.02 28.64 37.16 28.09 37.25C27.54 37.34 26.86 37.45 26.58 37.5C26.31 37.54 25.93 37.61 25.73 37.64C25.54 37.67 25.16 37.74 24.88 37.79C24.61 37.85 24.15 37.95 23.86 38.02C23.58 38.09 23.31 38.18 23.27 38.23C23.23 38.27 23.13 38.3 23.04 38.3C22.95 38.3 22.56 38.45 22.18 38.64C21.79 38.82 21.21 39.14 20.88 39.35C20.55 39.56 19.92 40.1 19.47 40.56C19.01 41.04 18.47 41.72 18.18 42.21C17.91 42.67 17.6 43.28 17.5 43.55C17.4 43.83 17.24 44.25 17.16 44.5C17.07 44.75 16.95 45.18 16.89 45.45C16.81 45.8 16.78 53.52 16.78 71.5C16.77 90.68 16.8 97.55 16.9 99.05C16.97 100.15 17.06 101.32 17.12 101.65C17.17 101.98 17.27 102.77 17.33 103.4C17.39 104.03 17.48 104.82 17.53 105.15C17.57 105.48 17.68 106.2 17.76 106.75C17.85 107.3 17.98 108.16 18.07 108.65C18.15 109.15 18.28 109.91 18.36 110.35C18.44 110.79 18.56 111.35 18.61 111.6C18.66 111.85 18.78 112.39 18.86 112.8C18.95 113.21 19.08 113.82 19.15 114.15C19.22 114.48 19.3 114.8 19.34 114.85C19.37 114.91 19.43 115.18 19.47 115.45C19.52 115.73 19.59 116.02 19.63 116.1C19.68 116.18 19.89 116.68 20.11 117.2C20.32 117.72 20.63 118.44 20.78 118.8C20.94 119.16 21.64 120.58 22.33 121.95C23.03 123.33 23.95 125.03 24.38 125.75C24.81 126.47 25.59 127.7 26.12 128.5C26.65 129.3 27.33 130.28 27.63 130.69C27.94 131.09 28.25 131.52 28.34 131.64C28.42 131.76 28.78 132.22 29.13 132.66C29.49 133.09 30.22 133.95 30.75 134.55C31.29 135.16 32.26 136.17 32.91 136.81C33.56 137.45 34.52 138.35 35.05 138.81C35.58 139.27 36.55 140.05 37.2 140.55C37.86 141.04 38.92 141.79 39.55 142.21C40.18 142.63 40.97 143.12 41.3 143.3C41.63 143.48 42.06 143.73 42.25 143.84C42.45 143.96 42.99 144.24 43.46 144.47C43.92 144.69 44.46 144.95 44.66 145.03C44.85 145.11 45.31 145.32 45.68 145.49C46.06 145.66 46.43 145.8 46.51 145.8C46.59 145.8 46.68 145.84 46.71 145.9C46.74 145.96 46.91 146.03 47.09 146.06C47.26 146.1 47.48 146.16 47.56 146.21C47.64 146.25 48.18 146.43 48.76 146.6C49.34 146.77 50.04 146.97 50.31 147.05C50.59 147.14 50.92 147.2 51.04 147.2C51.16 147.2 51.28 147.23 51.3 147.28C51.33 147.32 51.65 147.39 52.03 147.44C52.41 147.49 52.79 147.56 52.87 147.61C52.95 147.65 53.58 147.74 54.27 147.81C54.96 147.87 55.76 147.94 56.05 147.96C56.49 147.99 56.59 147.97 56.67 147.8C56.74 147.67 56.74 147.39 56.67 146.97C56.61 146.63 56.5 146.11 56.42 145.83C56.34 145.54 56.2 145.04 56.11 144.72C56.02 144.41 55.91 144.1 55.86 144.05C55.81 144 55.77 143.89 55.77 143.83C55.77 143.76 55.64 143.41 55.47 143.05C55.31 142.69 55.17 142.37 55.17 142.33C55.17 142.28 54.89 141.75 54.55 141.15C54.21 140.55 53.64 139.6 53.27 139.05C52.9 138.5 52.13 137.47 51.56 136.76C50.98 136.05 49.99 134.92 49.35 134.26C48.71 133.59 47.63 132.55 46.95 131.93C46.27 131.31 45.37 130.56 44.96 130.24C44.54 129.93 44.18 129.6 44.14 129.51C44.1 129.42 44.07 126.33 44.06 122.65C44.06 118.97 44.02 115.72 43.98 115.43L43.91 114.92C44.68 114.84 45.61 114.74 46.46 114.65C47.31 114.57 48.66 114.43 49.46 114.35C50.26 114.27 51.68 114.14 52.62 114.05C53.55 113.97 54.82 113.85 55.42 113.79C56.03 113.74 56.91 113.67 57.37 113.64L58.22 113.59C60.48 114.66 61.51 115.15 61.98 115.37C62.45 115.6 63.15 115.92 63.53 116.1C63.92 116.28 64.96 116.78 65.86 117.21C66.75 117.65 67.5 118 67.51 118C67.53 118 68.26 118.34 69.14 118.76C70.02 119.18 71.06 119.67 71.44 119.84C71.83 120.02 72.28 120.21 72.44 120.28C72.61 120.34 72.92 120.44 73.14 120.49C73.36 120.55 73.79 120.66 74.09 120.74C74.4 120.82 74.89 120.96 75.2 121.04C75.5 121.12 76.09 121.29 76.5 121.41C76.91 121.53 77.36 121.72 77.5 121.83C77.64 121.93 77.81 122 77.87 121.96C77.97 121.91 78 112.97 78 77.78C78 42.3 77.98 33.63 77.88 33.52C77.81 33.45 77.64 33.4 77.5 33.41C77.36 33.42 75.49 33.47 73.34 33.51Z" />
		<path class="shp4" d="M78.15 33.56C77.95 33.61 77.95 33.78 77.95 77.83C77.95 109.97 77.98 122.1 78.06 122.25C78.12 122.36 78.3 122.52 78.45 122.6C78.69 122.73 78.88 122.73 79.84 122.63C80.45 122.56 81.49 122.43 82.16 122.35C82.82 122.27 83.75 122.16 84.23 122.1C85.07 122 85.13 122.01 85.53 122.24C85.77 122.38 86.6 123 87.38 123.62C88.16 124.24 89.61 125.53 90.61 126.48C91.6 127.42 92.49 128.2 92.57 128.2C92.65 128.2 93.36 127.93 94.15 127.59C94.93 127.26 96.34 126.61 97.27 126.15C98.21 125.69 99.59 124.97 100.33 124.54C101.28 124 101.88 123.58 102.37 123.11C102.74 122.75 103.31 122.13 103.62 121.75C103.94 121.37 104.4 120.76 104.65 120.4C104.91 120.04 105.34 119.35 105.62 118.85C105.91 118.36 106.3 117.55 106.5 117.05C106.7 116.56 106.97 115.79 107.1 115.35C107.24 114.91 107.43 114.03 107.54 113.4C107.68 112.58 107.74 111.78 107.74 110.63C107.74 109.71 107.67 108.57 107.59 108.03C107.51 107.49 107.38 106.76 107.3 106.4C107.21 106.04 107.05 105.44 106.93 105.05C106.82 104.67 106.52 103.88 106.27 103.3C106.03 102.72 105.84 102.14 105.86 102C105.88 101.84 105.98 101.72 106.16 101.65C106.38 101.57 106.46 101.59 106.64 101.75C106.76 101.86 107.05 102.24 107.28 102.6C107.52 102.96 107.98 103.79 108.31 104.45C108.64 105.11 109.1 106.15 109.32 106.75C109.54 107.36 109.86 108.46 110.02 109.2C110.19 109.94 110.38 111.07 110.45 111.7C110.53 112.43 110.55 113.39 110.5 114.35C110.47 115.18 110.42 116.13 110.39 116.48C110.35 116.93 110.37 117.1 110.47 117.1C110.54 117.1 111.29 116.39 112.14 115.53C113 114.66 114.17 113.39 114.75 112.7C115.33 112.01 116.1 111.07 116.47 110.6C116.83 110.13 117.43 109.3 117.81 108.75C118.33 107.98 118.62 107.42 119.03 106.35C119.33 105.58 119.72 104.48 119.92 103.9C120.11 103.32 120.44 102.18 120.66 101.35C120.87 100.53 121.14 99.38 121.25 98.8C121.36 98.22 121.52 97.21 121.61 96.55C121.69 95.89 121.79 94.5 121.82 93.45C121.86 92.34 121.83 90.95 121.77 90.1C121.7 89.3 121.56 88.11 121.45 87.45C121.33 86.79 121.09 85.67 120.91 84.95C120.72 84.24 120.4 83.18 120.2 82.6C120 82.02 119.61 81.03 119.34 80.4C119.07 79.77 118.56 78.73 118.22 78.1C117.88 77.47 117.2 76.35 116.7 75.6C116.21 74.86 115.36 73.69 114.8 73C114.25 72.31 113.17 71.12 112.4 70.34C111.62 69.57 110.46 68.51 109.81 67.99C108.81 67.2 108.63 67.01 108.64 66.78C108.64 66.6 108.71 66.46 108.84 66.4C108.95 66.35 109.14 66.33 109.27 66.36C109.39 66.39 110.05 66.79 110.74 67.25C111.43 67.71 112.49 68.48 113.09 68.96C113.7 69.44 114.96 70.61 115.9 71.54C116.84 72.48 117.97 73.7 118.41 74.25C118.85 74.8 119.49 75.64 119.83 76.13C120.17 76.61 120.79 77.55 121.19 78.23C121.6 78.9 122.13 79.86 122.38 80.35C122.63 80.85 123.04 81.72 123.28 82.3C123.53 82.88 123.88 83.75 124.05 84.25C124.23 84.75 124.52 85.69 124.71 86.35C124.89 87.01 125.17 88.16 125.31 88.9C125.46 89.64 125.62 90.49 125.67 90.78C125.72 91.07 125.81 91.28 125.86 91.25C125.92 91.22 126.11 90.72 126.3 90.13C126.49 89.53 126.85 88.35 127.1 87.5C127.35 86.65 127.73 85.28 127.95 84.45C128.16 83.63 128.48 82.34 128.65 81.6C128.82 80.86 129.07 79.67 129.2 78.95C129.34 78.24 129.52 77.2 129.61 76.65C129.69 76.1 129.83 75.13 129.91 74.5C129.99 73.87 130.11 72.7 130.18 71.9C130.25 71.1 130.3 69.44 130.3 68.2C130.3 66.96 130.25 65.39 130.18 64.7C130.11 64.01 129.99 63 129.91 62.45C129.83 61.9 129.64 60.91 129.5 60.25C129.36 59.59 129.11 58.6 128.95 58.05C128.79 57.5 128.47 56.53 128.23 55.9C128 55.27 127.43 53.99 126.96 53.05C126.49 52.12 125.82 50.88 125.46 50.32C125.1 49.75 124.43 48.78 123.97 48.17C123.5 47.55 122.73 46.6 122.26 46.05C121.78 45.5 120.71 44.4 119.89 43.6C119.07 42.8 117.72 41.61 116.9 40.95C116.08 40.29 115.24 39.59 115.02 39.4C114.71 39.13 114.64 39 114.69 38.83C114.72 38.7 114.83 38.58 114.92 38.55C115.02 38.52 115.46 38.67 115.9 38.89C116.34 39.11 117.31 39.74 118.05 40.3C118.79 40.86 119.78 41.64 120.25 42.04C120.71 42.43 121.57 43.19 122.15 43.72C122.73 44.26 123.7 45.23 124.29 45.87C124.89 46.52 125.77 47.57 126.25 48.2C126.74 48.83 127.43 49.8 127.79 50.35C128.15 50.9 128.72 51.85 129.06 52.45C129.39 53.05 129.92 54.11 130.23 54.8C130.54 55.49 130.97 56.55 131.19 57.15C131.41 57.75 131.74 58.81 131.94 59.5C132.13 60.19 132.4 61.29 132.53 61.95C132.67 62.61 132.87 63.78 132.97 64.55C133.15 65.8 133.17 66.52 133.17 71.15C133.17 75.7 133.15 76.56 132.97 78.05C132.86 78.99 132.71 80.2 132.63 80.75C132.54 81.3 132.34 82.49 132.18 83.4C132.01 84.31 131.76 85.57 131.63 86.2C131.5 86.83 131.34 87.58 131.27 87.85C131.21 88.13 131.09 88.67 131 89.05C130.91 89.44 130.74 90.16 130.61 90.65C130.48 91.15 130.24 92.09 130.07 92.75C129.89 93.41 129.55 94.65 129.3 95.5C129.05 96.35 128.74 97.41 128.61 97.85C128.48 98.29 128.17 99.26 127.92 100C127.67 100.74 127.16 102.09 126.8 103C126.44 103.91 125.61 105.73 124.96 107.05C124.3 108.37 123.45 109.99 123.05 110.65C122.66 111.31 121.92 112.48 121.41 113.25C120.9 114.02 120.04 115.23 119.5 115.95C118.96 116.67 118.06 117.79 117.5 118.45C116.94 119.11 115.93 120.23 115.26 120.95C114.59 121.67 113.51 122.74 112.86 123.34C112.22 123.94 111.15 124.89 110.49 125.45C109.83 126.01 108.73 126.89 108.04 127.42C107.35 127.94 106.34 128.68 105.79 129.06C105.23 129.45 104.36 130.03 103.85 130.36C103.33 130.68 102.89 130.98 102.87 131.03C102.85 131.07 102.96 131.16 103.11 131.24C103.26 131.31 105.32 132.11 107.69 133C110.06 133.89 112.33 134.75 112.74 134.9C113.16 135.05 114.24 135.46 115.15 135.81L116.8 136.45L120.25 136.5C120.25 136.89 120.12 137.39 119.97 137.88C119.81 138.36 119.51 139.09 119.3 139.5C119.09 139.91 118.68 140.63 118.38 141.1C118.09 141.57 117.69 142.16 117.5 142.43C117.31 142.69 117.16 142.92 117.18 142.95C117.19 142.98 117.45 142.87 117.75 142.69C118.05 142.52 118.73 142.06 119.25 141.67C119.78 141.28 120.59 140.65 121.06 140.26C121.52 139.87 122.33 139.15 122.84 138.65C123.36 138.16 124.11 137.41 124.51 137C124.91 136.59 125.61 135.82 126.06 135.3C126.51 134.78 127.32 133.77 127.86 133.05C128.4 132.34 129.24 131.14 129.74 130.4C130.24 129.66 130.84 128.71 131.09 128.3C131.34 127.89 131.88 126.94 132.29 126.2C132.71 125.46 133.27 124.4 133.55 123.85C133.82 123.3 134.28 122.33 134.57 121.7C134.86 121.07 135.27 119.97 135.48 119.25C135.69 118.53 136.04 117.23 136.26 116.35C136.48 115.47 136.75 114.37 136.86 113.9C136.97 113.43 137.2 112.35 137.38 111.5C137.55 110.65 137.82 109.14 137.98 108.15C138.15 107.16 138.37 105.68 138.47 104.85C138.58 104.03 138.74 102.63 138.82 101.75C138.91 100.87 139.03 99.54 139.09 98.8C139.18 97.84 139.22 90.2 139.25 72.05C139.28 48.99 139.27 46.57 139.12 45.8C139.03 45.33 138.81 44.52 138.62 44C138.43 43.48 138.08 42.72 137.85 42.31C137.62 41.9 137.07 41.19 136.63 40.72C136.18 40.26 135.53 39.69 135.17 39.45C134.82 39.22 134.27 38.9 133.97 38.75C133.67 38.6 133.04 38.35 132.57 38.2C132.1 38.05 130.61 37.74 129.27 37.51C127.92 37.29 126.05 36.99 125.11 36.85C124.17 36.71 122.42 36.46 121.21 36.3C119.99 36.14 118.44 35.94 117.75 35.86C117.06 35.78 115.67 35.62 114.65 35.5C113.63 35.39 112.37 35.26 111.84 35.2C111.32 35.14 110.19 35.03 109.34 34.95C108.49 34.87 106.93 34.74 105.89 34.65C104.84 34.57 103.4 34.45 102.68 34.4C101.97 34.34 100.3 34.23 98.98 34.15C97.66 34.07 95.56 33.96 94.32 33.9C93.08 33.84 90.72 33.75 89.06 33.7C87.41 33.65 84.33 33.59 82.21 33.56C80.09 33.53 78.26 33.53 78.15 33.56Z" />
		<path class="shp1" d="M45.58 45.65C45.1 45.89 44.41 46.26 44.06 46.46C43.7 46.66 42.96 47.12 42.4 47.48C41.85 47.83 41 48.43 40.5 48.81C40.01 49.18 39.17 49.89 38.64 50.37C38.11 50.85 37.39 51.56 37.03 51.95C36.68 52.34 36.09 53.03 35.73 53.5C35.37 53.97 34.9 54.62 34.68 54.95C34.46 55.28 34.11 55.87 33.89 56.25C33.68 56.64 33.36 57.24 33.18 57.6C33.01 57.96 32.68 58.7 32.46 59.25C32.25 59.8 31.96 60.61 31.82 61.05C31.68 61.49 31.5 62.1 31.41 62.4C31.33 62.7 31.19 63.31 31.1 63.75C31.01 64.19 30.89 64.75 30.84 65C30.79 65.25 30.7 65.88 30.64 66.4C30.58 66.92 30.51 67.37 30.49 67.4C30.47 67.43 30.4 68.62 30.34 70.05C30.25 72.03 30.24 73.22 30.33 75.05C30.39 76.37 30.53 78.28 30.64 79.3C30.75 80.32 30.9 81.65 30.99 82.25C31.07 82.86 31.18 83.67 31.23 84.05C31.28 84.44 31.37 84.95 31.43 85.2C31.48 85.45 31.6 86.12 31.69 86.7C31.78 87.28 31.99 88.27 32.14 88.9C32.3 89.53 32.5 90.32 32.59 90.65C32.67 90.98 32.79 91.39 32.84 91.55C32.9 91.72 33.02 92.08 33.11 92.35C33.2 92.63 33.35 93.08 33.45 93.35C33.54 93.63 33.79 94.28 34 94.8C34.2 95.32 34.68 96.4 35.06 97.2C35.45 98 35.99 99.06 36.27 99.55C36.55 100.05 37.15 101.01 37.6 101.7C38.05 102.39 38.83 103.49 39.32 104.15C39.82 104.81 40.65 105.85 41.18 106.45C41.7 107.06 42.86 108.27 43.77 109.14C44.67 110.01 45.96 111.17 46.63 111.72C47.31 112.26 48.03 112.81 48.24 112.94C48.59 113.17 48.65 113.18 49.46 113.09C49.93 113.04 50.74 112.96 51.27 112.9C51.79 112.85 52.87 112.73 53.67 112.65C54.47 112.56 55.77 112.43 56.57 112.35C57.37 112.27 58.04 112.2 58.05 112.2C58.06 112.2 58.07 112.14 58.08 112.08C58.08 112.01 57.46 111.66 56.7 111.3C55.95 110.94 54.7 110.29 53.92 109.85C53.15 109.41 52.07 108.74 51.52 108.37C50.97 108 50.11 107.4 49.61 107.02C49.01 106.57 48.52 106.1 48.14 105.6C47.83 105.19 47.33 104.36 47.03 103.75C46.73 103.15 46.43 102.52 46.38 102.35C46.32 102.19 46.21 101.83 46.13 101.55C46.04 101.28 45.9 100.63 45.82 100.13C45.73 99.62 45.66 98.86 45.66 98.45C45.66 98.04 45.73 97.26 45.82 96.73C45.9 96.19 46.05 95.46 46.15 95.1C46.26 94.74 46.43 94.23 46.54 93.95C46.65 93.68 46.9 93.11 47.11 92.7C47.31 92.29 47.56 91.83 47.67 91.68C47.78 91.52 47.86 91.24 47.86 91.05C47.86 90.8 47.8 90.66 47.64 90.55C47.51 90.47 47.31 90.4 47.19 90.4C47.06 90.4 46.79 90.55 46.58 90.74C46.38 90.92 45.92 91.47 45.58 91.96C45.23 92.45 44.7 93.32 44.41 93.9C44.12 94.48 43.72 95.45 43.52 96.05C43.33 96.66 43.13 97.38 43.07 97.65C43.01 97.93 42.9 98.59 42.83 99.14C42.76 99.68 42.67 100.14 42.63 100.16C42.59 100.18 42.39 100.01 42.2 99.78C42 99.54 41.49 98.83 41.06 98.2C40.64 97.57 40.08 96.71 39.83 96.3C39.58 95.89 39.19 95.21 38.97 94.8C38.74 94.39 38.47 93.74 38.36 93.35C38.26 92.97 38.1 92.31 38.01 91.9C37.92 91.49 37.8 90.88 37.74 90.55C37.67 90.22 37.59 89.66 37.54 89.3C37.49 88.94 37.41 88.06 37.35 87.35C37.29 86.64 37.27 85.62 37.3 85.1C37.33 84.58 37.4 83.75 37.46 83.25C37.51 82.75 37.65 81.92 37.75 81.4C37.86 80.88 38 80.27 38.06 80.05C38.12 79.83 38.3 79.25 38.47 78.75C38.63 78.25 39.06 77.24 39.42 76.5C39.77 75.76 40.36 74.7 40.72 74.15C41.09 73.6 41.71 72.75 42.1 72.25C42.5 71.75 43.39 70.82 44.07 70.16C44.75 69.51 45.74 68.66 46.26 68.27C46.78 67.88 47.59 67.33 48.06 67.04C48.7 66.65 48.93 66.45 49 66.24C49.06 66.01 49.04 65.89 48.89 65.7C48.76 65.54 48.57 65.44 48.35 65.42C48.1 65.4 47.73 65.54 46.96 65.93C46.38 66.22 45.53 66.71 45.06 67C44.59 67.3 43.85 67.81 43.41 68.14C42.97 68.47 42.29 69.01 41.9 69.34C41.52 69.67 40.89 70.26 40.5 70.65C40.11 71.03 39.55 71.64 39.24 72C38.94 72.36 38.39 73.05 38.03 73.55C37.67 74.05 37.18 74.77 36.94 75.15C36.71 75.54 36.21 76.48 35.84 77.25C35.47 78.02 35.06 78.96 34.93 79.33C34.8 79.7 34.64 80 34.57 80C34.5 80 34.42 79.92 34.39 79.83C34.36 79.73 34.25 79.09 34.15 78.4C34.04 77.71 33.91 76.81 33.85 76.4C33.79 75.99 33.68 74.9 33.59 73.98C33.51 73.02 33.44 71.21 33.44 69.75C33.44 68.14 33.5 66.69 33.59 65.83C33.68 65.07 33.86 63.89 34 63.2C34.15 62.51 34.37 61.55 34.51 61.05C34.65 60.55 34.97 59.63 35.22 59C35.47 58.37 35.9 57.42 36.18 56.9C36.45 56.38 36.96 55.52 37.31 55C37.65 54.48 38.36 53.55 38.87 52.95C39.39 52.35 40.17 51.52 40.61 51.11C41.05 50.7 41.85 50.01 42.4 49.57C42.96 49.13 44.04 48.36 44.81 47.85C45.58 47.34 46.4 46.82 46.64 46.69C46.9 46.54 47.11 46.34 47.18 46.15C47.26 45.92 47.26 45.8 47.15 45.62C47.07 45.5 46.89 45.35 46.73 45.3C46.5 45.23 46.31 45.29 45.58 45.65Z" />
		<path class="shp2" d="M55.67 115.91C55.26 115.95 54.15 116.06 53.22 116.15C52.28 116.23 50.82 116.37 49.96 116.46C49.11 116.54 47.89 116.68 47.26 116.75C46.63 116.83 46.09 116.92 46.06 116.96C46.03 116.99 46.02 117.65 46.04 118.43C46.06 119.21 46.11 120.75 46.16 121.85C46.21 122.95 46.26 124.59 46.26 125.5C46.26 126.41 46.3 127.2 46.34 127.27C46.39 127.36 47.65 127.4 51.42 127.42C55.82 127.45 56.46 127.47 56.72 127.61C56.89 127.7 57.08 127.89 57.15 128.04C57.22 128.18 57.27 128.41 57.27 128.55C57.27 128.69 57.22 128.92 57.15 129.06C57.08 129.21 56.9 129.39 56.75 129.46C56.53 129.57 55.67 129.6 52.54 129.61C50.38 129.61 48.43 129.64 48.22 129.68L47.82 129.75C48.67 130.47 49.01 130.72 49.14 130.79C49.3 130.87 50.84 130.9 54.42 130.9C59.06 130.9 59.5 130.91 59.77 131.08C59.94 131.17 60.12 131.35 60.17 131.47C60.23 131.6 60.28 131.84 60.28 132C60.28 132.17 60.23 132.4 60.18 132.53C60.12 132.65 59.92 132.83 59.73 132.93C59.41 133.08 58.99 133.1 55.47 133.1C53.32 133.1 51.57 133.12 51.57 133.15C51.57 133.18 51.84 133.54 52.17 133.95C52.5 134.36 52.86 134.75 52.97 134.8C53.09 134.86 54.94 134.9 57.87 134.9C62.18 134.9 62.61 134.92 62.88 135.08C63.04 135.17 63.22 135.35 63.28 135.47C63.34 135.6 63.38 135.81 63.38 135.95C63.38 136.09 63.31 136.34 63.23 136.5C63.15 136.67 62.98 136.86 62.86 136.93C62.69 137.02 61.58 137.06 58.7 137.1L54.78 137.15C55.49 138.39 55.77 138.83 55.86 138.93C56.01 139.1 56.36 139.11 61.35 139.1C65.55 139.1 66.75 139.13 67.01 139.23C67.23 139.32 67.4 139.5 67.52 139.76C67.68 140.09 67.69 140.21 67.6 140.53C67.53 140.77 67.37 140.97 67.16 141.1C66.85 141.29 66.66 141.3 62.05 141.3C59.42 141.3 57.25 141.33 57.23 141.38C57.21 141.42 57.39 141.97 57.64 142.6C57.88 143.23 58.14 143.86 58.21 144L58.33 144.25L71.71 144.35C72.21 144.9 72.29 145.1 72.29 145.35C72.29 145.54 72.23 145.84 72.14 146C72.05 146.19 71.87 146.34 71.67 146.4C71.46 146.47 69.06 146.5 65.11 146.5L58.88 146.5C58.87 146.85 58.93 147.59 59 148.38L59.13 149.8C74.62 149.8 78.29 149.84 78.53 149.9C78.74 149.96 78.99 150.12 79.1 150.28C79.22 150.43 79.31 150.7 79.31 150.88C79.3 151.05 79.25 151.32 79.18 151.46C79.11 151.61 78.93 151.79 78.78 151.86C78.55 151.98 76.85 152 68.81 152C61.14 152 59.09 152.02 58.97 152.12C58.88 152.19 58.75 152.52 58.68 152.85C58.61 153.18 58.47 153.77 58.36 154.15C58.25 154.53 58.19 154.91 58.22 154.98C58.26 155.07 60.97 155.1 71.29 155.1C82.5 155.1 84.35 155.12 84.63 155.25C84.81 155.33 85.02 155.51 85.08 155.65C85.15 155.79 85.21 156.03 85.21 156.2C85.21 156.37 85.15 156.61 85.08 156.75C85.02 156.89 84.81 157.07 84.63 157.15C84.35 157.28 82.43 157.3 70.74 157.3L57.17 157.3C56.82 157.87 56.4 158.52 56 159.12C55.6 159.71 55.27 160.22 55.27 160.25C55.27 160.28 61.86 160.31 69.91 160.33C82.74 160.35 84.59 160.37 84.78 160.5C84.9 160.58 85.05 160.75 85.11 160.88C85.16 161 85.21 161.24 85.21 161.4C85.21 161.57 85.16 161.81 85.11 161.95C85.05 162.09 84.87 162.27 84.71 162.35C84.45 162.48 82.47 162.5 68.76 162.5L53.12 162.49C51.49 163.69 50.69 164.24 50.29 164.49C49.88 164.74 49.56 164.98 49.56 165.03C49.56 165.07 49.91 165.36 50.34 165.68L51.11 166.25C82.28 166.35 83.28 166.36 83.54 166.53C83.69 166.62 83.85 166.85 83.91 167.05C83.97 167.27 83.97 167.52 83.91 167.73C83.86 167.9 83.69 168.14 83.54 168.25C83.26 168.45 83.06 168.45 68.9 168.5L54.54 168.55C55.46 169.19 56.56 169.89 57.57 170.52C58.59 171.15 59.53 171.72 59.65 171.78C59.82 171.87 62.61 171.9 70.29 171.9C79.32 171.9 80.75 171.92 81.05 172.05C81.25 172.13 81.47 172.33 81.55 172.5C81.64 172.67 81.7 172.9 81.7 173.03C81.7 173.15 81.61 173.4 81.5 173.58C81.39 173.75 81.19 173.95 81.05 174C80.89 174.06 77.83 174.1 72.67 174.11C68.19 174.12 64.42 174.15 64.28 174.19C64.07 174.25 64.38 174.44 66.34 175.42C67.6 176.06 69.24 176.86 69.96 177.19L71.29 177.8C77.36 177.8 78.28 177.83 78.53 177.93C78.7 178 78.93 178.17 79.03 178.31C79.12 178.44 79.2 178.7 79.2 178.88C79.2 179.05 79.16 179.3 79.1 179.43C79.04 179.55 78.87 179.72 78.72 179.82C78.57 179.91 78.11 180.02 77.7 180.06L76.95 180.13C77.57 180.41 77.85 180.49 77.97 180.49C78.1 180.5 79.09 180.14 80.18 179.71C81.27 179.27 82.61 178.72 83.16 178.48C83.71 178.24 84.65 177.82 85.26 177.54C85.87 177.27 87.55 176.46 89.01 175.74C90.47 175.02 92.46 173.99 93.42 173.45C94.38 172.92 95.49 172.29 95.87 172.07C96.26 171.84 97.41 171.14 98.43 170.51C99.44 169.89 101.16 168.78 102.23 168.05C103.3 167.33 104.7 166.36 105.34 165.91C105.97 165.45 106.66 164.95 106.86 164.79L107.24 164.5C107.24 162.66 107.15 161.56 107.03 160.8C106.92 160.06 106.76 159.09 106.68 158.65C106.59 158.21 106.43 157.56 106.32 157.2C106.2 156.84 105.95 156.17 105.76 155.7C105.57 155.23 105.23 154.49 105.01 154.05C104.79 153.61 104.27 152.73 103.85 152.1C103.43 151.47 102.77 150.57 102.37 150.1C101.98 149.63 101.32 148.94 100.91 148.55C100.31 147.98 99.89 147.71 98.72 147.11C97.93 146.71 96.28 145.78 95.07 145.06C93.39 144.06 92.72 143.6 92.21 143.1C91.79 142.68 91.44 142.22 91.24 141.8C91.06 141.44 90.9 141 90.87 140.83C90.84 140.64 90.86 140.5 90.92 140.5C90.97 140.5 91.7 140.87 92.54 141.32C93.38 141.76 94.36 142.32 94.72 142.55C95.08 142.78 95.98 143.32 96.72 143.75C97.47 144.18 98.57 144.77 99.18 145.06C99.78 145.34 100.49 145.65 100.75 145.74C101.02 145.83 101.78 145.97 102.46 146.05C103.13 146.13 104.07 146.2 104.53 146.2C105 146.2 105.84 146.13 106.39 146.05C106.94 145.98 107.78 145.82 108.26 145.71C108.75 145.59 109.58 145.34 110.12 145.14C110.65 144.94 111.45 144.57 111.89 144.32C112.33 144.08 112.96 143.68 113.3 143.44C113.63 143.21 114.13 142.79 114.42 142.53C114.7 142.27 115.19 141.76 115.5 141.4C115.81 141.04 116.31 140.36 116.61 139.88C116.91 139.39 117.15 138.93 117.15 138.85C117.15 138.77 117.08 138.68 117 138.65C116.92 138.62 116.74 138.6 116.6 138.6C116.46 138.6 113.95 137.7 111.02 136.59C108.08 135.49 105.03 134.34 104.23 134.03C103.44 133.73 101.7 133.08 100.38 132.58L97.98 131.68C93.13 133.46 92.94 133.51 92.59 133.41C92.39 133.35 92.13 133.18 92.01 133.03C91.9 132.87 91.81 132.6 91.81 132.43C91.82 132.25 91.88 131.98 91.96 131.83C92.03 131.67 92.21 131.48 92.36 131.4C92.51 131.32 92.62 131.21 92.62 131.15C92.62 131.09 92.29 130.69 91.89 130.25C91.48 129.81 90.66 129.02 90.06 128.5C89.46 127.98 88.63 127.27 88.21 126.94C87.8 126.6 86.83 125.87 86.06 125.3L84.66 124.28C83.65 124.38 82.77 124.47 82.06 124.56C81.34 124.64 80.29 124.78 79.73 124.86C79.16 124.93 78.49 125 78.23 125C77.87 125.01 77.7 124.95 77.55 124.79C77.44 124.67 77.08 124.35 76.75 124.06C76.16 123.55 76.15 123.55 73.8 122.89C71.45 122.23 71.43 122.22 67.79 120.5C65.78 119.55 63.39 118.42 62.48 118C61.57 117.57 60.15 116.9 59.33 116.51C57.88 115.83 57.8 115.8 57.12 115.81C56.74 115.82 56.08 115.86 55.67 115.91Z" />
	</g>
</svg>